%TF.GenerationSoftware,KiCad,Pcbnew,9.0.0*%
%TF.CreationDate,2025-03-11T16:24:46+11:00*%
%TF.ProjectId,MCU Datalogger,4d435520-4461-4746-916c-6f676765722e,1*%
%TF.SameCoordinates,Original*%
%TF.FileFunction,Legend,Top*%
%TF.FilePolarity,Positive*%
%FSLAX46Y46*%
G04 Gerber Fmt 4.6, Leading zero omitted, Abs format (unit mm)*
G04 Created by KiCad (PCBNEW 9.0.0) date 2025-03-11 16:24:46*
%MOMM*%
%LPD*%
G01*
G04 APERTURE LIST*
%ADD10C,0.150000*%
%ADD11C,0.100000*%
%ADD12C,0.127000*%
%ADD13C,0.200000*%
%ADD14C,0.120000*%
%ADD15C,0.152400*%
%ADD16C,0.254000*%
G04 APERTURE END LIST*
D10*
X159000000Y-83261200D02*
X155494800Y-83261200D01*
X155444000Y-84912200D02*
X159000000Y-84912200D01*
X157209300Y-81762600D02*
X157209300Y-86563200D01*
X155393200Y-81762600D02*
X159025400Y-81762600D01*
X159025400Y-86563200D01*
X155393200Y-86563200D01*
X155393200Y-81762600D01*
X159000000Y-84912200D02*
X159000000Y-83261200D01*
D11*
X152596895Y-90158020D02*
X153396895Y-89891353D01*
X153396895Y-89891353D02*
X152596895Y-89624687D01*
X153358800Y-89015163D02*
X153396895Y-89091354D01*
X153396895Y-89091354D02*
X153396895Y-89243735D01*
X153396895Y-89243735D02*
X153358800Y-89319925D01*
X153358800Y-89319925D02*
X153320704Y-89358020D01*
X153320704Y-89358020D02*
X153244514Y-89396116D01*
X153244514Y-89396116D02*
X153015942Y-89396116D01*
X153015942Y-89396116D02*
X152939752Y-89358020D01*
X152939752Y-89358020D02*
X152901657Y-89319925D01*
X152901657Y-89319925D02*
X152863561Y-89243735D01*
X152863561Y-89243735D02*
X152863561Y-89091354D01*
X152863561Y-89091354D02*
X152901657Y-89015163D01*
X153358800Y-88329449D02*
X153396895Y-88405640D01*
X153396895Y-88405640D02*
X153396895Y-88558021D01*
X153396895Y-88558021D02*
X153358800Y-88634211D01*
X153358800Y-88634211D02*
X153320704Y-88672306D01*
X153320704Y-88672306D02*
X153244514Y-88710402D01*
X153244514Y-88710402D02*
X153015942Y-88710402D01*
X153015942Y-88710402D02*
X152939752Y-88672306D01*
X152939752Y-88672306D02*
X152901657Y-88634211D01*
X152901657Y-88634211D02*
X152863561Y-88558021D01*
X152863561Y-88558021D02*
X152863561Y-88405640D01*
X152863561Y-88405640D02*
X152901657Y-88329449D01*
X157558579Y-81996895D02*
X157825246Y-82796895D01*
X157825246Y-82796895D02*
X158091912Y-81996895D01*
X158701436Y-82758800D02*
X158625245Y-82796895D01*
X158625245Y-82796895D02*
X158472864Y-82796895D01*
X158472864Y-82796895D02*
X158396674Y-82758800D01*
X158396674Y-82758800D02*
X158358579Y-82720704D01*
X158358579Y-82720704D02*
X158320483Y-82644514D01*
X158320483Y-82644514D02*
X158320483Y-82415942D01*
X158320483Y-82415942D02*
X158358579Y-82339752D01*
X158358579Y-82339752D02*
X158396674Y-82301657D01*
X158396674Y-82301657D02*
X158472864Y-82263561D01*
X158472864Y-82263561D02*
X158625245Y-82263561D01*
X158625245Y-82263561D02*
X158701436Y-82301657D01*
X159854425Y-89445887D02*
X159962175Y-89392012D01*
X159962175Y-89392012D02*
X160096862Y-89257325D01*
X160096862Y-89257325D02*
X160123799Y-89176513D01*
X160123799Y-89176513D02*
X160123799Y-89122638D01*
X160123799Y-89122638D02*
X160096862Y-89041826D01*
X160096862Y-89041826D02*
X160042987Y-88987951D01*
X160042987Y-88987951D02*
X159962175Y-88961013D01*
X159962175Y-88961013D02*
X159908300Y-88961013D01*
X159908300Y-88961013D02*
X159827488Y-88987951D01*
X159827488Y-88987951D02*
X159692801Y-89068763D01*
X159692801Y-89068763D02*
X159611989Y-89095700D01*
X159611989Y-89095700D02*
X159558114Y-89095700D01*
X159558114Y-89095700D02*
X159477302Y-89068763D01*
X159477302Y-89068763D02*
X159423427Y-89014888D01*
X159423427Y-89014888D02*
X159396490Y-88934076D01*
X159396490Y-88934076D02*
X159396490Y-88880201D01*
X159396490Y-88880201D02*
X159423427Y-88799389D01*
X159423427Y-88799389D02*
X159558114Y-88664702D01*
X159558114Y-88664702D02*
X159665864Y-88610827D01*
X160716422Y-88530015D02*
X160716422Y-88583890D01*
X160716422Y-88583890D02*
X160662548Y-88691639D01*
X160662548Y-88691639D02*
X160608673Y-88745514D01*
X160608673Y-88745514D02*
X160500923Y-88799389D01*
X160500923Y-88799389D02*
X160393174Y-88799389D01*
X160393174Y-88799389D02*
X160312361Y-88772451D01*
X160312361Y-88772451D02*
X160177674Y-88691639D01*
X160177674Y-88691639D02*
X160096862Y-88610827D01*
X160096862Y-88610827D02*
X160016050Y-88476140D01*
X160016050Y-88476140D02*
X159989113Y-88395328D01*
X159989113Y-88395328D02*
X159989113Y-88287578D01*
X159989113Y-88287578D02*
X160042987Y-88179829D01*
X160042987Y-88179829D02*
X160096862Y-88125954D01*
X160096862Y-88125954D02*
X160204612Y-88072079D01*
X160204612Y-88072079D02*
X160258487Y-88072079D01*
X161012734Y-88341453D02*
X160447048Y-87775768D01*
X161335983Y-88018204D02*
X160770297Y-87937392D01*
X160770297Y-87452519D02*
X160770297Y-88099016D01*
X157891912Y-85334990D02*
X157815722Y-85296895D01*
X157815722Y-85296895D02*
X157701436Y-85296895D01*
X157701436Y-85296895D02*
X157587150Y-85334990D01*
X157587150Y-85334990D02*
X157510960Y-85411180D01*
X157510960Y-85411180D02*
X157472865Y-85487371D01*
X157472865Y-85487371D02*
X157434769Y-85639752D01*
X157434769Y-85639752D02*
X157434769Y-85754038D01*
X157434769Y-85754038D02*
X157472865Y-85906419D01*
X157472865Y-85906419D02*
X157510960Y-85982609D01*
X157510960Y-85982609D02*
X157587150Y-86058800D01*
X157587150Y-86058800D02*
X157701436Y-86096895D01*
X157701436Y-86096895D02*
X157777627Y-86096895D01*
X157777627Y-86096895D02*
X157891912Y-86058800D01*
X157891912Y-86058800D02*
X157930008Y-86020704D01*
X157930008Y-86020704D02*
X157930008Y-85754038D01*
X157930008Y-85754038D02*
X157777627Y-85754038D01*
X158272865Y-86096895D02*
X158272865Y-85296895D01*
X158272865Y-85296895D02*
X158730008Y-86096895D01*
X158730008Y-86096895D02*
X158730008Y-85296895D01*
X155634769Y-84458800D02*
X155749055Y-84496895D01*
X155749055Y-84496895D02*
X155939531Y-84496895D01*
X155939531Y-84496895D02*
X156015722Y-84458800D01*
X156015722Y-84458800D02*
X156053817Y-84420704D01*
X156053817Y-84420704D02*
X156091912Y-84344514D01*
X156091912Y-84344514D02*
X156091912Y-84268323D01*
X156091912Y-84268323D02*
X156053817Y-84192133D01*
X156053817Y-84192133D02*
X156015722Y-84154038D01*
X156015722Y-84154038D02*
X155939531Y-84115942D01*
X155939531Y-84115942D02*
X155787150Y-84077847D01*
X155787150Y-84077847D02*
X155710960Y-84039752D01*
X155710960Y-84039752D02*
X155672865Y-84001657D01*
X155672865Y-84001657D02*
X155634769Y-83925466D01*
X155634769Y-83925466D02*
X155634769Y-83849276D01*
X155634769Y-83849276D02*
X155672865Y-83773085D01*
X155672865Y-83773085D02*
X155710960Y-83734990D01*
X155710960Y-83734990D02*
X155787150Y-83696895D01*
X155787150Y-83696895D02*
X155977627Y-83696895D01*
X155977627Y-83696895D02*
X156091912Y-83734990D01*
X156891913Y-84420704D02*
X156853817Y-84458800D01*
X156853817Y-84458800D02*
X156739532Y-84496895D01*
X156739532Y-84496895D02*
X156663341Y-84496895D01*
X156663341Y-84496895D02*
X156549055Y-84458800D01*
X156549055Y-84458800D02*
X156472865Y-84382609D01*
X156472865Y-84382609D02*
X156434770Y-84306419D01*
X156434770Y-84306419D02*
X156396674Y-84154038D01*
X156396674Y-84154038D02*
X156396674Y-84039752D01*
X156396674Y-84039752D02*
X156434770Y-83887371D01*
X156434770Y-83887371D02*
X156472865Y-83811180D01*
X156472865Y-83811180D02*
X156549055Y-83734990D01*
X156549055Y-83734990D02*
X156663341Y-83696895D01*
X156663341Y-83696895D02*
X156739532Y-83696895D01*
X156739532Y-83696895D02*
X156853817Y-83734990D01*
X156853817Y-83734990D02*
X156891913Y-83773085D01*
X133037217Y-89396895D02*
X132656265Y-89396895D01*
X132656265Y-89396895D02*
X132618169Y-89777847D01*
X132618169Y-89777847D02*
X132656265Y-89739752D01*
X132656265Y-89739752D02*
X132732455Y-89701657D01*
X132732455Y-89701657D02*
X132922931Y-89701657D01*
X132922931Y-89701657D02*
X132999122Y-89739752D01*
X132999122Y-89739752D02*
X133037217Y-89777847D01*
X133037217Y-89777847D02*
X133075312Y-89854038D01*
X133075312Y-89854038D02*
X133075312Y-90044514D01*
X133075312Y-90044514D02*
X133037217Y-90120704D01*
X133037217Y-90120704D02*
X132999122Y-90158800D01*
X132999122Y-90158800D02*
X132922931Y-90196895D01*
X132922931Y-90196895D02*
X132732455Y-90196895D01*
X132732455Y-90196895D02*
X132656265Y-90158800D01*
X132656265Y-90158800D02*
X132618169Y-90120704D01*
X144741979Y-89396895D02*
X145008646Y-90196895D01*
X145008646Y-90196895D02*
X145275312Y-89396895D01*
X145884836Y-90158800D02*
X145808645Y-90196895D01*
X145808645Y-90196895D02*
X145656264Y-90196895D01*
X145656264Y-90196895D02*
X145580074Y-90158800D01*
X145580074Y-90158800D02*
X145541979Y-90120704D01*
X145541979Y-90120704D02*
X145503883Y-90044514D01*
X145503883Y-90044514D02*
X145503883Y-89815942D01*
X145503883Y-89815942D02*
X145541979Y-89739752D01*
X145541979Y-89739752D02*
X145580074Y-89701657D01*
X145580074Y-89701657D02*
X145656264Y-89663561D01*
X145656264Y-89663561D02*
X145808645Y-89663561D01*
X145808645Y-89663561D02*
X145884836Y-89701657D01*
X146570550Y-90158800D02*
X146494359Y-90196895D01*
X146494359Y-90196895D02*
X146341978Y-90196895D01*
X146341978Y-90196895D02*
X146265788Y-90158800D01*
X146265788Y-90158800D02*
X146227693Y-90120704D01*
X146227693Y-90120704D02*
X146189597Y-90044514D01*
X146189597Y-90044514D02*
X146189597Y-89815942D01*
X146189597Y-89815942D02*
X146227693Y-89739752D01*
X146227693Y-89739752D02*
X146265788Y-89701657D01*
X146265788Y-89701657D02*
X146341978Y-89663561D01*
X146341978Y-89663561D02*
X146494359Y-89663561D01*
X146494359Y-89663561D02*
X146570550Y-89701657D01*
X157672865Y-84396895D02*
X157672865Y-83596895D01*
X157672865Y-83596895D02*
X157939531Y-84168323D01*
X157939531Y-84168323D02*
X158206198Y-83596895D01*
X158206198Y-83596895D02*
X158206198Y-84396895D01*
X158587151Y-84396895D02*
X158587151Y-83596895D01*
X140270550Y-89739752D02*
X140194360Y-89701657D01*
X140194360Y-89701657D02*
X140156265Y-89663561D01*
X140156265Y-89663561D02*
X140118169Y-89587371D01*
X140118169Y-89587371D02*
X140118169Y-89549276D01*
X140118169Y-89549276D02*
X140156265Y-89473085D01*
X140156265Y-89473085D02*
X140194360Y-89434990D01*
X140194360Y-89434990D02*
X140270550Y-89396895D01*
X140270550Y-89396895D02*
X140422931Y-89396895D01*
X140422931Y-89396895D02*
X140499122Y-89434990D01*
X140499122Y-89434990D02*
X140537217Y-89473085D01*
X140537217Y-89473085D02*
X140575312Y-89549276D01*
X140575312Y-89549276D02*
X140575312Y-89587371D01*
X140575312Y-89587371D02*
X140537217Y-89663561D01*
X140537217Y-89663561D02*
X140499122Y-89701657D01*
X140499122Y-89701657D02*
X140422931Y-89739752D01*
X140422931Y-89739752D02*
X140270550Y-89739752D01*
X140270550Y-89739752D02*
X140194360Y-89777847D01*
X140194360Y-89777847D02*
X140156265Y-89815942D01*
X140156265Y-89815942D02*
X140118169Y-89892133D01*
X140118169Y-89892133D02*
X140118169Y-90044514D01*
X140118169Y-90044514D02*
X140156265Y-90120704D01*
X140156265Y-90120704D02*
X140194360Y-90158800D01*
X140194360Y-90158800D02*
X140270550Y-90196895D01*
X140270550Y-90196895D02*
X140422931Y-90196895D01*
X140422931Y-90196895D02*
X140499122Y-90158800D01*
X140499122Y-90158800D02*
X140537217Y-90120704D01*
X140537217Y-90120704D02*
X140575312Y-90044514D01*
X140575312Y-90044514D02*
X140575312Y-89892133D01*
X140575312Y-89892133D02*
X140537217Y-89815942D01*
X140537217Y-89815942D02*
X140499122Y-89777847D01*
X140499122Y-89777847D02*
X140422931Y-89739752D01*
X127380074Y-89396895D02*
X127875312Y-89396895D01*
X127875312Y-89396895D02*
X127608646Y-89701657D01*
X127608646Y-89701657D02*
X127722931Y-89701657D01*
X127722931Y-89701657D02*
X127799122Y-89739752D01*
X127799122Y-89739752D02*
X127837217Y-89777847D01*
X127837217Y-89777847D02*
X127875312Y-89854038D01*
X127875312Y-89854038D02*
X127875312Y-90044514D01*
X127875312Y-90044514D02*
X127837217Y-90120704D01*
X127837217Y-90120704D02*
X127799122Y-90158800D01*
X127799122Y-90158800D02*
X127722931Y-90196895D01*
X127722931Y-90196895D02*
X127494360Y-90196895D01*
X127494360Y-90196895D02*
X127418169Y-90158800D01*
X127418169Y-90158800D02*
X127380074Y-90120704D01*
X155613408Y-90196895D02*
X155346741Y-89815942D01*
X155156265Y-90196895D02*
X155156265Y-89396895D01*
X155156265Y-89396895D02*
X155461027Y-89396895D01*
X155461027Y-89396895D02*
X155537217Y-89434990D01*
X155537217Y-89434990D02*
X155575312Y-89473085D01*
X155575312Y-89473085D02*
X155613408Y-89549276D01*
X155613408Y-89549276D02*
X155613408Y-89663561D01*
X155613408Y-89663561D02*
X155575312Y-89739752D01*
X155575312Y-89739752D02*
X155537217Y-89777847D01*
X155537217Y-89777847D02*
X155461027Y-89815942D01*
X155461027Y-89815942D02*
X155156265Y-89815942D01*
X155880074Y-90196895D02*
X156299122Y-89663561D01*
X155880074Y-89663561D02*
X156299122Y-90196895D01*
X137680074Y-89396895D02*
X138213408Y-89396895D01*
X138213408Y-89396895D02*
X137870550Y-90196895D01*
X158956265Y-69596895D02*
X158956265Y-68796895D01*
X159794360Y-69520704D02*
X159756264Y-69558800D01*
X159756264Y-69558800D02*
X159641979Y-69596895D01*
X159641979Y-69596895D02*
X159565788Y-69596895D01*
X159565788Y-69596895D02*
X159451502Y-69558800D01*
X159451502Y-69558800D02*
X159375312Y-69482609D01*
X159375312Y-69482609D02*
X159337217Y-69406419D01*
X159337217Y-69406419D02*
X159299121Y-69254038D01*
X159299121Y-69254038D02*
X159299121Y-69139752D01*
X159299121Y-69139752D02*
X159337217Y-68987371D01*
X159337217Y-68987371D02*
X159375312Y-68911180D01*
X159375312Y-68911180D02*
X159451502Y-68834990D01*
X159451502Y-68834990D02*
X159565788Y-68796895D01*
X159565788Y-68796895D02*
X159641979Y-68796895D01*
X159641979Y-68796895D02*
X159756264Y-68834990D01*
X159756264Y-68834990D02*
X159794360Y-68873085D01*
X160099121Y-69558800D02*
X160213407Y-69596895D01*
X160213407Y-69596895D02*
X160403883Y-69596895D01*
X160403883Y-69596895D02*
X160480074Y-69558800D01*
X160480074Y-69558800D02*
X160518169Y-69520704D01*
X160518169Y-69520704D02*
X160556264Y-69444514D01*
X160556264Y-69444514D02*
X160556264Y-69368323D01*
X160556264Y-69368323D02*
X160518169Y-69292133D01*
X160518169Y-69292133D02*
X160480074Y-69254038D01*
X160480074Y-69254038D02*
X160403883Y-69215942D01*
X160403883Y-69215942D02*
X160251502Y-69177847D01*
X160251502Y-69177847D02*
X160175312Y-69139752D01*
X160175312Y-69139752D02*
X160137217Y-69101657D01*
X160137217Y-69101657D02*
X160099121Y-69025466D01*
X160099121Y-69025466D02*
X160099121Y-68949276D01*
X160099121Y-68949276D02*
X160137217Y-68873085D01*
X160137217Y-68873085D02*
X160175312Y-68834990D01*
X160175312Y-68834990D02*
X160251502Y-68796895D01*
X160251502Y-68796895D02*
X160441979Y-68796895D01*
X160441979Y-68796895D02*
X160556264Y-68834990D01*
X160899122Y-69596895D02*
X160899122Y-68796895D01*
X160899122Y-68796895D02*
X161203884Y-68796895D01*
X161203884Y-68796895D02*
X161280074Y-68834990D01*
X161280074Y-68834990D02*
X161318169Y-68873085D01*
X161318169Y-68873085D02*
X161356265Y-68949276D01*
X161356265Y-68949276D02*
X161356265Y-69063561D01*
X161356265Y-69063561D02*
X161318169Y-69139752D01*
X161318169Y-69139752D02*
X161280074Y-69177847D01*
X161280074Y-69177847D02*
X161203884Y-69215942D01*
X161203884Y-69215942D02*
X160899122Y-69215942D01*
X135499122Y-89396895D02*
X135346741Y-89396895D01*
X135346741Y-89396895D02*
X135270550Y-89434990D01*
X135270550Y-89434990D02*
X135232455Y-89473085D01*
X135232455Y-89473085D02*
X135156265Y-89587371D01*
X135156265Y-89587371D02*
X135118169Y-89739752D01*
X135118169Y-89739752D02*
X135118169Y-90044514D01*
X135118169Y-90044514D02*
X135156265Y-90120704D01*
X135156265Y-90120704D02*
X135194360Y-90158800D01*
X135194360Y-90158800D02*
X135270550Y-90196895D01*
X135270550Y-90196895D02*
X135422931Y-90196895D01*
X135422931Y-90196895D02*
X135499122Y-90158800D01*
X135499122Y-90158800D02*
X135537217Y-90120704D01*
X135537217Y-90120704D02*
X135575312Y-90044514D01*
X135575312Y-90044514D02*
X135575312Y-89854038D01*
X135575312Y-89854038D02*
X135537217Y-89777847D01*
X135537217Y-89777847D02*
X135499122Y-89739752D01*
X135499122Y-89739752D02*
X135422931Y-89701657D01*
X135422931Y-89701657D02*
X135270550Y-89701657D01*
X135270550Y-89701657D02*
X135194360Y-89739752D01*
X135194360Y-89739752D02*
X135156265Y-89777847D01*
X135156265Y-89777847D02*
X135118169Y-89854038D01*
X156130008Y-86096895D02*
X155863341Y-85715942D01*
X155672865Y-86096895D02*
X155672865Y-85296895D01*
X155672865Y-85296895D02*
X155977627Y-85296895D01*
X155977627Y-85296895D02*
X156053817Y-85334990D01*
X156053817Y-85334990D02*
X156091912Y-85373085D01*
X156091912Y-85373085D02*
X156130008Y-85449276D01*
X156130008Y-85449276D02*
X156130008Y-85563561D01*
X156130008Y-85563561D02*
X156091912Y-85639752D01*
X156091912Y-85639752D02*
X156053817Y-85677847D01*
X156053817Y-85677847D02*
X155977627Y-85715942D01*
X155977627Y-85715942D02*
X155672865Y-85715942D01*
X156434769Y-86058800D02*
X156549055Y-86096895D01*
X156549055Y-86096895D02*
X156739531Y-86096895D01*
X156739531Y-86096895D02*
X156815722Y-86058800D01*
X156815722Y-86058800D02*
X156853817Y-86020704D01*
X156853817Y-86020704D02*
X156891912Y-85944514D01*
X156891912Y-85944514D02*
X156891912Y-85868323D01*
X156891912Y-85868323D02*
X156853817Y-85792133D01*
X156853817Y-85792133D02*
X156815722Y-85754038D01*
X156815722Y-85754038D02*
X156739531Y-85715942D01*
X156739531Y-85715942D02*
X156587150Y-85677847D01*
X156587150Y-85677847D02*
X156510960Y-85639752D01*
X156510960Y-85639752D02*
X156472865Y-85601657D01*
X156472865Y-85601657D02*
X156434769Y-85525466D01*
X156434769Y-85525466D02*
X156434769Y-85449276D01*
X156434769Y-85449276D02*
X156472865Y-85373085D01*
X156472865Y-85373085D02*
X156510960Y-85334990D01*
X156510960Y-85334990D02*
X156587150Y-85296895D01*
X156587150Y-85296895D02*
X156777627Y-85296895D01*
X156777627Y-85296895D02*
X156891912Y-85334990D01*
X142375312Y-89434990D02*
X142299122Y-89396895D01*
X142299122Y-89396895D02*
X142184836Y-89396895D01*
X142184836Y-89396895D02*
X142070550Y-89434990D01*
X142070550Y-89434990D02*
X141994360Y-89511180D01*
X141994360Y-89511180D02*
X141956265Y-89587371D01*
X141956265Y-89587371D02*
X141918169Y-89739752D01*
X141918169Y-89739752D02*
X141918169Y-89854038D01*
X141918169Y-89854038D02*
X141956265Y-90006419D01*
X141956265Y-90006419D02*
X141994360Y-90082609D01*
X141994360Y-90082609D02*
X142070550Y-90158800D01*
X142070550Y-90158800D02*
X142184836Y-90196895D01*
X142184836Y-90196895D02*
X142261027Y-90196895D01*
X142261027Y-90196895D02*
X142375312Y-90158800D01*
X142375312Y-90158800D02*
X142413408Y-90120704D01*
X142413408Y-90120704D02*
X142413408Y-89854038D01*
X142413408Y-89854038D02*
X142261027Y-89854038D01*
X142756265Y-90196895D02*
X142756265Y-89396895D01*
X142756265Y-89396895D02*
X143213408Y-90196895D01*
X143213408Y-90196895D02*
X143213408Y-89396895D01*
X143594360Y-90196895D02*
X143594360Y-89396895D01*
X143594360Y-89396895D02*
X143784836Y-89396895D01*
X143784836Y-89396895D02*
X143899122Y-89434990D01*
X143899122Y-89434990D02*
X143975312Y-89511180D01*
X143975312Y-89511180D02*
X144013407Y-89587371D01*
X144013407Y-89587371D02*
X144051503Y-89739752D01*
X144051503Y-89739752D02*
X144051503Y-89854038D01*
X144051503Y-89854038D02*
X144013407Y-90006419D01*
X144013407Y-90006419D02*
X143975312Y-90082609D01*
X143975312Y-90082609D02*
X143899122Y-90158800D01*
X143899122Y-90158800D02*
X143784836Y-90196895D01*
X143784836Y-90196895D02*
X143594360Y-90196895D01*
X159665864Y-81510827D02*
X159585051Y-81537765D01*
X159585051Y-81537765D02*
X159504239Y-81618577D01*
X159504239Y-81618577D02*
X159450364Y-81726326D01*
X159450364Y-81726326D02*
X159450364Y-81834076D01*
X159450364Y-81834076D02*
X159477302Y-81914888D01*
X159477302Y-81914888D02*
X159558114Y-82049575D01*
X159558114Y-82049575D02*
X159638926Y-82130387D01*
X159638926Y-82130387D02*
X159773613Y-82211200D01*
X159773613Y-82211200D02*
X159854425Y-82238137D01*
X159854425Y-82238137D02*
X159962175Y-82238137D01*
X159962175Y-82238137D02*
X160069925Y-82184262D01*
X160069925Y-82184262D02*
X160123799Y-82130387D01*
X160123799Y-82130387D02*
X160177674Y-82022638D01*
X160177674Y-82022638D02*
X160177674Y-81968763D01*
X160177674Y-81968763D02*
X159989112Y-81780201D01*
X159989112Y-81780201D02*
X159881363Y-81887951D01*
X160473986Y-81780201D02*
X159908300Y-81214516D01*
X159908300Y-81214516D02*
X160797235Y-81456952D01*
X160797235Y-81456952D02*
X160231549Y-80891267D01*
X161066608Y-81187578D02*
X160500923Y-80621893D01*
X160500923Y-80621893D02*
X160635610Y-80487206D01*
X160635610Y-80487206D02*
X160743360Y-80433331D01*
X160743360Y-80433331D02*
X160851109Y-80433331D01*
X160851109Y-80433331D02*
X160931921Y-80460269D01*
X160931921Y-80460269D02*
X161066608Y-80541081D01*
X161066608Y-80541081D02*
X161147421Y-80621893D01*
X161147421Y-80621893D02*
X161228233Y-80756580D01*
X161228233Y-80756580D02*
X161255170Y-80837392D01*
X161255170Y-80837392D02*
X161255170Y-80945142D01*
X161255170Y-80945142D02*
X161201295Y-81052891D01*
X161201295Y-81052891D02*
X161066608Y-81187578D01*
X122234990Y-92124687D02*
X122196895Y-92200877D01*
X122196895Y-92200877D02*
X122196895Y-92315163D01*
X122196895Y-92315163D02*
X122234990Y-92429449D01*
X122234990Y-92429449D02*
X122311180Y-92505639D01*
X122311180Y-92505639D02*
X122387371Y-92543734D01*
X122387371Y-92543734D02*
X122539752Y-92581830D01*
X122539752Y-92581830D02*
X122654038Y-92581830D01*
X122654038Y-92581830D02*
X122806419Y-92543734D01*
X122806419Y-92543734D02*
X122882609Y-92505639D01*
X122882609Y-92505639D02*
X122958800Y-92429449D01*
X122958800Y-92429449D02*
X122996895Y-92315163D01*
X122996895Y-92315163D02*
X122996895Y-92238972D01*
X122996895Y-92238972D02*
X122958800Y-92124687D01*
X122958800Y-92124687D02*
X122920704Y-92086591D01*
X122920704Y-92086591D02*
X122654038Y-92086591D01*
X122654038Y-92086591D02*
X122654038Y-92238972D01*
X122996895Y-91743734D02*
X122196895Y-91743734D01*
X122196895Y-91743734D02*
X122196895Y-91438972D01*
X122196895Y-91438972D02*
X122234990Y-91362782D01*
X122234990Y-91362782D02*
X122273085Y-91324687D01*
X122273085Y-91324687D02*
X122349276Y-91286591D01*
X122349276Y-91286591D02*
X122463561Y-91286591D01*
X122463561Y-91286591D02*
X122539752Y-91324687D01*
X122539752Y-91324687D02*
X122577847Y-91362782D01*
X122577847Y-91362782D02*
X122615942Y-91438972D01*
X122615942Y-91438972D02*
X122615942Y-91743734D01*
X122996895Y-90943734D02*
X122196895Y-90943734D01*
X122196895Y-90410401D02*
X122196895Y-90258020D01*
X122196895Y-90258020D02*
X122234990Y-90181830D01*
X122234990Y-90181830D02*
X122311180Y-90105639D01*
X122311180Y-90105639D02*
X122463561Y-90067544D01*
X122463561Y-90067544D02*
X122730228Y-90067544D01*
X122730228Y-90067544D02*
X122882609Y-90105639D01*
X122882609Y-90105639D02*
X122958800Y-90181830D01*
X122958800Y-90181830D02*
X122996895Y-90258020D01*
X122996895Y-90258020D02*
X122996895Y-90410401D01*
X122996895Y-90410401D02*
X122958800Y-90486592D01*
X122958800Y-90486592D02*
X122882609Y-90562782D01*
X122882609Y-90562782D02*
X122730228Y-90600878D01*
X122730228Y-90600878D02*
X122463561Y-90600878D01*
X122463561Y-90600878D02*
X122311180Y-90562782D01*
X122311180Y-90562782D02*
X122234990Y-90486592D01*
X122234990Y-90486592D02*
X122196895Y-90410401D01*
X156156265Y-87696895D02*
X156156265Y-86896895D01*
X156994360Y-87620704D02*
X156956264Y-87658800D01*
X156956264Y-87658800D02*
X156841979Y-87696895D01*
X156841979Y-87696895D02*
X156765788Y-87696895D01*
X156765788Y-87696895D02*
X156651502Y-87658800D01*
X156651502Y-87658800D02*
X156575312Y-87582609D01*
X156575312Y-87582609D02*
X156537217Y-87506419D01*
X156537217Y-87506419D02*
X156499121Y-87354038D01*
X156499121Y-87354038D02*
X156499121Y-87239752D01*
X156499121Y-87239752D02*
X156537217Y-87087371D01*
X156537217Y-87087371D02*
X156575312Y-87011180D01*
X156575312Y-87011180D02*
X156651502Y-86934990D01*
X156651502Y-86934990D02*
X156765788Y-86896895D01*
X156765788Y-86896895D02*
X156841979Y-86896895D01*
X156841979Y-86896895D02*
X156956264Y-86934990D01*
X156956264Y-86934990D02*
X156994360Y-86973085D01*
X157299121Y-87658800D02*
X157413407Y-87696895D01*
X157413407Y-87696895D02*
X157603883Y-87696895D01*
X157603883Y-87696895D02*
X157680074Y-87658800D01*
X157680074Y-87658800D02*
X157718169Y-87620704D01*
X157718169Y-87620704D02*
X157756264Y-87544514D01*
X157756264Y-87544514D02*
X157756264Y-87468323D01*
X157756264Y-87468323D02*
X157718169Y-87392133D01*
X157718169Y-87392133D02*
X157680074Y-87354038D01*
X157680074Y-87354038D02*
X157603883Y-87315942D01*
X157603883Y-87315942D02*
X157451502Y-87277847D01*
X157451502Y-87277847D02*
X157375312Y-87239752D01*
X157375312Y-87239752D02*
X157337217Y-87201657D01*
X157337217Y-87201657D02*
X157299121Y-87125466D01*
X157299121Y-87125466D02*
X157299121Y-87049276D01*
X157299121Y-87049276D02*
X157337217Y-86973085D01*
X157337217Y-86973085D02*
X157375312Y-86934990D01*
X157375312Y-86934990D02*
X157451502Y-86896895D01*
X157451502Y-86896895D02*
X157641979Y-86896895D01*
X157641979Y-86896895D02*
X157756264Y-86934990D01*
X158099122Y-87696895D02*
X158099122Y-86896895D01*
X158099122Y-86896895D02*
X158403884Y-86896895D01*
X158403884Y-86896895D02*
X158480074Y-86934990D01*
X158480074Y-86934990D02*
X158518169Y-86973085D01*
X158518169Y-86973085D02*
X158556265Y-87049276D01*
X158556265Y-87049276D02*
X158556265Y-87163561D01*
X158556265Y-87163561D02*
X158518169Y-87239752D01*
X158518169Y-87239752D02*
X158480074Y-87277847D01*
X158480074Y-87277847D02*
X158403884Y-87315942D01*
X158403884Y-87315942D02*
X158099122Y-87315942D01*
X157641979Y-89396895D02*
X158099122Y-89396895D01*
X157870550Y-90196895D02*
X157870550Y-89396895D01*
X158289598Y-90196895D02*
X158708646Y-89663561D01*
X158289598Y-89663561D02*
X158708646Y-90196895D01*
X155572865Y-82796895D02*
X155572865Y-81996895D01*
X155572865Y-81996895D02*
X155839531Y-82568323D01*
X155839531Y-82568323D02*
X156106198Y-81996895D01*
X156106198Y-81996895D02*
X156106198Y-82796895D01*
X156639532Y-81996895D02*
X156791913Y-81996895D01*
X156791913Y-81996895D02*
X156868103Y-82034990D01*
X156868103Y-82034990D02*
X156944294Y-82111180D01*
X156944294Y-82111180D02*
X156982389Y-82263561D01*
X156982389Y-82263561D02*
X156982389Y-82530228D01*
X156982389Y-82530228D02*
X156944294Y-82682609D01*
X156944294Y-82682609D02*
X156868103Y-82758800D01*
X156868103Y-82758800D02*
X156791913Y-82796895D01*
X156791913Y-82796895D02*
X156639532Y-82796895D01*
X156639532Y-82796895D02*
X156563341Y-82758800D01*
X156563341Y-82758800D02*
X156487151Y-82682609D01*
X156487151Y-82682609D02*
X156449055Y-82530228D01*
X156449055Y-82530228D02*
X156449055Y-82263561D01*
X156449055Y-82263561D02*
X156487151Y-82111180D01*
X156487151Y-82111180D02*
X156563341Y-82034990D01*
X156563341Y-82034990D02*
X156639532Y-81996895D01*
X150034990Y-89624687D02*
X149996895Y-89700877D01*
X149996895Y-89700877D02*
X149996895Y-89815163D01*
X149996895Y-89815163D02*
X150034990Y-89929449D01*
X150034990Y-89929449D02*
X150111180Y-90005639D01*
X150111180Y-90005639D02*
X150187371Y-90043734D01*
X150187371Y-90043734D02*
X150339752Y-90081830D01*
X150339752Y-90081830D02*
X150454038Y-90081830D01*
X150454038Y-90081830D02*
X150606419Y-90043734D01*
X150606419Y-90043734D02*
X150682609Y-90005639D01*
X150682609Y-90005639D02*
X150758800Y-89929449D01*
X150758800Y-89929449D02*
X150796895Y-89815163D01*
X150796895Y-89815163D02*
X150796895Y-89738972D01*
X150796895Y-89738972D02*
X150758800Y-89624687D01*
X150758800Y-89624687D02*
X150720704Y-89586591D01*
X150720704Y-89586591D02*
X150454038Y-89586591D01*
X150454038Y-89586591D02*
X150454038Y-89738972D01*
X150796895Y-89243734D02*
X149996895Y-89243734D01*
X149996895Y-89243734D02*
X150796895Y-88786591D01*
X150796895Y-88786591D02*
X149996895Y-88786591D01*
X150796895Y-88405639D02*
X149996895Y-88405639D01*
X149996895Y-88405639D02*
X149996895Y-88215163D01*
X149996895Y-88215163D02*
X150034990Y-88100877D01*
X150034990Y-88100877D02*
X150111180Y-88024687D01*
X150111180Y-88024687D02*
X150187371Y-87986592D01*
X150187371Y-87986592D02*
X150339752Y-87948496D01*
X150339752Y-87948496D02*
X150454038Y-87948496D01*
X150454038Y-87948496D02*
X150606419Y-87986592D01*
X150606419Y-87986592D02*
X150682609Y-88024687D01*
X150682609Y-88024687D02*
X150758800Y-88100877D01*
X150758800Y-88100877D02*
X150796895Y-88215163D01*
X150796895Y-88215163D02*
X150796895Y-88405639D01*
X161518169Y-91058800D02*
X161632455Y-91096895D01*
X161632455Y-91096895D02*
X161822931Y-91096895D01*
X161822931Y-91096895D02*
X161899122Y-91058800D01*
X161899122Y-91058800D02*
X161937217Y-91020704D01*
X161937217Y-91020704D02*
X161975312Y-90944514D01*
X161975312Y-90944514D02*
X161975312Y-90868323D01*
X161975312Y-90868323D02*
X161937217Y-90792133D01*
X161937217Y-90792133D02*
X161899122Y-90754038D01*
X161899122Y-90754038D02*
X161822931Y-90715942D01*
X161822931Y-90715942D02*
X161670550Y-90677847D01*
X161670550Y-90677847D02*
X161594360Y-90639752D01*
X161594360Y-90639752D02*
X161556265Y-90601657D01*
X161556265Y-90601657D02*
X161518169Y-90525466D01*
X161518169Y-90525466D02*
X161518169Y-90449276D01*
X161518169Y-90449276D02*
X161556265Y-90373085D01*
X161556265Y-90373085D02*
X161594360Y-90334990D01*
X161594360Y-90334990D02*
X161670550Y-90296895D01*
X161670550Y-90296895D02*
X161861027Y-90296895D01*
X161861027Y-90296895D02*
X161975312Y-90334990D01*
X162318170Y-90677847D02*
X162584836Y-90677847D01*
X162699122Y-91096895D02*
X162318170Y-91096895D01*
X162318170Y-91096895D02*
X162318170Y-90296895D01*
X162318170Y-90296895D02*
X162699122Y-90296895D01*
X163499123Y-91096895D02*
X163232456Y-90715942D01*
X163041980Y-91096895D02*
X163041980Y-90296895D01*
X163041980Y-90296895D02*
X163346742Y-90296895D01*
X163346742Y-90296895D02*
X163422932Y-90334990D01*
X163422932Y-90334990D02*
X163461027Y-90373085D01*
X163461027Y-90373085D02*
X163499123Y-90449276D01*
X163499123Y-90449276D02*
X163499123Y-90563561D01*
X163499123Y-90563561D02*
X163461027Y-90639752D01*
X163461027Y-90639752D02*
X163422932Y-90677847D01*
X163422932Y-90677847D02*
X163346742Y-90715942D01*
X163346742Y-90715942D02*
X163041980Y-90715942D01*
X163841980Y-91096895D02*
X163841980Y-90296895D01*
X164184836Y-90868323D02*
X164565789Y-90868323D01*
X164108646Y-91096895D02*
X164375313Y-90296895D01*
X164375313Y-90296895D02*
X164641979Y-91096895D01*
X165289598Y-91096895D02*
X164908646Y-91096895D01*
X164908646Y-91096895D02*
X164908646Y-90296895D01*
X125018169Y-89473085D02*
X125056265Y-89434990D01*
X125056265Y-89434990D02*
X125132455Y-89396895D01*
X125132455Y-89396895D02*
X125322931Y-89396895D01*
X125322931Y-89396895D02*
X125399122Y-89434990D01*
X125399122Y-89434990D02*
X125437217Y-89473085D01*
X125437217Y-89473085D02*
X125475312Y-89549276D01*
X125475312Y-89549276D02*
X125475312Y-89625466D01*
X125475312Y-89625466D02*
X125437217Y-89739752D01*
X125437217Y-89739752D02*
X124980074Y-90196895D01*
X124980074Y-90196895D02*
X125475312Y-90196895D01*
X160896895Y-91843734D02*
X160096895Y-91843734D01*
X160173085Y-91500878D02*
X160134990Y-91462782D01*
X160134990Y-91462782D02*
X160096895Y-91386592D01*
X160096895Y-91386592D02*
X160096895Y-91196116D01*
X160096895Y-91196116D02*
X160134990Y-91119925D01*
X160134990Y-91119925D02*
X160173085Y-91081830D01*
X160173085Y-91081830D02*
X160249276Y-91043735D01*
X160249276Y-91043735D02*
X160325466Y-91043735D01*
X160325466Y-91043735D02*
X160439752Y-91081830D01*
X160439752Y-91081830D02*
X160896895Y-91538973D01*
X160896895Y-91538973D02*
X160896895Y-91043735D01*
X160820704Y-90243734D02*
X160858800Y-90281830D01*
X160858800Y-90281830D02*
X160896895Y-90396115D01*
X160896895Y-90396115D02*
X160896895Y-90472306D01*
X160896895Y-90472306D02*
X160858800Y-90586592D01*
X160858800Y-90586592D02*
X160782609Y-90662782D01*
X160782609Y-90662782D02*
X160706419Y-90700877D01*
X160706419Y-90700877D02*
X160554038Y-90738973D01*
X160554038Y-90738973D02*
X160439752Y-90738973D01*
X160439752Y-90738973D02*
X160287371Y-90700877D01*
X160287371Y-90700877D02*
X160211180Y-90662782D01*
X160211180Y-90662782D02*
X160134990Y-90586592D01*
X160134990Y-90586592D02*
X160096895Y-90472306D01*
X160096895Y-90472306D02*
X160096895Y-90396115D01*
X160096895Y-90396115D02*
X160134990Y-90281830D01*
X160134990Y-90281830D02*
X160173085Y-90243734D01*
X159261803Y-84261013D02*
X160016050Y-84638137D01*
X160016050Y-84638137D02*
X159638926Y-83883890D01*
X160608673Y-83991640D02*
X160581735Y-84072452D01*
X160581735Y-84072452D02*
X160473986Y-84180201D01*
X160473986Y-84180201D02*
X160393173Y-84207139D01*
X160393173Y-84207139D02*
X160339298Y-84207139D01*
X160339298Y-84207139D02*
X160258486Y-84180201D01*
X160258486Y-84180201D02*
X160096862Y-84018577D01*
X160096862Y-84018577D02*
X160069924Y-83937765D01*
X160069924Y-83937765D02*
X160069924Y-83883890D01*
X160069924Y-83883890D02*
X160096862Y-83803078D01*
X160096862Y-83803078D02*
X160204611Y-83695328D01*
X160204611Y-83695328D02*
X160285424Y-83668391D01*
X161093546Y-83506767D02*
X161066608Y-83587579D01*
X161066608Y-83587579D02*
X160958859Y-83695328D01*
X160958859Y-83695328D02*
X160878046Y-83722266D01*
X160878046Y-83722266D02*
X160824172Y-83722266D01*
X160824172Y-83722266D02*
X160743359Y-83695328D01*
X160743359Y-83695328D02*
X160581735Y-83533704D01*
X160581735Y-83533704D02*
X160554798Y-83452892D01*
X160554798Y-83452892D02*
X160554798Y-83399017D01*
X160554798Y-83399017D02*
X160581735Y-83318205D01*
X160581735Y-83318205D02*
X160689485Y-83210455D01*
X160689485Y-83210455D02*
X160770297Y-83183518D01*
X130499122Y-89663561D02*
X130499122Y-90196895D01*
X130308646Y-89358800D02*
X130118169Y-89930228D01*
X130118169Y-89930228D02*
X130613408Y-89930228D01*
X159854425Y-87145887D02*
X159962175Y-87092012D01*
X159962175Y-87092012D02*
X160096862Y-86957325D01*
X160096862Y-86957325D02*
X160123799Y-86876513D01*
X160123799Y-86876513D02*
X160123799Y-86822638D01*
X160123799Y-86822638D02*
X160096862Y-86741826D01*
X160096862Y-86741826D02*
X160042987Y-86687951D01*
X160042987Y-86687951D02*
X159962175Y-86661013D01*
X159962175Y-86661013D02*
X159908300Y-86661013D01*
X159908300Y-86661013D02*
X159827488Y-86687951D01*
X159827488Y-86687951D02*
X159692801Y-86768763D01*
X159692801Y-86768763D02*
X159611989Y-86795700D01*
X159611989Y-86795700D02*
X159558114Y-86795700D01*
X159558114Y-86795700D02*
X159477302Y-86768763D01*
X159477302Y-86768763D02*
X159423427Y-86714888D01*
X159423427Y-86714888D02*
X159396490Y-86634076D01*
X159396490Y-86634076D02*
X159396490Y-86580201D01*
X159396490Y-86580201D02*
X159423427Y-86499389D01*
X159423427Y-86499389D02*
X159558114Y-86364702D01*
X159558114Y-86364702D02*
X159665864Y-86310827D01*
X160447048Y-86607138D02*
X159881363Y-86041453D01*
X159881363Y-86041453D02*
X160016050Y-85906766D01*
X160016050Y-85906766D02*
X160123800Y-85852891D01*
X160123800Y-85852891D02*
X160231549Y-85852891D01*
X160231549Y-85852891D02*
X160312361Y-85879829D01*
X160312361Y-85879829D02*
X160447048Y-85960641D01*
X160447048Y-85960641D02*
X160527861Y-86041453D01*
X160527861Y-86041453D02*
X160608673Y-86176140D01*
X160608673Y-86176140D02*
X160635610Y-86256952D01*
X160635610Y-86256952D02*
X160635610Y-86364702D01*
X160635610Y-86364702D02*
X160581735Y-86472451D01*
X160581735Y-86472451D02*
X160447048Y-86607138D01*
X160824172Y-85906766D02*
X161093546Y-85637392D01*
X160931922Y-86122265D02*
X160554798Y-85368018D01*
X160554798Y-85368018D02*
X161309045Y-85745142D01*
X135490476Y-83164895D02*
X135490476Y-83812514D01*
X135490476Y-83812514D02*
X135528571Y-83888704D01*
X135528571Y-83888704D02*
X135566666Y-83926800D01*
X135566666Y-83926800D02*
X135642857Y-83964895D01*
X135642857Y-83964895D02*
X135795238Y-83964895D01*
X135795238Y-83964895D02*
X135871428Y-83926800D01*
X135871428Y-83926800D02*
X135909523Y-83888704D01*
X135909523Y-83888704D02*
X135947619Y-83812514D01*
X135947619Y-83812514D02*
X135947619Y-83164895D01*
X136747618Y-83964895D02*
X136290475Y-83964895D01*
X136519047Y-83964895D02*
X136519047Y-83164895D01*
X136519047Y-83164895D02*
X136442856Y-83279180D01*
X136442856Y-83279180D02*
X136366666Y-83355371D01*
X136366666Y-83355371D02*
X136290475Y-83393466D01*
X135064895Y-85890476D02*
X134264895Y-85890476D01*
X134264895Y-85890476D02*
X134264895Y-85700000D01*
X134264895Y-85700000D02*
X134302990Y-85585714D01*
X134302990Y-85585714D02*
X134379180Y-85509524D01*
X134379180Y-85509524D02*
X134455371Y-85471429D01*
X134455371Y-85471429D02*
X134607752Y-85433333D01*
X134607752Y-85433333D02*
X134722038Y-85433333D01*
X134722038Y-85433333D02*
X134874419Y-85471429D01*
X134874419Y-85471429D02*
X134950609Y-85509524D01*
X134950609Y-85509524D02*
X135026800Y-85585714D01*
X135026800Y-85585714D02*
X135064895Y-85700000D01*
X135064895Y-85700000D02*
X135064895Y-85890476D01*
X135026800Y-85128572D02*
X135064895Y-85014286D01*
X135064895Y-85014286D02*
X135064895Y-84823810D01*
X135064895Y-84823810D02*
X135026800Y-84747619D01*
X135026800Y-84747619D02*
X134988704Y-84709524D01*
X134988704Y-84709524D02*
X134912514Y-84671429D01*
X134912514Y-84671429D02*
X134836323Y-84671429D01*
X134836323Y-84671429D02*
X134760133Y-84709524D01*
X134760133Y-84709524D02*
X134722038Y-84747619D01*
X134722038Y-84747619D02*
X134683942Y-84823810D01*
X134683942Y-84823810D02*
X134645847Y-84976191D01*
X134645847Y-84976191D02*
X134607752Y-85052381D01*
X134607752Y-85052381D02*
X134569657Y-85090476D01*
X134569657Y-85090476D02*
X134493466Y-85128572D01*
X134493466Y-85128572D02*
X134417276Y-85128572D01*
X134417276Y-85128572D02*
X134341085Y-85090476D01*
X134341085Y-85090476D02*
X134302990Y-85052381D01*
X134302990Y-85052381D02*
X134264895Y-84976191D01*
X134264895Y-84976191D02*
X134264895Y-84785714D01*
X134264895Y-84785714D02*
X134302990Y-84671429D01*
X135064895Y-83909524D02*
X135064895Y-84366667D01*
X135064895Y-84138095D02*
X134264895Y-84138095D01*
X134264895Y-84138095D02*
X134379180Y-84214286D01*
X134379180Y-84214286D02*
X134455371Y-84290476D01*
X134455371Y-84290476D02*
X134493466Y-84366667D01*
X134264895Y-83642857D02*
X134264895Y-83147619D01*
X134264895Y-83147619D02*
X134569657Y-83414285D01*
X134569657Y-83414285D02*
X134569657Y-83300000D01*
X134569657Y-83300000D02*
X134607752Y-83223809D01*
X134607752Y-83223809D02*
X134645847Y-83185714D01*
X134645847Y-83185714D02*
X134722038Y-83147619D01*
X134722038Y-83147619D02*
X134912514Y-83147619D01*
X134912514Y-83147619D02*
X134988704Y-83185714D01*
X134988704Y-83185714D02*
X135026800Y-83223809D01*
X135026800Y-83223809D02*
X135064895Y-83300000D01*
X135064895Y-83300000D02*
X135064895Y-83528571D01*
X135064895Y-83528571D02*
X135026800Y-83604762D01*
X135026800Y-83604762D02*
X134988704Y-83642857D01*
X134264895Y-82880952D02*
X134264895Y-82385714D01*
X134264895Y-82385714D02*
X134569657Y-82652380D01*
X134569657Y-82652380D02*
X134569657Y-82538095D01*
X134569657Y-82538095D02*
X134607752Y-82461904D01*
X134607752Y-82461904D02*
X134645847Y-82423809D01*
X134645847Y-82423809D02*
X134722038Y-82385714D01*
X134722038Y-82385714D02*
X134912514Y-82385714D01*
X134912514Y-82385714D02*
X134988704Y-82423809D01*
X134988704Y-82423809D02*
X135026800Y-82461904D01*
X135026800Y-82461904D02*
X135064895Y-82538095D01*
X135064895Y-82538095D02*
X135064895Y-82766666D01*
X135064895Y-82766666D02*
X135026800Y-82842857D01*
X135026800Y-82842857D02*
X134988704Y-82880952D01*
X134264895Y-82119047D02*
X134264895Y-81585713D01*
X134264895Y-81585713D02*
X135064895Y-81928571D01*
X135026800Y-81319047D02*
X135064895Y-81204761D01*
X135064895Y-81204761D02*
X135064895Y-81014285D01*
X135064895Y-81014285D02*
X135026800Y-80938094D01*
X135026800Y-80938094D02*
X134988704Y-80899999D01*
X134988704Y-80899999D02*
X134912514Y-80861904D01*
X134912514Y-80861904D02*
X134836323Y-80861904D01*
X134836323Y-80861904D02*
X134760133Y-80899999D01*
X134760133Y-80899999D02*
X134722038Y-80938094D01*
X134722038Y-80938094D02*
X134683942Y-81014285D01*
X134683942Y-81014285D02*
X134645847Y-81166666D01*
X134645847Y-81166666D02*
X134607752Y-81242856D01*
X134607752Y-81242856D02*
X134569657Y-81280951D01*
X134569657Y-81280951D02*
X134493466Y-81319047D01*
X134493466Y-81319047D02*
X134417276Y-81319047D01*
X134417276Y-81319047D02*
X134341085Y-81280951D01*
X134341085Y-81280951D02*
X134302990Y-81242856D01*
X134302990Y-81242856D02*
X134264895Y-81166666D01*
X134264895Y-81166666D02*
X134264895Y-80976189D01*
X134264895Y-80976189D02*
X134302990Y-80861904D01*
X134760133Y-80519046D02*
X134760133Y-79909523D01*
X135064895Y-80214284D02*
X134455371Y-80214284D01*
X162833333Y-68864895D02*
X162833333Y-69436323D01*
X162833333Y-69436323D02*
X162795238Y-69550609D01*
X162795238Y-69550609D02*
X162719047Y-69626800D01*
X162719047Y-69626800D02*
X162604762Y-69664895D01*
X162604762Y-69664895D02*
X162528571Y-69664895D01*
X163557143Y-69131561D02*
X163557143Y-69664895D01*
X163366667Y-68826800D02*
X163176190Y-69398228D01*
X163176190Y-69398228D02*
X163671429Y-69398228D01*
X123633333Y-89064895D02*
X123633333Y-89636323D01*
X123633333Y-89636323D02*
X123595238Y-89750609D01*
X123595238Y-89750609D02*
X123519047Y-89826800D01*
X123519047Y-89826800D02*
X123404762Y-89864895D01*
X123404762Y-89864895D02*
X123328571Y-89864895D01*
X123976190Y-89141085D02*
X124014286Y-89102990D01*
X124014286Y-89102990D02*
X124090476Y-89064895D01*
X124090476Y-89064895D02*
X124280952Y-89064895D01*
X124280952Y-89064895D02*
X124357143Y-89102990D01*
X124357143Y-89102990D02*
X124395238Y-89141085D01*
X124395238Y-89141085D02*
X124433333Y-89217276D01*
X124433333Y-89217276D02*
X124433333Y-89293466D01*
X124433333Y-89293466D02*
X124395238Y-89407752D01*
X124395238Y-89407752D02*
X123938095Y-89864895D01*
X123938095Y-89864895D02*
X124433333Y-89864895D01*
X145916667Y-68458704D02*
X145878571Y-68496800D01*
X145878571Y-68496800D02*
X145764286Y-68534895D01*
X145764286Y-68534895D02*
X145688095Y-68534895D01*
X145688095Y-68534895D02*
X145573809Y-68496800D01*
X145573809Y-68496800D02*
X145497619Y-68420609D01*
X145497619Y-68420609D02*
X145459524Y-68344419D01*
X145459524Y-68344419D02*
X145421428Y-68192038D01*
X145421428Y-68192038D02*
X145421428Y-68077752D01*
X145421428Y-68077752D02*
X145459524Y-67925371D01*
X145459524Y-67925371D02*
X145497619Y-67849180D01*
X145497619Y-67849180D02*
X145573809Y-67772990D01*
X145573809Y-67772990D02*
X145688095Y-67734895D01*
X145688095Y-67734895D02*
X145764286Y-67734895D01*
X145764286Y-67734895D02*
X145878571Y-67772990D01*
X145878571Y-67772990D02*
X145916667Y-67811085D01*
X146640476Y-67734895D02*
X146259524Y-67734895D01*
X146259524Y-67734895D02*
X146221428Y-68115847D01*
X146221428Y-68115847D02*
X146259524Y-68077752D01*
X146259524Y-68077752D02*
X146335714Y-68039657D01*
X146335714Y-68039657D02*
X146526190Y-68039657D01*
X146526190Y-68039657D02*
X146602381Y-68077752D01*
X146602381Y-68077752D02*
X146640476Y-68115847D01*
X146640476Y-68115847D02*
X146678571Y-68192038D01*
X146678571Y-68192038D02*
X146678571Y-68382514D01*
X146678571Y-68382514D02*
X146640476Y-68458704D01*
X146640476Y-68458704D02*
X146602381Y-68496800D01*
X146602381Y-68496800D02*
X146526190Y-68534895D01*
X146526190Y-68534895D02*
X146335714Y-68534895D01*
X146335714Y-68534895D02*
X146259524Y-68496800D01*
X146259524Y-68496800D02*
X146221428Y-68458704D01*
X156066667Y-80064895D02*
X155800000Y-79683942D01*
X155609524Y-80064895D02*
X155609524Y-79264895D01*
X155609524Y-79264895D02*
X155914286Y-79264895D01*
X155914286Y-79264895D02*
X155990476Y-79302990D01*
X155990476Y-79302990D02*
X156028571Y-79341085D01*
X156028571Y-79341085D02*
X156066667Y-79417276D01*
X156066667Y-79417276D02*
X156066667Y-79531561D01*
X156066667Y-79531561D02*
X156028571Y-79607752D01*
X156028571Y-79607752D02*
X155990476Y-79645847D01*
X155990476Y-79645847D02*
X155914286Y-79683942D01*
X155914286Y-79683942D02*
X155609524Y-79683942D01*
X156752381Y-79264895D02*
X156600000Y-79264895D01*
X156600000Y-79264895D02*
X156523809Y-79302990D01*
X156523809Y-79302990D02*
X156485714Y-79341085D01*
X156485714Y-79341085D02*
X156409524Y-79455371D01*
X156409524Y-79455371D02*
X156371428Y-79607752D01*
X156371428Y-79607752D02*
X156371428Y-79912514D01*
X156371428Y-79912514D02*
X156409524Y-79988704D01*
X156409524Y-79988704D02*
X156447619Y-80026800D01*
X156447619Y-80026800D02*
X156523809Y-80064895D01*
X156523809Y-80064895D02*
X156676190Y-80064895D01*
X156676190Y-80064895D02*
X156752381Y-80026800D01*
X156752381Y-80026800D02*
X156790476Y-79988704D01*
X156790476Y-79988704D02*
X156828571Y-79912514D01*
X156828571Y-79912514D02*
X156828571Y-79722038D01*
X156828571Y-79722038D02*
X156790476Y-79645847D01*
X156790476Y-79645847D02*
X156752381Y-79607752D01*
X156752381Y-79607752D02*
X156676190Y-79569657D01*
X156676190Y-79569657D02*
X156523809Y-79569657D01*
X156523809Y-79569657D02*
X156447619Y-79607752D01*
X156447619Y-79607752D02*
X156409524Y-79645847D01*
X156409524Y-79645847D02*
X156371428Y-79722038D01*
X151666667Y-74464895D02*
X151400000Y-74083942D01*
X151209524Y-74464895D02*
X151209524Y-73664895D01*
X151209524Y-73664895D02*
X151514286Y-73664895D01*
X151514286Y-73664895D02*
X151590476Y-73702990D01*
X151590476Y-73702990D02*
X151628571Y-73741085D01*
X151628571Y-73741085D02*
X151666667Y-73817276D01*
X151666667Y-73817276D02*
X151666667Y-73931561D01*
X151666667Y-73931561D02*
X151628571Y-74007752D01*
X151628571Y-74007752D02*
X151590476Y-74045847D01*
X151590476Y-74045847D02*
X151514286Y-74083942D01*
X151514286Y-74083942D02*
X151209524Y-74083942D01*
X151933333Y-73664895D02*
X152466667Y-73664895D01*
X152466667Y-73664895D02*
X152123809Y-74464895D01*
X133216667Y-87164895D02*
X132950000Y-86783942D01*
X132759524Y-87164895D02*
X132759524Y-86364895D01*
X132759524Y-86364895D02*
X133064286Y-86364895D01*
X133064286Y-86364895D02*
X133140476Y-86402990D01*
X133140476Y-86402990D02*
X133178571Y-86441085D01*
X133178571Y-86441085D02*
X133216667Y-86517276D01*
X133216667Y-86517276D02*
X133216667Y-86631561D01*
X133216667Y-86631561D02*
X133178571Y-86707752D01*
X133178571Y-86707752D02*
X133140476Y-86745847D01*
X133140476Y-86745847D02*
X133064286Y-86783942D01*
X133064286Y-86783942D02*
X132759524Y-86783942D01*
X133521428Y-86441085D02*
X133559524Y-86402990D01*
X133559524Y-86402990D02*
X133635714Y-86364895D01*
X133635714Y-86364895D02*
X133826190Y-86364895D01*
X133826190Y-86364895D02*
X133902381Y-86402990D01*
X133902381Y-86402990D02*
X133940476Y-86441085D01*
X133940476Y-86441085D02*
X133978571Y-86517276D01*
X133978571Y-86517276D02*
X133978571Y-86593466D01*
X133978571Y-86593466D02*
X133940476Y-86707752D01*
X133940476Y-86707752D02*
X133483333Y-87164895D01*
X133483333Y-87164895D02*
X133978571Y-87164895D01*
X149904524Y-68564895D02*
X149904524Y-67764895D01*
X149904524Y-67764895D02*
X150095000Y-67764895D01*
X150095000Y-67764895D02*
X150209286Y-67802990D01*
X150209286Y-67802990D02*
X150285476Y-67879180D01*
X150285476Y-67879180D02*
X150323571Y-67955371D01*
X150323571Y-67955371D02*
X150361667Y-68107752D01*
X150361667Y-68107752D02*
X150361667Y-68222038D01*
X150361667Y-68222038D02*
X150323571Y-68374419D01*
X150323571Y-68374419D02*
X150285476Y-68450609D01*
X150285476Y-68450609D02*
X150209286Y-68526800D01*
X150209286Y-68526800D02*
X150095000Y-68564895D01*
X150095000Y-68564895D02*
X149904524Y-68564895D01*
X150666428Y-67841085D02*
X150704524Y-67802990D01*
X150704524Y-67802990D02*
X150780714Y-67764895D01*
X150780714Y-67764895D02*
X150971190Y-67764895D01*
X150971190Y-67764895D02*
X151047381Y-67802990D01*
X151047381Y-67802990D02*
X151085476Y-67841085D01*
X151085476Y-67841085D02*
X151123571Y-67917276D01*
X151123571Y-67917276D02*
X151123571Y-67993466D01*
X151123571Y-67993466D02*
X151085476Y-68107752D01*
X151085476Y-68107752D02*
X150628333Y-68564895D01*
X150628333Y-68564895D02*
X151123571Y-68564895D01*
X135090476Y-78064895D02*
X135090476Y-78712514D01*
X135090476Y-78712514D02*
X135128571Y-78788704D01*
X135128571Y-78788704D02*
X135166666Y-78826800D01*
X135166666Y-78826800D02*
X135242857Y-78864895D01*
X135242857Y-78864895D02*
X135395238Y-78864895D01*
X135395238Y-78864895D02*
X135471428Y-78826800D01*
X135471428Y-78826800D02*
X135509523Y-78788704D01*
X135509523Y-78788704D02*
X135547619Y-78712514D01*
X135547619Y-78712514D02*
X135547619Y-78064895D01*
X135852380Y-78064895D02*
X136347618Y-78064895D01*
X136347618Y-78064895D02*
X136080952Y-78369657D01*
X136080952Y-78369657D02*
X136195237Y-78369657D01*
X136195237Y-78369657D02*
X136271428Y-78407752D01*
X136271428Y-78407752D02*
X136309523Y-78445847D01*
X136309523Y-78445847D02*
X136347618Y-78522038D01*
X136347618Y-78522038D02*
X136347618Y-78712514D01*
X136347618Y-78712514D02*
X136309523Y-78788704D01*
X136309523Y-78788704D02*
X136271428Y-78826800D01*
X136271428Y-78826800D02*
X136195237Y-78864895D01*
X136195237Y-78864895D02*
X135966666Y-78864895D01*
X135966666Y-78864895D02*
X135890475Y-78826800D01*
X135890475Y-78826800D02*
X135852380Y-78788704D01*
X154266667Y-83588704D02*
X154228571Y-83626800D01*
X154228571Y-83626800D02*
X154114286Y-83664895D01*
X154114286Y-83664895D02*
X154038095Y-83664895D01*
X154038095Y-83664895D02*
X153923809Y-83626800D01*
X153923809Y-83626800D02*
X153847619Y-83550609D01*
X153847619Y-83550609D02*
X153809524Y-83474419D01*
X153809524Y-83474419D02*
X153771428Y-83322038D01*
X153771428Y-83322038D02*
X153771428Y-83207752D01*
X153771428Y-83207752D02*
X153809524Y-83055371D01*
X153809524Y-83055371D02*
X153847619Y-82979180D01*
X153847619Y-82979180D02*
X153923809Y-82902990D01*
X153923809Y-82902990D02*
X154038095Y-82864895D01*
X154038095Y-82864895D02*
X154114286Y-82864895D01*
X154114286Y-82864895D02*
X154228571Y-82902990D01*
X154228571Y-82902990D02*
X154266667Y-82941085D01*
X154952381Y-83131561D02*
X154952381Y-83664895D01*
X154761905Y-82826800D02*
X154571428Y-83398228D01*
X154571428Y-83398228D02*
X155066667Y-83398228D01*
X127666667Y-87164895D02*
X127400000Y-86783942D01*
X127209524Y-87164895D02*
X127209524Y-86364895D01*
X127209524Y-86364895D02*
X127514286Y-86364895D01*
X127514286Y-86364895D02*
X127590476Y-86402990D01*
X127590476Y-86402990D02*
X127628571Y-86441085D01*
X127628571Y-86441085D02*
X127666667Y-86517276D01*
X127666667Y-86517276D02*
X127666667Y-86631561D01*
X127666667Y-86631561D02*
X127628571Y-86707752D01*
X127628571Y-86707752D02*
X127590476Y-86745847D01*
X127590476Y-86745847D02*
X127514286Y-86783942D01*
X127514286Y-86783942D02*
X127209524Y-86783942D01*
X128428571Y-87164895D02*
X127971428Y-87164895D01*
X128200000Y-87164895D02*
X128200000Y-86364895D01*
X128200000Y-86364895D02*
X128123809Y-86479180D01*
X128123809Y-86479180D02*
X128047619Y-86555371D01*
X128047619Y-86555371D02*
X127971428Y-86593466D01*
X137619048Y-87583942D02*
X137619048Y-87964895D01*
X137352381Y-87164895D02*
X137619048Y-87583942D01*
X137619048Y-87583942D02*
X137885714Y-87164895D01*
X138114285Y-87241085D02*
X138152381Y-87202990D01*
X138152381Y-87202990D02*
X138228571Y-87164895D01*
X138228571Y-87164895D02*
X138419047Y-87164895D01*
X138419047Y-87164895D02*
X138495238Y-87202990D01*
X138495238Y-87202990D02*
X138533333Y-87241085D01*
X138533333Y-87241085D02*
X138571428Y-87317276D01*
X138571428Y-87317276D02*
X138571428Y-87393466D01*
X138571428Y-87393466D02*
X138533333Y-87507752D01*
X138533333Y-87507752D02*
X138076190Y-87964895D01*
X138076190Y-87964895D02*
X138571428Y-87964895D01*
X141842856Y-89164895D02*
X141385713Y-89164895D01*
X141614285Y-89164895D02*
X141614285Y-88364895D01*
X141614285Y-88364895D02*
X141538094Y-88479180D01*
X141538094Y-88479180D02*
X141461904Y-88555371D01*
X141461904Y-88555371D02*
X141385713Y-88593466D01*
X142528571Y-88364895D02*
X142376190Y-88364895D01*
X142376190Y-88364895D02*
X142299999Y-88402990D01*
X142299999Y-88402990D02*
X142261904Y-88441085D01*
X142261904Y-88441085D02*
X142185714Y-88555371D01*
X142185714Y-88555371D02*
X142147618Y-88707752D01*
X142147618Y-88707752D02*
X142147618Y-89012514D01*
X142147618Y-89012514D02*
X142185714Y-89088704D01*
X142185714Y-89088704D02*
X142223809Y-89126800D01*
X142223809Y-89126800D02*
X142299999Y-89164895D01*
X142299999Y-89164895D02*
X142452380Y-89164895D01*
X142452380Y-89164895D02*
X142528571Y-89126800D01*
X142528571Y-89126800D02*
X142566666Y-89088704D01*
X142566666Y-89088704D02*
X142604761Y-89012514D01*
X142604761Y-89012514D02*
X142604761Y-88822038D01*
X142604761Y-88822038D02*
X142566666Y-88745847D01*
X142566666Y-88745847D02*
X142528571Y-88707752D01*
X142528571Y-88707752D02*
X142452380Y-88669657D01*
X142452380Y-88669657D02*
X142299999Y-88669657D01*
X142299999Y-88669657D02*
X142223809Y-88707752D01*
X142223809Y-88707752D02*
X142185714Y-88745847D01*
X142185714Y-88745847D02*
X142147618Y-88822038D01*
X143557143Y-89164895D02*
X143557143Y-88364895D01*
X143557143Y-88364895D02*
X143823809Y-88936323D01*
X143823809Y-88936323D02*
X144090476Y-88364895D01*
X144090476Y-88364895D02*
X144090476Y-89164895D01*
X144471429Y-89164895D02*
X144471429Y-88364895D01*
X144471429Y-88745847D02*
X144928572Y-88745847D01*
X144928572Y-89164895D02*
X144928572Y-88364895D01*
X145233333Y-88631561D02*
X145652381Y-88631561D01*
X145652381Y-88631561D02*
X145233333Y-89164895D01*
X145233333Y-89164895D02*
X145652381Y-89164895D01*
X121183942Y-89580951D02*
X121564895Y-89580951D01*
X120764895Y-89847618D02*
X121183942Y-89580951D01*
X121183942Y-89580951D02*
X120764895Y-89314285D01*
X121564895Y-88628571D02*
X121564895Y-89085714D01*
X121564895Y-88857142D02*
X120764895Y-88857142D01*
X120764895Y-88857142D02*
X120879180Y-88933333D01*
X120879180Y-88933333D02*
X120955371Y-89009523D01*
X120955371Y-89009523D02*
X120993466Y-89085714D01*
X124664895Y-87828571D02*
X124664895Y-87333333D01*
X124664895Y-87333333D02*
X124969657Y-87599999D01*
X124969657Y-87599999D02*
X124969657Y-87485714D01*
X124969657Y-87485714D02*
X125007752Y-87409523D01*
X125007752Y-87409523D02*
X125045847Y-87371428D01*
X125045847Y-87371428D02*
X125122038Y-87333333D01*
X125122038Y-87333333D02*
X125312514Y-87333333D01*
X125312514Y-87333333D02*
X125388704Y-87371428D01*
X125388704Y-87371428D02*
X125426800Y-87409523D01*
X125426800Y-87409523D02*
X125464895Y-87485714D01*
X125464895Y-87485714D02*
X125464895Y-87714285D01*
X125464895Y-87714285D02*
X125426800Y-87790476D01*
X125426800Y-87790476D02*
X125388704Y-87828571D01*
X124741085Y-87028571D02*
X124702990Y-86990475D01*
X124702990Y-86990475D02*
X124664895Y-86914285D01*
X124664895Y-86914285D02*
X124664895Y-86723809D01*
X124664895Y-86723809D02*
X124702990Y-86647618D01*
X124702990Y-86647618D02*
X124741085Y-86609523D01*
X124741085Y-86609523D02*
X124817276Y-86571428D01*
X124817276Y-86571428D02*
X124893466Y-86571428D01*
X124893466Y-86571428D02*
X125007752Y-86609523D01*
X125007752Y-86609523D02*
X125464895Y-87066666D01*
X125464895Y-87066666D02*
X125464895Y-86571428D01*
X125388704Y-86228570D02*
X125426800Y-86190475D01*
X125426800Y-86190475D02*
X125464895Y-86228570D01*
X125464895Y-86228570D02*
X125426800Y-86266666D01*
X125426800Y-86266666D02*
X125388704Y-86228570D01*
X125388704Y-86228570D02*
X125464895Y-86228570D01*
X124664895Y-85923809D02*
X124664895Y-85390475D01*
X124664895Y-85390475D02*
X125464895Y-85733333D01*
X124664895Y-84742856D02*
X124664895Y-84895237D01*
X124664895Y-84895237D02*
X124702990Y-84971428D01*
X124702990Y-84971428D02*
X124741085Y-85009523D01*
X124741085Y-85009523D02*
X124855371Y-85085713D01*
X124855371Y-85085713D02*
X125007752Y-85123809D01*
X125007752Y-85123809D02*
X125312514Y-85123809D01*
X125312514Y-85123809D02*
X125388704Y-85085713D01*
X125388704Y-85085713D02*
X125426800Y-85047618D01*
X125426800Y-85047618D02*
X125464895Y-84971428D01*
X125464895Y-84971428D02*
X125464895Y-84819047D01*
X125464895Y-84819047D02*
X125426800Y-84742856D01*
X125426800Y-84742856D02*
X125388704Y-84704761D01*
X125388704Y-84704761D02*
X125312514Y-84666666D01*
X125312514Y-84666666D02*
X125122038Y-84666666D01*
X125122038Y-84666666D02*
X125045847Y-84704761D01*
X125045847Y-84704761D02*
X125007752Y-84742856D01*
X125007752Y-84742856D02*
X124969657Y-84819047D01*
X124969657Y-84819047D02*
X124969657Y-84971428D01*
X124969657Y-84971428D02*
X125007752Y-85047618D01*
X125007752Y-85047618D02*
X125045847Y-85085713D01*
X125045847Y-85085713D02*
X125122038Y-85123809D01*
X125007752Y-84209523D02*
X124969657Y-84285713D01*
X124969657Y-84285713D02*
X124931561Y-84323808D01*
X124931561Y-84323808D02*
X124855371Y-84361904D01*
X124855371Y-84361904D02*
X124817276Y-84361904D01*
X124817276Y-84361904D02*
X124741085Y-84323808D01*
X124741085Y-84323808D02*
X124702990Y-84285713D01*
X124702990Y-84285713D02*
X124664895Y-84209523D01*
X124664895Y-84209523D02*
X124664895Y-84057142D01*
X124664895Y-84057142D02*
X124702990Y-83980951D01*
X124702990Y-83980951D02*
X124741085Y-83942856D01*
X124741085Y-83942856D02*
X124817276Y-83904761D01*
X124817276Y-83904761D02*
X124855371Y-83904761D01*
X124855371Y-83904761D02*
X124931561Y-83942856D01*
X124931561Y-83942856D02*
X124969657Y-83980951D01*
X124969657Y-83980951D02*
X125007752Y-84057142D01*
X125007752Y-84057142D02*
X125007752Y-84209523D01*
X125007752Y-84209523D02*
X125045847Y-84285713D01*
X125045847Y-84285713D02*
X125083942Y-84323808D01*
X125083942Y-84323808D02*
X125160133Y-84361904D01*
X125160133Y-84361904D02*
X125312514Y-84361904D01*
X125312514Y-84361904D02*
X125388704Y-84323808D01*
X125388704Y-84323808D02*
X125426800Y-84285713D01*
X125426800Y-84285713D02*
X125464895Y-84209523D01*
X125464895Y-84209523D02*
X125464895Y-84057142D01*
X125464895Y-84057142D02*
X125426800Y-83980951D01*
X125426800Y-83980951D02*
X125388704Y-83942856D01*
X125388704Y-83942856D02*
X125312514Y-83904761D01*
X125312514Y-83904761D02*
X125160133Y-83904761D01*
X125160133Y-83904761D02*
X125083942Y-83942856D01*
X125083942Y-83942856D02*
X125045847Y-83980951D01*
X125045847Y-83980951D02*
X125007752Y-84057142D01*
X125464895Y-82952379D02*
X124664895Y-82952379D01*
X125464895Y-82495236D02*
X125007752Y-82838094D01*
X124664895Y-82495236D02*
X125122038Y-82952379D01*
X125464895Y-82152379D02*
X124664895Y-82152379D01*
X125045847Y-82152379D02*
X125045847Y-81695236D01*
X125464895Y-81695236D02*
X124664895Y-81695236D01*
X124931561Y-81390475D02*
X124931561Y-80971427D01*
X124931561Y-80971427D02*
X125464895Y-81390475D01*
X125464895Y-81390475D02*
X125464895Y-80971427D01*
X154166667Y-86088704D02*
X154128571Y-86126800D01*
X154128571Y-86126800D02*
X154014286Y-86164895D01*
X154014286Y-86164895D02*
X153938095Y-86164895D01*
X153938095Y-86164895D02*
X153823809Y-86126800D01*
X153823809Y-86126800D02*
X153747619Y-86050609D01*
X153747619Y-86050609D02*
X153709524Y-85974419D01*
X153709524Y-85974419D02*
X153671428Y-85822038D01*
X153671428Y-85822038D02*
X153671428Y-85707752D01*
X153671428Y-85707752D02*
X153709524Y-85555371D01*
X153709524Y-85555371D02*
X153747619Y-85479180D01*
X153747619Y-85479180D02*
X153823809Y-85402990D01*
X153823809Y-85402990D02*
X153938095Y-85364895D01*
X153938095Y-85364895D02*
X154014286Y-85364895D01*
X154014286Y-85364895D02*
X154128571Y-85402990D01*
X154128571Y-85402990D02*
X154166667Y-85441085D01*
X154471428Y-85441085D02*
X154509524Y-85402990D01*
X154509524Y-85402990D02*
X154585714Y-85364895D01*
X154585714Y-85364895D02*
X154776190Y-85364895D01*
X154776190Y-85364895D02*
X154852381Y-85402990D01*
X154852381Y-85402990D02*
X154890476Y-85441085D01*
X154890476Y-85441085D02*
X154928571Y-85517276D01*
X154928571Y-85517276D02*
X154928571Y-85593466D01*
X154928571Y-85593466D02*
X154890476Y-85707752D01*
X154890476Y-85707752D02*
X154433333Y-86164895D01*
X154433333Y-86164895D02*
X154928571Y-86164895D01*
X162833333Y-91464895D02*
X162833333Y-92036323D01*
X162833333Y-92036323D02*
X162795238Y-92150609D01*
X162795238Y-92150609D02*
X162719047Y-92226800D01*
X162719047Y-92226800D02*
X162604762Y-92264895D01*
X162604762Y-92264895D02*
X162528571Y-92264895D01*
X163633333Y-92264895D02*
X163176190Y-92264895D01*
X163404762Y-92264895D02*
X163404762Y-91464895D01*
X163404762Y-91464895D02*
X163328571Y-91579180D01*
X163328571Y-91579180D02*
X163252381Y-91655371D01*
X163252381Y-91655371D02*
X163176190Y-91693466D01*
X154266667Y-81164895D02*
X154000000Y-80783942D01*
X153809524Y-81164895D02*
X153809524Y-80364895D01*
X153809524Y-80364895D02*
X154114286Y-80364895D01*
X154114286Y-80364895D02*
X154190476Y-80402990D01*
X154190476Y-80402990D02*
X154228571Y-80441085D01*
X154228571Y-80441085D02*
X154266667Y-80517276D01*
X154266667Y-80517276D02*
X154266667Y-80631561D01*
X154266667Y-80631561D02*
X154228571Y-80707752D01*
X154228571Y-80707752D02*
X154190476Y-80745847D01*
X154190476Y-80745847D02*
X154114286Y-80783942D01*
X154114286Y-80783942D02*
X153809524Y-80783942D01*
X154533333Y-80364895D02*
X155028571Y-80364895D01*
X155028571Y-80364895D02*
X154761905Y-80669657D01*
X154761905Y-80669657D02*
X154876190Y-80669657D01*
X154876190Y-80669657D02*
X154952381Y-80707752D01*
X154952381Y-80707752D02*
X154990476Y-80745847D01*
X154990476Y-80745847D02*
X155028571Y-80822038D01*
X155028571Y-80822038D02*
X155028571Y-81012514D01*
X155028571Y-81012514D02*
X154990476Y-81088704D01*
X154990476Y-81088704D02*
X154952381Y-81126800D01*
X154952381Y-81126800D02*
X154876190Y-81164895D01*
X154876190Y-81164895D02*
X154647619Y-81164895D01*
X154647619Y-81164895D02*
X154571428Y-81126800D01*
X154571428Y-81126800D02*
X154533333Y-81088704D01*
X123690476Y-68364895D02*
X123690476Y-69012514D01*
X123690476Y-69012514D02*
X123728571Y-69088704D01*
X123728571Y-69088704D02*
X123766666Y-69126800D01*
X123766666Y-69126800D02*
X123842857Y-69164895D01*
X123842857Y-69164895D02*
X123995238Y-69164895D01*
X123995238Y-69164895D02*
X124071428Y-69126800D01*
X124071428Y-69126800D02*
X124109523Y-69088704D01*
X124109523Y-69088704D02*
X124147619Y-69012514D01*
X124147619Y-69012514D02*
X124147619Y-68364895D01*
X124490475Y-68441085D02*
X124528571Y-68402990D01*
X124528571Y-68402990D02*
X124604761Y-68364895D01*
X124604761Y-68364895D02*
X124795237Y-68364895D01*
X124795237Y-68364895D02*
X124871428Y-68402990D01*
X124871428Y-68402990D02*
X124909523Y-68441085D01*
X124909523Y-68441085D02*
X124947618Y-68517276D01*
X124947618Y-68517276D02*
X124947618Y-68593466D01*
X124947618Y-68593466D02*
X124909523Y-68707752D01*
X124909523Y-68707752D02*
X124452380Y-69164895D01*
X124452380Y-69164895D02*
X124947618Y-69164895D01*
X135441085Y-77257143D02*
X135402990Y-77219047D01*
X135402990Y-77219047D02*
X135364895Y-77142857D01*
X135364895Y-77142857D02*
X135364895Y-76952381D01*
X135364895Y-76952381D02*
X135402990Y-76876190D01*
X135402990Y-76876190D02*
X135441085Y-76838095D01*
X135441085Y-76838095D02*
X135517276Y-76800000D01*
X135517276Y-76800000D02*
X135593466Y-76800000D01*
X135593466Y-76800000D02*
X135707752Y-76838095D01*
X135707752Y-76838095D02*
X136164895Y-77295238D01*
X136164895Y-77295238D02*
X136164895Y-76800000D01*
X135631561Y-76114285D02*
X136164895Y-76114285D01*
X135326800Y-76304761D02*
X135898228Y-76495238D01*
X135898228Y-76495238D02*
X135898228Y-75999999D01*
X136164895Y-75314285D02*
X136164895Y-75695237D01*
X136164895Y-75695237D02*
X135364895Y-75695237D01*
X136088704Y-74590475D02*
X136126800Y-74628571D01*
X136126800Y-74628571D02*
X136164895Y-74742856D01*
X136164895Y-74742856D02*
X136164895Y-74819047D01*
X136164895Y-74819047D02*
X136126800Y-74933333D01*
X136126800Y-74933333D02*
X136050609Y-75009523D01*
X136050609Y-75009523D02*
X135974419Y-75047618D01*
X135974419Y-75047618D02*
X135822038Y-75085714D01*
X135822038Y-75085714D02*
X135707752Y-75085714D01*
X135707752Y-75085714D02*
X135555371Y-75047618D01*
X135555371Y-75047618D02*
X135479180Y-75009523D01*
X135479180Y-75009523D02*
X135402990Y-74933333D01*
X135402990Y-74933333D02*
X135364895Y-74819047D01*
X135364895Y-74819047D02*
X135364895Y-74742856D01*
X135364895Y-74742856D02*
X135402990Y-74628571D01*
X135402990Y-74628571D02*
X135441085Y-74590475D01*
X136164895Y-73828571D02*
X136164895Y-74285714D01*
X136164895Y-74057142D02*
X135364895Y-74057142D01*
X135364895Y-74057142D02*
X135479180Y-74133333D01*
X135479180Y-74133333D02*
X135555371Y-74209523D01*
X135555371Y-74209523D02*
X135593466Y-74285714D01*
X135364895Y-73333332D02*
X135364895Y-73257142D01*
X135364895Y-73257142D02*
X135402990Y-73180951D01*
X135402990Y-73180951D02*
X135441085Y-73142856D01*
X135441085Y-73142856D02*
X135517276Y-73104761D01*
X135517276Y-73104761D02*
X135669657Y-73066666D01*
X135669657Y-73066666D02*
X135860133Y-73066666D01*
X135860133Y-73066666D02*
X136012514Y-73104761D01*
X136012514Y-73104761D02*
X136088704Y-73142856D01*
X136088704Y-73142856D02*
X136126800Y-73180951D01*
X136126800Y-73180951D02*
X136164895Y-73257142D01*
X136164895Y-73257142D02*
X136164895Y-73333332D01*
X136164895Y-73333332D02*
X136126800Y-73409523D01*
X136126800Y-73409523D02*
X136088704Y-73447618D01*
X136088704Y-73447618D02*
X136012514Y-73485713D01*
X136012514Y-73485713D02*
X135860133Y-73523809D01*
X135860133Y-73523809D02*
X135669657Y-73523809D01*
X135669657Y-73523809D02*
X135517276Y-73485713D01*
X135517276Y-73485713D02*
X135441085Y-73447618D01*
X135441085Y-73447618D02*
X135402990Y-73409523D01*
X135402990Y-73409523D02*
X135364895Y-73333332D01*
X135441085Y-72761904D02*
X135402990Y-72723808D01*
X135402990Y-72723808D02*
X135364895Y-72647618D01*
X135364895Y-72647618D02*
X135364895Y-72457142D01*
X135364895Y-72457142D02*
X135402990Y-72380951D01*
X135402990Y-72380951D02*
X135441085Y-72342856D01*
X135441085Y-72342856D02*
X135517276Y-72304761D01*
X135517276Y-72304761D02*
X135593466Y-72304761D01*
X135593466Y-72304761D02*
X135707752Y-72342856D01*
X135707752Y-72342856D02*
X136164895Y-72799999D01*
X136164895Y-72799999D02*
X136164895Y-72304761D01*
X135364895Y-71580951D02*
X135364895Y-71961903D01*
X135364895Y-71961903D02*
X135745847Y-71999999D01*
X135745847Y-71999999D02*
X135707752Y-71961903D01*
X135707752Y-71961903D02*
X135669657Y-71885713D01*
X135669657Y-71885713D02*
X135669657Y-71695237D01*
X135669657Y-71695237D02*
X135707752Y-71619046D01*
X135707752Y-71619046D02*
X135745847Y-71580951D01*
X135745847Y-71580951D02*
X135822038Y-71542856D01*
X135822038Y-71542856D02*
X136012514Y-71542856D01*
X136012514Y-71542856D02*
X136088704Y-71580951D01*
X136088704Y-71580951D02*
X136126800Y-71619046D01*
X136126800Y-71619046D02*
X136164895Y-71695237D01*
X136164895Y-71695237D02*
X136164895Y-71885713D01*
X136164895Y-71885713D02*
X136126800Y-71961903D01*
X136126800Y-71961903D02*
X136088704Y-71999999D01*
X121926428Y-71275847D02*
X122040714Y-71313942D01*
X122040714Y-71313942D02*
X122078809Y-71352038D01*
X122078809Y-71352038D02*
X122116905Y-71428228D01*
X122116905Y-71428228D02*
X122116905Y-71542514D01*
X122116905Y-71542514D02*
X122078809Y-71618704D01*
X122078809Y-71618704D02*
X122040714Y-71656800D01*
X122040714Y-71656800D02*
X121964524Y-71694895D01*
X121964524Y-71694895D02*
X121659762Y-71694895D01*
X121659762Y-71694895D02*
X121659762Y-70894895D01*
X121659762Y-70894895D02*
X121926428Y-70894895D01*
X121926428Y-70894895D02*
X122002619Y-70932990D01*
X122002619Y-70932990D02*
X122040714Y-70971085D01*
X122040714Y-70971085D02*
X122078809Y-71047276D01*
X122078809Y-71047276D02*
X122078809Y-71123466D01*
X122078809Y-71123466D02*
X122040714Y-71199657D01*
X122040714Y-71199657D02*
X122002619Y-71237752D01*
X122002619Y-71237752D02*
X121926428Y-71275847D01*
X121926428Y-71275847D02*
X121659762Y-71275847D01*
X122345476Y-70894895D02*
X122802619Y-70894895D01*
X122574047Y-71694895D02*
X122574047Y-70894895D01*
X123488333Y-71694895D02*
X123031190Y-71694895D01*
X123259762Y-71694895D02*
X123259762Y-70894895D01*
X123259762Y-70894895D02*
X123183571Y-71009180D01*
X123183571Y-71009180D02*
X123107381Y-71085371D01*
X123107381Y-71085371D02*
X123031190Y-71123466D01*
X120842856Y-78545847D02*
X120957142Y-78583942D01*
X120957142Y-78583942D02*
X120995237Y-78622038D01*
X120995237Y-78622038D02*
X121033333Y-78698228D01*
X121033333Y-78698228D02*
X121033333Y-78812514D01*
X121033333Y-78812514D02*
X120995237Y-78888704D01*
X120995237Y-78888704D02*
X120957142Y-78926800D01*
X120957142Y-78926800D02*
X120880952Y-78964895D01*
X120880952Y-78964895D02*
X120576190Y-78964895D01*
X120576190Y-78964895D02*
X120576190Y-78164895D01*
X120576190Y-78164895D02*
X120842856Y-78164895D01*
X120842856Y-78164895D02*
X120919047Y-78202990D01*
X120919047Y-78202990D02*
X120957142Y-78241085D01*
X120957142Y-78241085D02*
X120995237Y-78317276D01*
X120995237Y-78317276D02*
X120995237Y-78393466D01*
X120995237Y-78393466D02*
X120957142Y-78469657D01*
X120957142Y-78469657D02*
X120919047Y-78507752D01*
X120919047Y-78507752D02*
X120842856Y-78545847D01*
X120842856Y-78545847D02*
X120576190Y-78545847D01*
X121719047Y-78964895D02*
X121719047Y-78545847D01*
X121719047Y-78545847D02*
X121680952Y-78469657D01*
X121680952Y-78469657D02*
X121604761Y-78431561D01*
X121604761Y-78431561D02*
X121452380Y-78431561D01*
X121452380Y-78431561D02*
X121376190Y-78469657D01*
X121719047Y-78926800D02*
X121642856Y-78964895D01*
X121642856Y-78964895D02*
X121452380Y-78964895D01*
X121452380Y-78964895D02*
X121376190Y-78926800D01*
X121376190Y-78926800D02*
X121338094Y-78850609D01*
X121338094Y-78850609D02*
X121338094Y-78774419D01*
X121338094Y-78774419D02*
X121376190Y-78698228D01*
X121376190Y-78698228D02*
X121452380Y-78660133D01*
X121452380Y-78660133D02*
X121642856Y-78660133D01*
X121642856Y-78660133D02*
X121719047Y-78622038D01*
X121985714Y-78431561D02*
X122290476Y-78431561D01*
X122100000Y-78164895D02*
X122100000Y-78850609D01*
X122100000Y-78850609D02*
X122138095Y-78926800D01*
X122138095Y-78926800D02*
X122214285Y-78964895D01*
X122214285Y-78964895D02*
X122290476Y-78964895D01*
X122442857Y-78431561D02*
X122747619Y-78431561D01*
X122557143Y-78164895D02*
X122557143Y-78850609D01*
X122557143Y-78850609D02*
X122595238Y-78926800D01*
X122595238Y-78926800D02*
X122671428Y-78964895D01*
X122671428Y-78964895D02*
X122747619Y-78964895D01*
X123319048Y-78926800D02*
X123242857Y-78964895D01*
X123242857Y-78964895D02*
X123090476Y-78964895D01*
X123090476Y-78964895D02*
X123014286Y-78926800D01*
X123014286Y-78926800D02*
X122976190Y-78850609D01*
X122976190Y-78850609D02*
X122976190Y-78545847D01*
X122976190Y-78545847D02*
X123014286Y-78469657D01*
X123014286Y-78469657D02*
X123090476Y-78431561D01*
X123090476Y-78431561D02*
X123242857Y-78431561D01*
X123242857Y-78431561D02*
X123319048Y-78469657D01*
X123319048Y-78469657D02*
X123357143Y-78545847D01*
X123357143Y-78545847D02*
X123357143Y-78622038D01*
X123357143Y-78622038D02*
X122976190Y-78698228D01*
X123700000Y-78964895D02*
X123700000Y-78431561D01*
X123700000Y-78583942D02*
X123738095Y-78507752D01*
X123738095Y-78507752D02*
X123776190Y-78469657D01*
X123776190Y-78469657D02*
X123852381Y-78431561D01*
X123852381Y-78431561D02*
X123928571Y-78431561D01*
X124119047Y-78431561D02*
X124309523Y-78964895D01*
X124500000Y-78431561D02*
X124309523Y-78964895D01*
X124309523Y-78964895D02*
X124233333Y-79155371D01*
X124233333Y-79155371D02*
X124195238Y-79193466D01*
X124195238Y-79193466D02*
X124119047Y-79231561D01*
X154364895Y-78233332D02*
X153983942Y-78499999D01*
X154364895Y-78690475D02*
X153564895Y-78690475D01*
X153564895Y-78690475D02*
X153564895Y-78385713D01*
X153564895Y-78385713D02*
X153602990Y-78309523D01*
X153602990Y-78309523D02*
X153641085Y-78271428D01*
X153641085Y-78271428D02*
X153717276Y-78233332D01*
X153717276Y-78233332D02*
X153831561Y-78233332D01*
X153831561Y-78233332D02*
X153907752Y-78271428D01*
X153907752Y-78271428D02*
X153945847Y-78309523D01*
X153945847Y-78309523D02*
X153983942Y-78385713D01*
X153983942Y-78385713D02*
X153983942Y-78690475D01*
X153831561Y-77547618D02*
X154364895Y-77547618D01*
X153526800Y-77738094D02*
X154098228Y-77928571D01*
X154098228Y-77928571D02*
X154098228Y-77433332D01*
X141471667Y-68458704D02*
X141433571Y-68496800D01*
X141433571Y-68496800D02*
X141319286Y-68534895D01*
X141319286Y-68534895D02*
X141243095Y-68534895D01*
X141243095Y-68534895D02*
X141128809Y-68496800D01*
X141128809Y-68496800D02*
X141052619Y-68420609D01*
X141052619Y-68420609D02*
X141014524Y-68344419D01*
X141014524Y-68344419D02*
X140976428Y-68192038D01*
X140976428Y-68192038D02*
X140976428Y-68077752D01*
X140976428Y-68077752D02*
X141014524Y-67925371D01*
X141014524Y-67925371D02*
X141052619Y-67849180D01*
X141052619Y-67849180D02*
X141128809Y-67772990D01*
X141128809Y-67772990D02*
X141243095Y-67734895D01*
X141243095Y-67734895D02*
X141319286Y-67734895D01*
X141319286Y-67734895D02*
X141433571Y-67772990D01*
X141433571Y-67772990D02*
X141471667Y-67811085D01*
X141738333Y-67734895D02*
X142233571Y-67734895D01*
X142233571Y-67734895D02*
X141966905Y-68039657D01*
X141966905Y-68039657D02*
X142081190Y-68039657D01*
X142081190Y-68039657D02*
X142157381Y-68077752D01*
X142157381Y-68077752D02*
X142195476Y-68115847D01*
X142195476Y-68115847D02*
X142233571Y-68192038D01*
X142233571Y-68192038D02*
X142233571Y-68382514D01*
X142233571Y-68382514D02*
X142195476Y-68458704D01*
X142195476Y-68458704D02*
X142157381Y-68496800D01*
X142157381Y-68496800D02*
X142081190Y-68534895D01*
X142081190Y-68534895D02*
X141852619Y-68534895D01*
X141852619Y-68534895D02*
X141776428Y-68496800D01*
X141776428Y-68496800D02*
X141738333Y-68458704D01*
X155966667Y-74464895D02*
X155700000Y-74083942D01*
X155509524Y-74464895D02*
X155509524Y-73664895D01*
X155509524Y-73664895D02*
X155814286Y-73664895D01*
X155814286Y-73664895D02*
X155890476Y-73702990D01*
X155890476Y-73702990D02*
X155928571Y-73741085D01*
X155928571Y-73741085D02*
X155966667Y-73817276D01*
X155966667Y-73817276D02*
X155966667Y-73931561D01*
X155966667Y-73931561D02*
X155928571Y-74007752D01*
X155928571Y-74007752D02*
X155890476Y-74045847D01*
X155890476Y-74045847D02*
X155814286Y-74083942D01*
X155814286Y-74083942D02*
X155509524Y-74083942D01*
X156690476Y-73664895D02*
X156309524Y-73664895D01*
X156309524Y-73664895D02*
X156271428Y-74045847D01*
X156271428Y-74045847D02*
X156309524Y-74007752D01*
X156309524Y-74007752D02*
X156385714Y-73969657D01*
X156385714Y-73969657D02*
X156576190Y-73969657D01*
X156576190Y-73969657D02*
X156652381Y-74007752D01*
X156652381Y-74007752D02*
X156690476Y-74045847D01*
X156690476Y-74045847D02*
X156728571Y-74122038D01*
X156728571Y-74122038D02*
X156728571Y-74312514D01*
X156728571Y-74312514D02*
X156690476Y-74388704D01*
X156690476Y-74388704D02*
X156652381Y-74426800D01*
X156652381Y-74426800D02*
X156576190Y-74464895D01*
X156576190Y-74464895D02*
X156385714Y-74464895D01*
X156385714Y-74464895D02*
X156309524Y-74426800D01*
X156309524Y-74426800D02*
X156271428Y-74388704D01*
X147990476Y-71664895D02*
X147990476Y-72312514D01*
X147990476Y-72312514D02*
X148028571Y-72388704D01*
X148028571Y-72388704D02*
X148066666Y-72426800D01*
X148066666Y-72426800D02*
X148142857Y-72464895D01*
X148142857Y-72464895D02*
X148295238Y-72464895D01*
X148295238Y-72464895D02*
X148371428Y-72426800D01*
X148371428Y-72426800D02*
X148409523Y-72388704D01*
X148409523Y-72388704D02*
X148447619Y-72312514D01*
X148447619Y-72312514D02*
X148447619Y-71664895D01*
X149171428Y-71931561D02*
X149171428Y-72464895D01*
X148980952Y-71626800D02*
X148790475Y-72198228D01*
X148790475Y-72198228D02*
X149285714Y-72198228D01*
X137442856Y-72236323D02*
X137823809Y-72236323D01*
X137366666Y-72464895D02*
X137633333Y-71664895D01*
X137633333Y-71664895D02*
X137899999Y-72464895D01*
X138052380Y-71664895D02*
X138509523Y-71664895D01*
X138280951Y-72464895D02*
X138280951Y-71664895D01*
X138776190Y-72464895D02*
X138776190Y-71664895D01*
X138776190Y-71664895D02*
X139042856Y-72236323D01*
X139042856Y-72236323D02*
X139309523Y-71664895D01*
X139309523Y-71664895D02*
X139309523Y-72464895D01*
X139690476Y-72045847D02*
X139957142Y-72045847D01*
X140071428Y-72464895D02*
X139690476Y-72464895D01*
X139690476Y-72464895D02*
X139690476Y-71664895D01*
X139690476Y-71664895D02*
X140071428Y-71664895D01*
X140833333Y-71702990D02*
X140757143Y-71664895D01*
X140757143Y-71664895D02*
X140642857Y-71664895D01*
X140642857Y-71664895D02*
X140528571Y-71702990D01*
X140528571Y-71702990D02*
X140452381Y-71779180D01*
X140452381Y-71779180D02*
X140414286Y-71855371D01*
X140414286Y-71855371D02*
X140376190Y-72007752D01*
X140376190Y-72007752D02*
X140376190Y-72122038D01*
X140376190Y-72122038D02*
X140414286Y-72274419D01*
X140414286Y-72274419D02*
X140452381Y-72350609D01*
X140452381Y-72350609D02*
X140528571Y-72426800D01*
X140528571Y-72426800D02*
X140642857Y-72464895D01*
X140642857Y-72464895D02*
X140719048Y-72464895D01*
X140719048Y-72464895D02*
X140833333Y-72426800D01*
X140833333Y-72426800D02*
X140871429Y-72388704D01*
X140871429Y-72388704D02*
X140871429Y-72122038D01*
X140871429Y-72122038D02*
X140719048Y-72122038D01*
X141176190Y-72236323D02*
X141557143Y-72236323D01*
X141100000Y-72464895D02*
X141366667Y-71664895D01*
X141366667Y-71664895D02*
X141633333Y-72464895D01*
X141823809Y-71664895D02*
X142319047Y-71664895D01*
X142319047Y-71664895D02*
X142052381Y-71969657D01*
X142052381Y-71969657D02*
X142166666Y-71969657D01*
X142166666Y-71969657D02*
X142242857Y-72007752D01*
X142242857Y-72007752D02*
X142280952Y-72045847D01*
X142280952Y-72045847D02*
X142319047Y-72122038D01*
X142319047Y-72122038D02*
X142319047Y-72312514D01*
X142319047Y-72312514D02*
X142280952Y-72388704D01*
X142280952Y-72388704D02*
X142242857Y-72426800D01*
X142242857Y-72426800D02*
X142166666Y-72464895D01*
X142166666Y-72464895D02*
X141938095Y-72464895D01*
X141938095Y-72464895D02*
X141861904Y-72426800D01*
X141861904Y-72426800D02*
X141823809Y-72388704D01*
X142623809Y-71741085D02*
X142661905Y-71702990D01*
X142661905Y-71702990D02*
X142738095Y-71664895D01*
X142738095Y-71664895D02*
X142928571Y-71664895D01*
X142928571Y-71664895D02*
X143004762Y-71702990D01*
X143004762Y-71702990D02*
X143042857Y-71741085D01*
X143042857Y-71741085D02*
X143080952Y-71817276D01*
X143080952Y-71817276D02*
X143080952Y-71893466D01*
X143080952Y-71893466D02*
X143042857Y-72007752D01*
X143042857Y-72007752D02*
X142585714Y-72464895D01*
X142585714Y-72464895D02*
X143080952Y-72464895D01*
X143538095Y-72007752D02*
X143461905Y-71969657D01*
X143461905Y-71969657D02*
X143423810Y-71931561D01*
X143423810Y-71931561D02*
X143385714Y-71855371D01*
X143385714Y-71855371D02*
X143385714Y-71817276D01*
X143385714Y-71817276D02*
X143423810Y-71741085D01*
X143423810Y-71741085D02*
X143461905Y-71702990D01*
X143461905Y-71702990D02*
X143538095Y-71664895D01*
X143538095Y-71664895D02*
X143690476Y-71664895D01*
X143690476Y-71664895D02*
X143766667Y-71702990D01*
X143766667Y-71702990D02*
X143804762Y-71741085D01*
X143804762Y-71741085D02*
X143842857Y-71817276D01*
X143842857Y-71817276D02*
X143842857Y-71855371D01*
X143842857Y-71855371D02*
X143804762Y-71931561D01*
X143804762Y-71931561D02*
X143766667Y-71969657D01*
X143766667Y-71969657D02*
X143690476Y-72007752D01*
X143690476Y-72007752D02*
X143538095Y-72007752D01*
X143538095Y-72007752D02*
X143461905Y-72045847D01*
X143461905Y-72045847D02*
X143423810Y-72083942D01*
X143423810Y-72083942D02*
X143385714Y-72160133D01*
X143385714Y-72160133D02*
X143385714Y-72312514D01*
X143385714Y-72312514D02*
X143423810Y-72388704D01*
X143423810Y-72388704D02*
X143461905Y-72426800D01*
X143461905Y-72426800D02*
X143538095Y-72464895D01*
X143538095Y-72464895D02*
X143690476Y-72464895D01*
X143690476Y-72464895D02*
X143766667Y-72426800D01*
X143766667Y-72426800D02*
X143804762Y-72388704D01*
X143804762Y-72388704D02*
X143842857Y-72312514D01*
X143842857Y-72312514D02*
X143842857Y-72160133D01*
X143842857Y-72160133D02*
X143804762Y-72083942D01*
X143804762Y-72083942D02*
X143766667Y-72045847D01*
X143766667Y-72045847D02*
X143690476Y-72007752D01*
X144185715Y-72464895D02*
X144185715Y-71664895D01*
X144185715Y-71664895D02*
X144490477Y-71664895D01*
X144490477Y-71664895D02*
X144566667Y-71702990D01*
X144566667Y-71702990D02*
X144604762Y-71741085D01*
X144604762Y-71741085D02*
X144642858Y-71817276D01*
X144642858Y-71817276D02*
X144642858Y-71931561D01*
X144642858Y-71931561D02*
X144604762Y-72007752D01*
X144604762Y-72007752D02*
X144566667Y-72045847D01*
X144566667Y-72045847D02*
X144490477Y-72083942D01*
X144490477Y-72083942D02*
X144185715Y-72083942D01*
X144985715Y-72160133D02*
X145595239Y-72160133D01*
X145938095Y-72236323D02*
X146319048Y-72236323D01*
X145861905Y-72464895D02*
X146128572Y-71664895D01*
X146128572Y-71664895D02*
X146395238Y-72464895D01*
X146661905Y-71664895D02*
X146661905Y-72312514D01*
X146661905Y-72312514D02*
X146700000Y-72388704D01*
X146700000Y-72388704D02*
X146738095Y-72426800D01*
X146738095Y-72426800D02*
X146814286Y-72464895D01*
X146814286Y-72464895D02*
X146966667Y-72464895D01*
X146966667Y-72464895D02*
X147042857Y-72426800D01*
X147042857Y-72426800D02*
X147080952Y-72388704D01*
X147080952Y-72388704D02*
X147119048Y-72312514D01*
X147119048Y-72312514D02*
X147119048Y-71664895D01*
X154349524Y-68564895D02*
X154349524Y-67764895D01*
X154349524Y-67764895D02*
X154540000Y-67764895D01*
X154540000Y-67764895D02*
X154654286Y-67802990D01*
X154654286Y-67802990D02*
X154730476Y-67879180D01*
X154730476Y-67879180D02*
X154768571Y-67955371D01*
X154768571Y-67955371D02*
X154806667Y-68107752D01*
X154806667Y-68107752D02*
X154806667Y-68222038D01*
X154806667Y-68222038D02*
X154768571Y-68374419D01*
X154768571Y-68374419D02*
X154730476Y-68450609D01*
X154730476Y-68450609D02*
X154654286Y-68526800D01*
X154654286Y-68526800D02*
X154540000Y-68564895D01*
X154540000Y-68564895D02*
X154349524Y-68564895D01*
X155568571Y-68564895D02*
X155111428Y-68564895D01*
X155340000Y-68564895D02*
X155340000Y-67764895D01*
X155340000Y-67764895D02*
X155263809Y-67879180D01*
X155263809Y-67879180D02*
X155187619Y-67955371D01*
X155187619Y-67955371D02*
X155111428Y-67993466D01*
X160064895Y-93266666D02*
X160636323Y-93266666D01*
X160636323Y-93266666D02*
X160750609Y-93304761D01*
X160750609Y-93304761D02*
X160826800Y-93380952D01*
X160826800Y-93380952D02*
X160864895Y-93495237D01*
X160864895Y-93495237D02*
X160864895Y-93571428D01*
X160064895Y-92961904D02*
X160064895Y-92466666D01*
X160064895Y-92466666D02*
X160369657Y-92733332D01*
X160369657Y-92733332D02*
X160369657Y-92619047D01*
X160369657Y-92619047D02*
X160407752Y-92542856D01*
X160407752Y-92542856D02*
X160445847Y-92504761D01*
X160445847Y-92504761D02*
X160522038Y-92466666D01*
X160522038Y-92466666D02*
X160712514Y-92466666D01*
X160712514Y-92466666D02*
X160788704Y-92504761D01*
X160788704Y-92504761D02*
X160826800Y-92542856D01*
X160826800Y-92542856D02*
X160864895Y-92619047D01*
X160864895Y-92619047D02*
X160864895Y-92847618D01*
X160864895Y-92847618D02*
X160826800Y-92923809D01*
X160826800Y-92923809D02*
X160788704Y-92961904D01*
X137066667Y-68588704D02*
X137028571Y-68626800D01*
X137028571Y-68626800D02*
X136914286Y-68664895D01*
X136914286Y-68664895D02*
X136838095Y-68664895D01*
X136838095Y-68664895D02*
X136723809Y-68626800D01*
X136723809Y-68626800D02*
X136647619Y-68550609D01*
X136647619Y-68550609D02*
X136609524Y-68474419D01*
X136609524Y-68474419D02*
X136571428Y-68322038D01*
X136571428Y-68322038D02*
X136571428Y-68207752D01*
X136571428Y-68207752D02*
X136609524Y-68055371D01*
X136609524Y-68055371D02*
X136647619Y-67979180D01*
X136647619Y-67979180D02*
X136723809Y-67902990D01*
X136723809Y-67902990D02*
X136838095Y-67864895D01*
X136838095Y-67864895D02*
X136914286Y-67864895D01*
X136914286Y-67864895D02*
X137028571Y-67902990D01*
X137028571Y-67902990D02*
X137066667Y-67941085D01*
X137828571Y-68664895D02*
X137371428Y-68664895D01*
X137600000Y-68664895D02*
X137600000Y-67864895D01*
X137600000Y-67864895D02*
X137523809Y-67979180D01*
X137523809Y-67979180D02*
X137447619Y-68055371D01*
X137447619Y-68055371D02*
X137371428Y-68093466D01*
D12*
%TO.C,U1*%
X128175000Y-80665000D02*
X132175000Y-80665000D01*
X128175000Y-85705000D02*
X132175000Y-85705000D01*
D13*
X125830000Y-80690000D02*
G75*
G02*
X125630000Y-80690000I-100000J0D01*
G01*
X125630000Y-80690000D02*
G75*
G02*
X125830000Y-80690000I100000J0D01*
G01*
D14*
%TO.C,J4*%
X159320000Y-70440000D02*
X160650000Y-70440000D01*
X159320000Y-71770000D02*
X159320000Y-70440000D01*
X159320000Y-73040000D02*
X159320000Y-78180000D01*
X159320000Y-73040000D02*
X161920000Y-73040000D01*
X159320000Y-78180000D02*
X164520000Y-78180000D01*
X161920000Y-70440000D02*
X164520000Y-70440000D01*
X161920000Y-73040000D02*
X161920000Y-70440000D01*
X164520000Y-70440000D02*
X164520000Y-78180000D01*
%TO.C,J2*%
X123775000Y-93405000D02*
X123775000Y-92075000D01*
X125105000Y-93405000D02*
X123775000Y-93405000D01*
X126375000Y-90745000D02*
X146755000Y-90745000D01*
X126375000Y-93405000D02*
X126375000Y-90745000D01*
X126375000Y-93405000D02*
X146755000Y-93405000D01*
X146755000Y-93405000D02*
X146755000Y-90745000D01*
%TO.C,C5*%
X145788748Y-69115000D02*
X146311252Y-69115000D01*
X145788748Y-70585000D02*
X146311252Y-70585000D01*
%TO.C,R6*%
X156437064Y-77370000D02*
X155982936Y-77370000D01*
X156437064Y-78840000D02*
X155982936Y-78840000D01*
%TO.C,R7*%
X151992064Y-74830000D02*
X151537936Y-74830000D01*
X151992064Y-76300000D02*
X151537936Y-76300000D01*
%TO.C,R2*%
X133122936Y-87530000D02*
X133577064Y-87530000D01*
X133122936Y-89000000D02*
X133577064Y-89000000D01*
%TO.C,D2*%
X148810000Y-68890000D02*
X148810000Y-70810000D01*
X148810000Y-70810000D02*
X151495000Y-70810000D01*
X151495000Y-68890000D02*
X148810000Y-68890000D01*
%TO.C,U3*%
X127450000Y-74110000D02*
X127450000Y-74370000D01*
X127450000Y-74370000D02*
X125775000Y-74370000D01*
X127450000Y-79560000D02*
X127450000Y-79300000D01*
X130175000Y-74110000D02*
X127450000Y-74110000D01*
X130175000Y-74110000D02*
X132900000Y-74110000D01*
X130175000Y-79560000D02*
X127450000Y-79560000D01*
X130175000Y-79560000D02*
X132900000Y-79560000D01*
X132900000Y-74110000D02*
X132900000Y-74370000D01*
X132900000Y-79560000D02*
X132900000Y-79300000D01*
%TO.C,C4*%
X151523748Y-82450000D02*
X152046252Y-82450000D01*
X151523748Y-83920000D02*
X152046252Y-83920000D01*
%TO.C,R1*%
X127862064Y-87530000D02*
X127407936Y-87530000D01*
X127862064Y-89000000D02*
X127407936Y-89000000D01*
%TO.C,Y2*%
X138960000Y-84560000D02*
X138960000Y-88160000D01*
X138960000Y-88160000D02*
X146210000Y-88160000D01*
X146210000Y-84560000D02*
X138960000Y-84560000D01*
%TO.C,Y1*%
X120755000Y-81120000D02*
X120755000Y-88370000D01*
X120755000Y-88370000D02*
X124355000Y-88370000D01*
X124355000Y-88370000D02*
X124355000Y-81120000D01*
%TO.C,C2*%
X151503748Y-84990000D02*
X152026252Y-84990000D01*
X151503748Y-86460000D02*
X152026252Y-86460000D01*
%TO.C,J1*%
X161865000Y-79315000D02*
X163195000Y-79315000D01*
X161865000Y-80645000D02*
X161865000Y-79315000D01*
X161865000Y-81915000D02*
X161865000Y-89595000D01*
X161865000Y-81915000D02*
X164525000Y-81915000D01*
X161865000Y-89595000D02*
X164525000Y-89595000D01*
X164525000Y-81915000D02*
X164525000Y-89595000D01*
%TO.C,R3*%
X151992064Y-79910000D02*
X151537936Y-79910000D01*
X151992064Y-81380000D02*
X151537936Y-81380000D01*
%TO.C,U2*%
X127222500Y-67760000D02*
X127222500Y-68020000D01*
X127222500Y-68020000D02*
X125547500Y-68020000D01*
X127222500Y-73210000D02*
X127222500Y-72950000D01*
X129947500Y-67760000D02*
X127222500Y-67760000D01*
X129947500Y-67760000D02*
X132672500Y-67760000D01*
X129947500Y-73210000D02*
X127222500Y-73210000D01*
X129947500Y-73210000D02*
X132672500Y-73210000D01*
X132672500Y-67760000D02*
X132672500Y-68020000D01*
X132672500Y-73210000D02*
X132672500Y-72950000D01*
%TO.C,BT1*%
X121225000Y-72330000D02*
X122555000Y-72330000D01*
X121225000Y-73660000D02*
X121225000Y-72330000D01*
X121225000Y-74930000D02*
X121225000Y-77530000D01*
X121225000Y-74930000D02*
X123885000Y-74930000D01*
X121225000Y-77530000D02*
X123885000Y-77530000D01*
X123885000Y-74930000D02*
X123885000Y-77530000D01*
%TO.C,R4*%
X151992064Y-77370000D02*
X151537936Y-77370000D01*
X151992064Y-78840000D02*
X151537936Y-78840000D01*
%TO.C,C3*%
X141343748Y-69115000D02*
X141866252Y-69115000D01*
X141343748Y-70585000D02*
X141866252Y-70585000D01*
%TO.C,R5*%
X155982936Y-74830000D02*
X156437064Y-74830000D01*
X155982936Y-76300000D02*
X156437064Y-76300000D01*
D15*
%TO.C,U4*%
X140110000Y-74705000D02*
X146910000Y-74705000D01*
X140110000Y-81505000D02*
X140110000Y-74705000D01*
X146910000Y-74705000D02*
X146910000Y-81505000D01*
X146910000Y-81505000D02*
X140110000Y-81505000D01*
D16*
X139137000Y-74355000D02*
G75*
G02*
X138883000Y-74355000I-127000J0D01*
G01*
X138883000Y-74355000D02*
G75*
G02*
X139137000Y-74355000I127000J0D01*
G01*
D15*
X141126000Y-75361800D02*
G75*
G02*
X140407600Y-75361800I-359200J0D01*
G01*
X140407600Y-75361800D02*
G75*
G02*
X141126000Y-75361800I359200J0D01*
G01*
D14*
%TO.C,D1*%
X153255000Y-68890000D02*
X153255000Y-70810000D01*
X153255000Y-70810000D02*
X155940000Y-70810000D01*
X155940000Y-68890000D02*
X153255000Y-68890000D01*
%TO.C,J3*%
X149175000Y-93405000D02*
X149175000Y-92075000D01*
X150505000Y-93405000D02*
X149175000Y-93405000D01*
X151775000Y-90745000D02*
X159455000Y-90745000D01*
X151775000Y-93405000D02*
X151775000Y-90745000D01*
X151775000Y-93405000D02*
X159455000Y-93405000D01*
X159455000Y-93405000D02*
X159455000Y-90745000D01*
%TO.C,C1*%
X137421252Y-69115000D02*
X136898748Y-69115000D01*
X137421252Y-70585000D02*
X136898748Y-70585000D01*
%TD*%
M02*
