%TF.GenerationSoftware,KiCad,Pcbnew,9.0.0*%
%TF.CreationDate,2025-03-11T16:24:46+11:00*%
%TF.ProjectId,MCU Datalogger,4d435520-4461-4746-916c-6f676765722e,1*%
%TF.SameCoordinates,Original*%
%TF.FileFunction,Copper,L3,Inr*%
%TF.FilePolarity,Positive*%
%FSLAX46Y46*%
G04 Gerber Fmt 4.6, Leading zero omitted, Abs format (unit mm)*
G04 Created by KiCad (PCBNEW 9.0.0) date 2025-03-11 16:24:46*
%MOMM*%
%LPD*%
G01*
G04 APERTURE LIST*
%TA.AperFunction,ComponentPad*%
%ADD10R,1.700000X1.700000*%
%TD*%
%TA.AperFunction,ComponentPad*%
%ADD11O,1.700000X1.700000*%
%TD*%
%TA.AperFunction,ViaPad*%
%ADD12C,0.500000*%
%TD*%
%TA.AperFunction,ViaPad*%
%ADD13C,0.900000*%
%TD*%
%TA.AperFunction,Conductor*%
%ADD14C,0.150000*%
%TD*%
G04 APERTURE END LIST*
D10*
%TO.N,/MOSI*%
%TO.C,J4*%
X160650000Y-71770000D03*
D11*
%TO.N,/Vcc*%
X163190000Y-71770000D03*
%TO.N,/SCK*%
X160650000Y-74310000D03*
%TO.N,/MISO*%
X163190000Y-74310000D03*
%TO.N,/RESET*%
X160650000Y-76850000D03*
%TO.N,GND*%
X163190000Y-76850000D03*
%TD*%
D10*
%TO.N,/D2*%
%TO.C,J2*%
X125105000Y-92075000D03*
D11*
%TO.N,/D3*%
X127645000Y-92075000D03*
%TO.N,/D4*%
X130185000Y-92075000D03*
%TO.N,/D5*%
X132725000Y-92075000D03*
%TO.N,/D6*%
X135265000Y-92075000D03*
%TO.N,/D7*%
X137805000Y-92075000D03*
%TO.N,/D8*%
X140345000Y-92075000D03*
%TO.N,GND*%
X142885000Y-92075000D03*
%TO.N,/Vcc*%
X145425000Y-92075000D03*
%TD*%
D10*
%TO.N,GND*%
%TO.C,J1*%
X163195000Y-80645000D03*
D11*
%TO.N,/Vcc*%
X163195000Y-83185000D03*
%TO.N,/SDA*%
X163195000Y-85725000D03*
%TO.N,/SCL*%
X163195000Y-88265000D03*
%TD*%
D10*
%TO.N,/Vcc*%
%TO.C,BT1*%
X122555000Y-73660000D03*
D11*
%TO.N,GND*%
X122555000Y-76200000D03*
%TD*%
D10*
%TO.N,GND*%
%TO.C,J3*%
X150505000Y-92075000D03*
D11*
%TO.N,/Vcc*%
X153045000Y-92075000D03*
%TO.N,/RX*%
X155585000Y-92075000D03*
%TO.N,/TX*%
X158125000Y-92075000D03*
%TD*%
D12*
%TO.N,/SCL*%
X149500000Y-80050000D03*
X143975000Y-75200000D03*
%TO.N,/SCK*%
X148600000Y-81925000D03*
%TO.N,/SCL*%
X136000000Y-72100000D03*
D13*
%TO.N,GND*%
X150700000Y-73825000D03*
X148400000Y-71500000D03*
X140325000Y-71450000D03*
X131500000Y-70550000D03*
%TO.N,/Vcc*%
X131575000Y-69100000D03*
D12*
%TO.N,Net-(U3-A1)*%
X128775000Y-76200000D03*
X132025000Y-75375000D03*
D13*
%TO.N,/Vcc*%
X130475000Y-88275000D03*
X134600000Y-80975000D03*
X135600000Y-75425000D03*
X128550000Y-74775000D03*
%TO.N,GND*%
X124275000Y-71075000D03*
X124700000Y-78550000D03*
%TO.N,/Vcc*%
X128100000Y-71100000D03*
D12*
%TO.N,/MISO*%
X148107400Y-83743800D03*
%TO.N,/MOSI*%
X146710400Y-83947000D03*
%TO.N,/RX*%
X143179800Y-76504800D03*
%TO.N,/TX*%
X143357600Y-77952600D03*
%TO.N,/SDA*%
X132181600Y-79070200D03*
X144754600Y-75895200D03*
X135001000Y-72542400D03*
%TO.N,Net-(U4-PB7)*%
X136753600Y-74625200D03*
X139319000Y-82042000D03*
%TO.N,Net-(U4-PB6)*%
X140919200Y-80340200D03*
X146050000Y-88620600D03*
D13*
%TO.N,/Vcc*%
X145618200Y-79527400D03*
X151450000Y-71625000D03*
X154432000Y-82296000D03*
X128574800Y-77647800D03*
X144424400Y-71221600D03*
X137750000Y-71450000D03*
X141960600Y-78282800D03*
X158242000Y-79933800D03*
%TO.N,GND*%
X145999200Y-77749400D03*
X126187200Y-86055200D03*
X154355800Y-85725000D03*
X141046200Y-76555600D03*
X141300200Y-79425800D03*
X153924000Y-74091800D03*
%TD*%
D14*
%TO.N,Net-(U3-A1)*%
X132025000Y-75375000D02*
X132000000Y-75350000D01*
X129625000Y-75350000D02*
X128775000Y-76200000D01*
X132000000Y-75350000D02*
X129625000Y-75350000D01*
%TO.N,/SCL*%
X149500000Y-80050000D02*
X151100000Y-81650000D01*
X151100000Y-81650000D02*
X152150000Y-81650000D01*
X152150000Y-81650000D02*
X158765000Y-88265000D01*
X158765000Y-88265000D02*
X163195000Y-88265000D01*
X146125000Y-76675000D02*
X144575000Y-76675000D01*
X144575000Y-76675000D02*
X143975000Y-76075000D01*
X149500000Y-80050000D02*
X146125000Y-76675000D01*
X143975000Y-76075000D02*
X143975000Y-75200000D01*
X136000000Y-72100000D02*
X139100000Y-75200000D01*
X139100000Y-75200000D02*
X143975000Y-75200000D01*
%TD*%
%TA.AperFunction,Conductor*%
%TO.N,/Vcc*%
G36*
X162855077Y-67888485D02*
G01*
X162875719Y-67905119D01*
X165317681Y-70347081D01*
X165351166Y-70408404D01*
X165354000Y-70434762D01*
X165354000Y-90550438D01*
X165334315Y-90617477D01*
X165317681Y-90638119D01*
X162418519Y-93537281D01*
X162357196Y-93570766D01*
X162330838Y-93573600D01*
X158665996Y-93573600D01*
X158598957Y-93553915D01*
X158553202Y-93501111D01*
X158543258Y-93431953D01*
X158572283Y-93368397D01*
X158627677Y-93331669D01*
X158643412Y-93326557D01*
X158832816Y-93230051D01*
X158919138Y-93167335D01*
X159004786Y-93105109D01*
X159004788Y-93105106D01*
X159004792Y-93105104D01*
X159155104Y-92954792D01*
X159155106Y-92954788D01*
X159155109Y-92954786D01*
X159280048Y-92782820D01*
X159280047Y-92782820D01*
X159280051Y-92782816D01*
X159376557Y-92593412D01*
X159442246Y-92391243D01*
X159475500Y-92181287D01*
X159475500Y-92118800D01*
X160669400Y-92118800D01*
X162171400Y-92118800D01*
X162171400Y-90616800D01*
X160669400Y-90616800D01*
X160669400Y-92118800D01*
X159475500Y-92118800D01*
X159475500Y-91968713D01*
X159442246Y-91758757D01*
X159376557Y-91556588D01*
X159280051Y-91367184D01*
X159280049Y-91367181D01*
X159280048Y-91367179D01*
X159155109Y-91195213D01*
X159004786Y-91044890D01*
X158832820Y-90919951D01*
X158643414Y-90823444D01*
X158643413Y-90823443D01*
X158643412Y-90823443D01*
X158441243Y-90757754D01*
X158441241Y-90757753D01*
X158441240Y-90757753D01*
X158279957Y-90732208D01*
X158231287Y-90724500D01*
X158018713Y-90724500D01*
X157970042Y-90732208D01*
X157808760Y-90757753D01*
X157606585Y-90823444D01*
X157417179Y-90919951D01*
X157245213Y-91044890D01*
X157094890Y-91195213D01*
X156969949Y-91367182D01*
X156965484Y-91375946D01*
X156917509Y-91426742D01*
X156849688Y-91443536D01*
X156783553Y-91420998D01*
X156744516Y-91375946D01*
X156740050Y-91367182D01*
X156615109Y-91195213D01*
X156464786Y-91044890D01*
X156292820Y-90919951D01*
X156103414Y-90823444D01*
X156103413Y-90823443D01*
X156103412Y-90823443D01*
X155901243Y-90757754D01*
X155901241Y-90757753D01*
X155901240Y-90757753D01*
X155739957Y-90732208D01*
X155691287Y-90724500D01*
X155478713Y-90724500D01*
X155430042Y-90732208D01*
X155268760Y-90757753D01*
X155066585Y-90823444D01*
X154877179Y-90919951D01*
X154705213Y-91044890D01*
X154554890Y-91195213D01*
X154429949Y-91367182D01*
X154425202Y-91376499D01*
X154377227Y-91427293D01*
X154309405Y-91444087D01*
X154243271Y-91421548D01*
X154204234Y-91376495D01*
X154199622Y-91367444D01*
X154074727Y-91195540D01*
X154074723Y-91195535D01*
X153924464Y-91045276D01*
X153924459Y-91045272D01*
X153752557Y-90920379D01*
X153563215Y-90823903D01*
X153361124Y-90758241D01*
X153295000Y-90747768D01*
X153295000Y-91641988D01*
X153237993Y-91609075D01*
X153110826Y-91575000D01*
X152979174Y-91575000D01*
X152852007Y-91609075D01*
X152795000Y-91641988D01*
X152795000Y-90747768D01*
X152794999Y-90747768D01*
X152728875Y-90758241D01*
X152526784Y-90823903D01*
X152337442Y-90920379D01*
X152165541Y-91045271D01*
X152051865Y-91158947D01*
X151990542Y-91192431D01*
X151920850Y-91187447D01*
X151864917Y-91145575D01*
X151848002Y-91114598D01*
X151798797Y-90982671D01*
X151798793Y-90982664D01*
X151712547Y-90867455D01*
X151712544Y-90867452D01*
X151597335Y-90781206D01*
X151597328Y-90781202D01*
X151462482Y-90730908D01*
X151462483Y-90730908D01*
X151402883Y-90724501D01*
X151402881Y-90724500D01*
X151402873Y-90724500D01*
X151402864Y-90724500D01*
X149607129Y-90724500D01*
X149607123Y-90724501D01*
X149547516Y-90730908D01*
X149412671Y-90781202D01*
X149412664Y-90781206D01*
X149297455Y-90867452D01*
X149297452Y-90867455D01*
X149211206Y-90982664D01*
X149211202Y-90982671D01*
X149160908Y-91117517D01*
X149154501Y-91177116D01*
X149154500Y-91177135D01*
X149154500Y-92972870D01*
X149154501Y-92972876D01*
X149160908Y-93032483D01*
X149211202Y-93167328D01*
X149211206Y-93167335D01*
X149297452Y-93282544D01*
X149297455Y-93282547D01*
X149388006Y-93350334D01*
X149429877Y-93406267D01*
X149434861Y-93475959D01*
X149401375Y-93537282D01*
X149340052Y-93570766D01*
X149313695Y-93573600D01*
X145964382Y-93573600D01*
X145897343Y-93553915D01*
X145851588Y-93501111D01*
X145841644Y-93431953D01*
X145870669Y-93368397D01*
X145926064Y-93331669D01*
X145943217Y-93326095D01*
X146132557Y-93229620D01*
X146304459Y-93104727D01*
X146304464Y-93104723D01*
X146454723Y-92954464D01*
X146454727Y-92954459D01*
X146579620Y-92782557D01*
X146676095Y-92593217D01*
X146741757Y-92391129D01*
X146741757Y-92391126D01*
X146752231Y-92325000D01*
X145858012Y-92325000D01*
X145890925Y-92267993D01*
X145925000Y-92140826D01*
X145925000Y-92009174D01*
X145890925Y-91882007D01*
X145858012Y-91825000D01*
X146752231Y-91825000D01*
X146741757Y-91758873D01*
X146741757Y-91758870D01*
X146676095Y-91556782D01*
X146579620Y-91367442D01*
X146454727Y-91195540D01*
X146454723Y-91195535D01*
X146304464Y-91045276D01*
X146304459Y-91045272D01*
X146132557Y-90920379D01*
X145943215Y-90823903D01*
X145741124Y-90758241D01*
X145675000Y-90747768D01*
X145675000Y-91641988D01*
X145617993Y-91609075D01*
X145490826Y-91575000D01*
X145359174Y-91575000D01*
X145232007Y-91609075D01*
X145175000Y-91641988D01*
X145175000Y-90747768D01*
X145174999Y-90747768D01*
X145108875Y-90758241D01*
X144906784Y-90823903D01*
X144717442Y-90920379D01*
X144545540Y-91045272D01*
X144545535Y-91045276D01*
X144395276Y-91195535D01*
X144395272Y-91195540D01*
X144270378Y-91367443D01*
X144265762Y-91376502D01*
X144217784Y-91427295D01*
X144149963Y-91444087D01*
X144083829Y-91421546D01*
X144044794Y-91376493D01*
X144040051Y-91367184D01*
X144040049Y-91367181D01*
X144040048Y-91367179D01*
X143915109Y-91195213D01*
X143764786Y-91044890D01*
X143592820Y-90919951D01*
X143403414Y-90823444D01*
X143403413Y-90823443D01*
X143403412Y-90823443D01*
X143201243Y-90757754D01*
X143201241Y-90757753D01*
X143201240Y-90757753D01*
X143039957Y-90732208D01*
X142991287Y-90724500D01*
X142778713Y-90724500D01*
X142730042Y-90732208D01*
X142568760Y-90757753D01*
X142366585Y-90823444D01*
X142177179Y-90919951D01*
X142005213Y-91044890D01*
X141854890Y-91195213D01*
X141729949Y-91367182D01*
X141725484Y-91375946D01*
X141677509Y-91426742D01*
X141609688Y-91443536D01*
X141543553Y-91420998D01*
X141504516Y-91375946D01*
X141500050Y-91367182D01*
X141375109Y-91195213D01*
X141224786Y-91044890D01*
X141052820Y-90919951D01*
X140863414Y-90823444D01*
X140863413Y-90823443D01*
X140863412Y-90823443D01*
X140661243Y-90757754D01*
X140661241Y-90757753D01*
X140661240Y-90757753D01*
X140499957Y-90732208D01*
X140451287Y-90724500D01*
X140238713Y-90724500D01*
X140190042Y-90732208D01*
X140028760Y-90757753D01*
X139826585Y-90823444D01*
X139637179Y-90919951D01*
X139465213Y-91044890D01*
X139314890Y-91195213D01*
X139189949Y-91367182D01*
X139185484Y-91375946D01*
X139137509Y-91426742D01*
X139069688Y-91443536D01*
X139003553Y-91420998D01*
X138964516Y-91375946D01*
X138960050Y-91367182D01*
X138835109Y-91195213D01*
X138684786Y-91044890D01*
X138512820Y-90919951D01*
X138323414Y-90823444D01*
X138323413Y-90823443D01*
X138323412Y-90823443D01*
X138121243Y-90757754D01*
X138121241Y-90757753D01*
X138121240Y-90757753D01*
X137959957Y-90732208D01*
X137911287Y-90724500D01*
X137698713Y-90724500D01*
X137650042Y-90732208D01*
X137488760Y-90757753D01*
X137286585Y-90823444D01*
X137097179Y-90919951D01*
X136925213Y-91044890D01*
X136774890Y-91195213D01*
X136649949Y-91367182D01*
X136645484Y-91375946D01*
X136597509Y-91426742D01*
X136529688Y-91443536D01*
X136463553Y-91420998D01*
X136424516Y-91375946D01*
X136420050Y-91367182D01*
X136295109Y-91195213D01*
X136144786Y-91044890D01*
X135972820Y-90919951D01*
X135783414Y-90823444D01*
X135783413Y-90823443D01*
X135783412Y-90823443D01*
X135581243Y-90757754D01*
X135581241Y-90757753D01*
X135581240Y-90757753D01*
X135419957Y-90732208D01*
X135371287Y-90724500D01*
X135158713Y-90724500D01*
X135110042Y-90732208D01*
X134948760Y-90757753D01*
X134746585Y-90823444D01*
X134557179Y-90919951D01*
X134385213Y-91044890D01*
X134234890Y-91195213D01*
X134109949Y-91367182D01*
X134105484Y-91375946D01*
X134057509Y-91426742D01*
X133989688Y-91443536D01*
X133923553Y-91420998D01*
X133884516Y-91375946D01*
X133880050Y-91367182D01*
X133755109Y-91195213D01*
X133604786Y-91044890D01*
X133432820Y-90919951D01*
X133243414Y-90823444D01*
X133243413Y-90823443D01*
X133243412Y-90823443D01*
X133041243Y-90757754D01*
X133041241Y-90757753D01*
X133041240Y-90757753D01*
X132879957Y-90732208D01*
X132831287Y-90724500D01*
X132618713Y-90724500D01*
X132570042Y-90732208D01*
X132408760Y-90757753D01*
X132206585Y-90823444D01*
X132017179Y-90919951D01*
X131845213Y-91044890D01*
X131694890Y-91195213D01*
X131569949Y-91367182D01*
X131565484Y-91375946D01*
X131517509Y-91426742D01*
X131449688Y-91443536D01*
X131383553Y-91420998D01*
X131344516Y-91375946D01*
X131340050Y-91367182D01*
X131215109Y-91195213D01*
X131064786Y-91044890D01*
X130892820Y-90919951D01*
X130703414Y-90823444D01*
X130703413Y-90823443D01*
X130703412Y-90823443D01*
X130501243Y-90757754D01*
X130501241Y-90757753D01*
X130501240Y-90757753D01*
X130339957Y-90732208D01*
X130291287Y-90724500D01*
X130078713Y-90724500D01*
X130030042Y-90732208D01*
X129868760Y-90757753D01*
X129666585Y-90823444D01*
X129477179Y-90919951D01*
X129305213Y-91044890D01*
X129154890Y-91195213D01*
X129029949Y-91367182D01*
X129025484Y-91375946D01*
X128977509Y-91426742D01*
X128909688Y-91443536D01*
X128843553Y-91420998D01*
X128804516Y-91375946D01*
X128800050Y-91367182D01*
X128675109Y-91195213D01*
X128524786Y-91044890D01*
X128352820Y-90919951D01*
X128163414Y-90823444D01*
X128163413Y-90823443D01*
X128163412Y-90823443D01*
X127961243Y-90757754D01*
X127961241Y-90757753D01*
X127961240Y-90757753D01*
X127799957Y-90732208D01*
X127751287Y-90724500D01*
X127538713Y-90724500D01*
X127490042Y-90732208D01*
X127328760Y-90757753D01*
X127126585Y-90823444D01*
X126937179Y-90919951D01*
X126765215Y-91044889D01*
X126651673Y-91158431D01*
X126590350Y-91191915D01*
X126520658Y-91186931D01*
X126464725Y-91145059D01*
X126447810Y-91114082D01*
X126398797Y-90982671D01*
X126398793Y-90982664D01*
X126312547Y-90867455D01*
X126312544Y-90867452D01*
X126197335Y-90781206D01*
X126197328Y-90781202D01*
X126062482Y-90730908D01*
X126062483Y-90730908D01*
X126002883Y-90724501D01*
X126002881Y-90724500D01*
X126002873Y-90724500D01*
X126002864Y-90724500D01*
X124207129Y-90724500D01*
X124207123Y-90724501D01*
X124147516Y-90730908D01*
X124012671Y-90781202D01*
X124012664Y-90781206D01*
X123897455Y-90867452D01*
X123897452Y-90867455D01*
X123811206Y-90982664D01*
X123811202Y-90982671D01*
X123760908Y-91117517D01*
X123754501Y-91177116D01*
X123754500Y-91177135D01*
X123754500Y-92972870D01*
X123754501Y-92972876D01*
X123760908Y-93032483D01*
X123811202Y-93167328D01*
X123811206Y-93167335D01*
X123897452Y-93282544D01*
X123897455Y-93282547D01*
X123988006Y-93350334D01*
X124029877Y-93406267D01*
X124034861Y-93475959D01*
X124001375Y-93537282D01*
X123940052Y-93570766D01*
X123913695Y-93573600D01*
X123368362Y-93573600D01*
X123301323Y-93553915D01*
X123280681Y-93537281D01*
X120457719Y-90714319D01*
X120424234Y-90652996D01*
X120421400Y-90626638D01*
X120421400Y-89618800D01*
X121545400Y-89618800D01*
X122171400Y-89618800D01*
X123169400Y-89618800D01*
X124671400Y-89618800D01*
X125669400Y-89618800D01*
X127171400Y-89618800D01*
X128169400Y-89618800D01*
X129671400Y-89618800D01*
X130773810Y-89618800D01*
X132171400Y-89618800D01*
X133169400Y-89618800D01*
X134671400Y-89618800D01*
X135669400Y-89618800D01*
X137171400Y-89618800D01*
X138169400Y-89618800D01*
X139671400Y-89618800D01*
X140669400Y-89618800D01*
X142171400Y-89618800D01*
X143169400Y-89618800D01*
X144614073Y-89618800D01*
X148169400Y-89618800D01*
X149671400Y-89618800D01*
X150669400Y-89618800D01*
X152171400Y-89618800D01*
X153169400Y-89618800D01*
X154671400Y-89618800D01*
X155669400Y-89618800D01*
X157171400Y-89618800D01*
X157171400Y-88896664D01*
X156391536Y-88116800D01*
X155669400Y-88116800D01*
X155669400Y-89618800D01*
X154671400Y-89618800D01*
X154671400Y-88116800D01*
X153169400Y-88116800D01*
X153169400Y-89618800D01*
X152171400Y-89618800D01*
X152171400Y-88116800D01*
X150669400Y-88116800D01*
X150669400Y-89618800D01*
X149671400Y-89618800D01*
X149671400Y-88116800D01*
X148169400Y-88116800D01*
X148169400Y-89618800D01*
X144614073Y-89618800D01*
X144541494Y-89510178D01*
X144538237Y-89505034D01*
X144519302Y-89473442D01*
X144516302Y-89468146D01*
X144493201Y-89424925D01*
X144490464Y-89419489D01*
X144474724Y-89386208D01*
X144472259Y-89380645D01*
X144396935Y-89198795D01*
X144394745Y-89193120D01*
X144382342Y-89158458D01*
X144380433Y-89152678D01*
X144366207Y-89105784D01*
X144364584Y-89099921D01*
X144355634Y-89064196D01*
X144354300Y-89058254D01*
X144315896Y-88865187D01*
X144314855Y-88859189D01*
X144309451Y-88822756D01*
X144308706Y-88816715D01*
X144303903Y-88767943D01*
X144303455Y-88761873D01*
X144301649Y-88725101D01*
X144301500Y-88719018D01*
X144301500Y-88694520D01*
X145299499Y-88694520D01*
X145328340Y-88839507D01*
X145328343Y-88839517D01*
X145384912Y-88976088D01*
X145384919Y-88976101D01*
X145467048Y-89099015D01*
X145467051Y-89099019D01*
X145571580Y-89203548D01*
X145571584Y-89203551D01*
X145694498Y-89285680D01*
X145694511Y-89285687D01*
X145831082Y-89342256D01*
X145831087Y-89342258D01*
X145831091Y-89342258D01*
X145831092Y-89342259D01*
X145976079Y-89371100D01*
X145976082Y-89371100D01*
X146123920Y-89371100D01*
X146221462Y-89351696D01*
X146268913Y-89342258D01*
X146405495Y-89285684D01*
X146528416Y-89203551D01*
X146632951Y-89099016D01*
X146715084Y-88976095D01*
X146771658Y-88839513D01*
X146794334Y-88725515D01*
X146800500Y-88694520D01*
X146800500Y-88546679D01*
X146771659Y-88401692D01*
X146771658Y-88401691D01*
X146771658Y-88401687D01*
X146759066Y-88371286D01*
X146715087Y-88265111D01*
X146715080Y-88265098D01*
X146632951Y-88142184D01*
X146632948Y-88142180D01*
X146528419Y-88037651D01*
X146528415Y-88037648D01*
X146405501Y-87955519D01*
X146405488Y-87955512D01*
X146268917Y-87898943D01*
X146268907Y-87898940D01*
X146123920Y-87870100D01*
X146123918Y-87870100D01*
X145976082Y-87870100D01*
X145976080Y-87870100D01*
X145831092Y-87898940D01*
X145831082Y-87898943D01*
X145694511Y-87955512D01*
X145694498Y-87955519D01*
X145571584Y-88037648D01*
X145571580Y-88037651D01*
X145467051Y-88142180D01*
X145467048Y-88142184D01*
X145384919Y-88265098D01*
X145384912Y-88265111D01*
X145328343Y-88401682D01*
X145328340Y-88401692D01*
X145299500Y-88546679D01*
X145299500Y-88546682D01*
X145299500Y-88694518D01*
X145299500Y-88694520D01*
X145299499Y-88694520D01*
X144301500Y-88694520D01*
X144301500Y-88522182D01*
X144301649Y-88516099D01*
X144303455Y-88479327D01*
X144303903Y-88473257D01*
X144308706Y-88424485D01*
X144309451Y-88418444D01*
X144314855Y-88382011D01*
X144315896Y-88376013D01*
X144354300Y-88182946D01*
X144355634Y-88177004D01*
X144364584Y-88141279D01*
X144366207Y-88135416D01*
X144371854Y-88116800D01*
X143169400Y-88116800D01*
X143169400Y-89618800D01*
X142171400Y-89618800D01*
X142171400Y-88116800D01*
X140669400Y-88116800D01*
X140669400Y-89618800D01*
X139671400Y-89618800D01*
X139671400Y-88116800D01*
X138169400Y-88116800D01*
X138169400Y-89618800D01*
X137171400Y-89618800D01*
X137171400Y-88116800D01*
X135669400Y-88116800D01*
X135669400Y-89618800D01*
X134671400Y-89618800D01*
X134671400Y-88116800D01*
X133169400Y-88116800D01*
X133169400Y-89618800D01*
X132171400Y-89618800D01*
X132171400Y-88116800D01*
X131841070Y-88116800D01*
X131847473Y-88157225D01*
X131849000Y-88176623D01*
X131849000Y-88373377D01*
X131847473Y-88392775D01*
X131816694Y-88587107D01*
X131812152Y-88606028D01*
X131751351Y-88793152D01*
X131743905Y-88811127D01*
X131654581Y-88986437D01*
X131644414Y-89003029D01*
X131528764Y-89162206D01*
X131516127Y-89177001D01*
X131377001Y-89316127D01*
X131362206Y-89328764D01*
X131203029Y-89444414D01*
X131186437Y-89454581D01*
X131011127Y-89543905D01*
X130993152Y-89551351D01*
X130806028Y-89612152D01*
X130787107Y-89616694D01*
X130773810Y-89618800D01*
X129671400Y-89618800D01*
X129671400Y-89389506D01*
X129587795Y-89328764D01*
X129572999Y-89316127D01*
X129433873Y-89177001D01*
X129421236Y-89162206D01*
X129305586Y-89003029D01*
X129295419Y-88986437D01*
X129206095Y-88811127D01*
X129198649Y-88793152D01*
X129137848Y-88606028D01*
X129133306Y-88587107D01*
X129102527Y-88392775D01*
X129101000Y-88373377D01*
X129101000Y-88176623D01*
X129102527Y-88157225D01*
X129108930Y-88116800D01*
X128169400Y-88116800D01*
X128169400Y-89618800D01*
X127171400Y-89618800D01*
X127171400Y-88116800D01*
X125669400Y-88116800D01*
X125669400Y-89618800D01*
X124671400Y-89618800D01*
X124671400Y-88116800D01*
X123169400Y-88116800D01*
X123169400Y-89618800D01*
X122171400Y-89618800D01*
X122171400Y-88116800D01*
X121545400Y-88116800D01*
X121545400Y-89618800D01*
X120421400Y-89618800D01*
X120421400Y-87118800D01*
X121545400Y-87118800D01*
X122171400Y-87118800D01*
X123169400Y-87118800D01*
X124554433Y-87118800D01*
X128169400Y-87118800D01*
X129671400Y-87118800D01*
X129671400Y-86914663D01*
X130669400Y-86914663D01*
X130787107Y-86933306D01*
X130806028Y-86937848D01*
X130993152Y-86998649D01*
X131011127Y-87006095D01*
X131186437Y-87095419D01*
X131203029Y-87105587D01*
X131221215Y-87118800D01*
X132171400Y-87118800D01*
X133169400Y-87118800D01*
X134671400Y-87118800D01*
X135669400Y-87118800D01*
X137171400Y-87118800D01*
X138169400Y-87118800D01*
X139671400Y-87118800D01*
X140669400Y-87118800D01*
X142171400Y-87118800D01*
X143169400Y-87118800D01*
X144671400Y-87118800D01*
X144671400Y-86913551D01*
X145669400Y-86913551D01*
X145805413Y-86886496D01*
X145811411Y-86885455D01*
X145847844Y-86880051D01*
X145853885Y-86879306D01*
X145902657Y-86874503D01*
X145908727Y-86874055D01*
X145945499Y-86872249D01*
X145951582Y-86872100D01*
X146148418Y-86872100D01*
X146154501Y-86872249D01*
X146191273Y-86874055D01*
X146197343Y-86874503D01*
X146246115Y-86879306D01*
X146252156Y-86880051D01*
X146288589Y-86885455D01*
X146294587Y-86886496D01*
X146487654Y-86924900D01*
X146493596Y-86926234D01*
X146529321Y-86935184D01*
X146535184Y-86936807D01*
X146582078Y-86951033D01*
X146587858Y-86952942D01*
X146622520Y-86965345D01*
X146628195Y-86967535D01*
X146810045Y-87042859D01*
X146815608Y-87045324D01*
X146848889Y-87061064D01*
X146854325Y-87063801D01*
X146897546Y-87086902D01*
X146902842Y-87089902D01*
X146934434Y-87108837D01*
X146939578Y-87112094D01*
X146949614Y-87118800D01*
X147171400Y-87118800D01*
X148169400Y-87118800D01*
X149671400Y-87118800D01*
X150669400Y-87118800D01*
X152171400Y-87118800D01*
X152171400Y-85616800D01*
X150669400Y-85616800D01*
X150669400Y-87118800D01*
X149671400Y-87118800D01*
X149671400Y-85616800D01*
X148169400Y-85616800D01*
X148169400Y-87118800D01*
X147171400Y-87118800D01*
X147171400Y-85637005D01*
X147153996Y-85641366D01*
X147148054Y-85642700D01*
X146954987Y-85681104D01*
X146948989Y-85682145D01*
X146912556Y-85687549D01*
X146906515Y-85688294D01*
X146857743Y-85693097D01*
X146851673Y-85693545D01*
X146814901Y-85695351D01*
X146808818Y-85695500D01*
X146611982Y-85695500D01*
X146605899Y-85695351D01*
X146569127Y-85693545D01*
X146563057Y-85693097D01*
X146514285Y-85688294D01*
X146508244Y-85687549D01*
X146471811Y-85682145D01*
X146465813Y-85681104D01*
X146272746Y-85642700D01*
X146266804Y-85641366D01*
X146231079Y-85632416D01*
X146225216Y-85630793D01*
X146179090Y-85616800D01*
X145669400Y-85616800D01*
X145669400Y-86913551D01*
X144671400Y-86913551D01*
X144671400Y-85616800D01*
X143169400Y-85616800D01*
X143169400Y-87118800D01*
X142171400Y-87118800D01*
X142171400Y-85616800D01*
X140669400Y-85616800D01*
X140669400Y-87118800D01*
X139671400Y-87118800D01*
X139671400Y-85616800D01*
X138169400Y-85616800D01*
X138169400Y-87118800D01*
X137171400Y-87118800D01*
X137171400Y-85616800D01*
X135669400Y-85616800D01*
X135669400Y-87118800D01*
X134671400Y-87118800D01*
X134671400Y-85616800D01*
X133169400Y-85616800D01*
X133169400Y-87118800D01*
X132171400Y-87118800D01*
X132171400Y-85616800D01*
X130669400Y-85616800D01*
X130669400Y-86914663D01*
X129671400Y-86914663D01*
X129671400Y-85616800D01*
X128169400Y-85616800D01*
X128169400Y-87118800D01*
X124554433Y-87118800D01*
X124501456Y-87039514D01*
X124498199Y-87034370D01*
X124479264Y-87002778D01*
X124476264Y-86997482D01*
X124453163Y-86954261D01*
X124450427Y-86948826D01*
X124434687Y-86915546D01*
X124432221Y-86909983D01*
X124341820Y-86691735D01*
X124339630Y-86686059D01*
X124327227Y-86651397D01*
X124325318Y-86645618D01*
X124311091Y-86598722D01*
X124309467Y-86592852D01*
X124300518Y-86557124D01*
X124299185Y-86551187D01*
X124253096Y-86319481D01*
X124252055Y-86313486D01*
X124246651Y-86277058D01*
X124245906Y-86271015D01*
X124241103Y-86222246D01*
X124240655Y-86216175D01*
X124238849Y-86179400D01*
X124238700Y-86173318D01*
X124238700Y-85961579D01*
X125236700Y-85961579D01*
X125236700Y-86148820D01*
X125273225Y-86332443D01*
X125273227Y-86332451D01*
X125344876Y-86505428D01*
X125344881Y-86505437D01*
X125448897Y-86661107D01*
X125448900Y-86661111D01*
X125581288Y-86793499D01*
X125581292Y-86793502D01*
X125736962Y-86897518D01*
X125736968Y-86897521D01*
X125736969Y-86897522D01*
X125909949Y-86969173D01*
X126078894Y-87002778D01*
X126093579Y-87005699D01*
X126093583Y-87005700D01*
X126093584Y-87005700D01*
X126280817Y-87005700D01*
X126280818Y-87005699D01*
X126464451Y-86969173D01*
X126637431Y-86897522D01*
X126793108Y-86793502D01*
X126925502Y-86661108D01*
X127029522Y-86505431D01*
X127101173Y-86332451D01*
X127137700Y-86148816D01*
X127137700Y-85961584D01*
X127101173Y-85777949D01*
X127029522Y-85604969D01*
X127029521Y-85604968D01*
X127029518Y-85604962D01*
X126925502Y-85449292D01*
X126925499Y-85449288D01*
X126793111Y-85316900D01*
X126793107Y-85316897D01*
X126637437Y-85212881D01*
X126637428Y-85212876D01*
X126464451Y-85141227D01*
X126464443Y-85141225D01*
X126280820Y-85104700D01*
X126280816Y-85104700D01*
X126093584Y-85104700D01*
X126093579Y-85104700D01*
X125909956Y-85141225D01*
X125909948Y-85141227D01*
X125736971Y-85212876D01*
X125736962Y-85212881D01*
X125581292Y-85316897D01*
X125581288Y-85316900D01*
X125448900Y-85449288D01*
X125448897Y-85449292D01*
X125344881Y-85604962D01*
X125344876Y-85604971D01*
X125273227Y-85777948D01*
X125273225Y-85777956D01*
X125236700Y-85961579D01*
X124238700Y-85961579D01*
X124238700Y-85937082D01*
X124238849Y-85931000D01*
X124240655Y-85894225D01*
X124241103Y-85888154D01*
X124245906Y-85839385D01*
X124246651Y-85833342D01*
X124252055Y-85796914D01*
X124253096Y-85790919D01*
X124287730Y-85616800D01*
X123169400Y-85616800D01*
X123169400Y-87118800D01*
X122171400Y-87118800D01*
X122171400Y-85616800D01*
X121545400Y-85616800D01*
X121545400Y-87118800D01*
X120421400Y-87118800D01*
X120421400Y-84618800D01*
X121545400Y-84618800D01*
X122171400Y-84618800D01*
X123169400Y-84618800D01*
X124671400Y-84618800D01*
X128169400Y-84618800D01*
X129671400Y-84618800D01*
X130669400Y-84618800D01*
X132171400Y-84618800D01*
X133169400Y-84618800D01*
X134671400Y-84618800D01*
X135669400Y-84618800D01*
X137171400Y-84618800D01*
X138169400Y-84618800D01*
X139671400Y-84618800D01*
X139671400Y-83754658D01*
X139563587Y-83776104D01*
X139557589Y-83777145D01*
X139521156Y-83782549D01*
X139515115Y-83783294D01*
X139466343Y-83788097D01*
X139460273Y-83788545D01*
X139423501Y-83790351D01*
X139417418Y-83790500D01*
X139220582Y-83790500D01*
X139214499Y-83790351D01*
X139177727Y-83788545D01*
X139171657Y-83788097D01*
X139122885Y-83783294D01*
X139116844Y-83782549D01*
X139080411Y-83777145D01*
X139074413Y-83776104D01*
X138881346Y-83737700D01*
X138875404Y-83736366D01*
X138839679Y-83727416D01*
X138833816Y-83725793D01*
X138786922Y-83711567D01*
X138781142Y-83709658D01*
X138746480Y-83697255D01*
X138740805Y-83695065D01*
X138558955Y-83619741D01*
X138553392Y-83617276D01*
X138520111Y-83601536D01*
X138514675Y-83598799D01*
X138471454Y-83575698D01*
X138466158Y-83572698D01*
X138434566Y-83553763D01*
X138429422Y-83550506D01*
X138265752Y-83441145D01*
X138260778Y-83437642D01*
X138231204Y-83415709D01*
X138226404Y-83411963D01*
X138188522Y-83380874D01*
X138183915Y-83376900D01*
X138169400Y-83363744D01*
X138169400Y-84618800D01*
X137171400Y-84618800D01*
X137171400Y-83158433D01*
X140669400Y-83158433D01*
X140669400Y-84618800D01*
X142171400Y-84618800D01*
X143169400Y-84618800D01*
X144671400Y-84618800D01*
X144671400Y-84020920D01*
X145959899Y-84020920D01*
X145988740Y-84165907D01*
X145988743Y-84165917D01*
X146045312Y-84302488D01*
X146045319Y-84302501D01*
X146127448Y-84425415D01*
X146127451Y-84425419D01*
X146231980Y-84529948D01*
X146231984Y-84529951D01*
X146354898Y-84612080D01*
X146354911Y-84612087D01*
X146491482Y-84668656D01*
X146491487Y-84668658D01*
X146491491Y-84668658D01*
X146491492Y-84668659D01*
X146636479Y-84697500D01*
X146636482Y-84697500D01*
X146784320Y-84697500D01*
X146881862Y-84678096D01*
X146929313Y-84668658D01*
X147049681Y-84618800D01*
X150669400Y-84618800D01*
X152171400Y-84618800D01*
X152171400Y-83896664D01*
X151498236Y-83223500D01*
X150991551Y-83223500D01*
X150983441Y-83223235D01*
X150934435Y-83220023D01*
X150926356Y-83219227D01*
X150861556Y-83210694D01*
X150853555Y-83209373D01*
X150805401Y-83199795D01*
X150797498Y-83197952D01*
X150669400Y-83163628D01*
X150669400Y-84618800D01*
X147049681Y-84618800D01*
X147065895Y-84612084D01*
X147188816Y-84529951D01*
X147293351Y-84425416D01*
X147375484Y-84302495D01*
X147375485Y-84302493D01*
X147376519Y-84300560D01*
X147377327Y-84299736D01*
X147378869Y-84297430D01*
X147379306Y-84297722D01*
X147425479Y-84250714D01*
X147493616Y-84235251D01*
X147559297Y-84259080D01*
X147573560Y-84271328D01*
X147628980Y-84326748D01*
X147628984Y-84326751D01*
X147751898Y-84408880D01*
X147751911Y-84408887D01*
X147875380Y-84460029D01*
X147888487Y-84465458D01*
X147888491Y-84465458D01*
X147888492Y-84465459D01*
X148033479Y-84494300D01*
X148033482Y-84494300D01*
X148181320Y-84494300D01*
X148286171Y-84473443D01*
X148326313Y-84465458D01*
X148462895Y-84408884D01*
X148585816Y-84326751D01*
X148690351Y-84222216D01*
X148772484Y-84099295D01*
X148829058Y-83962713D01*
X148857900Y-83817718D01*
X148857900Y-83669882D01*
X148857900Y-83669879D01*
X148829059Y-83524892D01*
X148829058Y-83524891D01*
X148829058Y-83524887D01*
X148805735Y-83468580D01*
X148772487Y-83388311D01*
X148772480Y-83388298D01*
X148690351Y-83265384D01*
X148690348Y-83265380D01*
X148585819Y-83160851D01*
X148585815Y-83160848D01*
X148462901Y-83078719D01*
X148462888Y-83078712D01*
X148326317Y-83022143D01*
X148326307Y-83022140D01*
X148181320Y-82993300D01*
X148181318Y-82993300D01*
X148033482Y-82993300D01*
X148033480Y-82993300D01*
X147888492Y-83022140D01*
X147888482Y-83022143D01*
X147751911Y-83078712D01*
X147751898Y-83078719D01*
X147628984Y-83160848D01*
X147628980Y-83160851D01*
X147524451Y-83265380D01*
X147524448Y-83265384D01*
X147442312Y-83388309D01*
X147441271Y-83390257D01*
X147440458Y-83391083D01*
X147438931Y-83393370D01*
X147438497Y-83393080D01*
X147392302Y-83440095D01*
X147324163Y-83455547D01*
X147258486Y-83431707D01*
X147244239Y-83419471D01*
X147188819Y-83364051D01*
X147188815Y-83364048D01*
X147065901Y-83281919D01*
X147065888Y-83281912D01*
X146929317Y-83225343D01*
X146929307Y-83225340D01*
X146784320Y-83196500D01*
X146784318Y-83196500D01*
X146636482Y-83196500D01*
X146636480Y-83196500D01*
X146491492Y-83225340D01*
X146491482Y-83225343D01*
X146354911Y-83281912D01*
X146354898Y-83281919D01*
X146231984Y-83364048D01*
X146231980Y-83364051D01*
X146127451Y-83468580D01*
X146127448Y-83468584D01*
X146045319Y-83591498D01*
X146045312Y-83591511D01*
X145988743Y-83728082D01*
X145988740Y-83728092D01*
X145959900Y-83873079D01*
X145959900Y-83873082D01*
X145959900Y-84020918D01*
X145959900Y-84020920D01*
X145959899Y-84020920D01*
X144671400Y-84020920D01*
X144671400Y-83116800D01*
X143169400Y-83116800D01*
X143169400Y-84618800D01*
X142171400Y-84618800D01*
X142171400Y-83116800D01*
X140702347Y-83116800D01*
X140692709Y-83129796D01*
X140688963Y-83134596D01*
X140669400Y-83158433D01*
X137171400Y-83158433D01*
X137171400Y-83116800D01*
X135669400Y-83116800D01*
X135669400Y-84618800D01*
X134671400Y-84618800D01*
X134671400Y-83116800D01*
X133169400Y-83116800D01*
X133169400Y-84618800D01*
X132171400Y-84618800D01*
X132171400Y-83116800D01*
X130669400Y-83116800D01*
X130669400Y-84618800D01*
X129671400Y-84618800D01*
X129671400Y-83116800D01*
X128169400Y-83116800D01*
X128169400Y-84618800D01*
X124671400Y-84618800D01*
X124671400Y-84172494D01*
X125669400Y-84172494D01*
X125685276Y-84168518D01*
X125691213Y-84167185D01*
X125922919Y-84121096D01*
X125928914Y-84120055D01*
X125965342Y-84114651D01*
X125971385Y-84113906D01*
X126020154Y-84109103D01*
X126026225Y-84108655D01*
X126063000Y-84106849D01*
X126069082Y-84106700D01*
X126305318Y-84106700D01*
X126311400Y-84106849D01*
X126348175Y-84108655D01*
X126354246Y-84109103D01*
X126403015Y-84113906D01*
X126409058Y-84114651D01*
X126445486Y-84120055D01*
X126451481Y-84121096D01*
X126683187Y-84167185D01*
X126689124Y-84168518D01*
X126724852Y-84177467D01*
X126730722Y-84179091D01*
X126777618Y-84193318D01*
X126783397Y-84195227D01*
X126818059Y-84207630D01*
X126823735Y-84209820D01*
X127041983Y-84300221D01*
X127047546Y-84302687D01*
X127080826Y-84318427D01*
X127086261Y-84321163D01*
X127129482Y-84344264D01*
X127134778Y-84347264D01*
X127166370Y-84366199D01*
X127171400Y-84369383D01*
X127171400Y-83116800D01*
X125669400Y-83116800D01*
X125669400Y-84172494D01*
X124671400Y-84172494D01*
X124671400Y-83116800D01*
X123169400Y-83116800D01*
X123169400Y-84618800D01*
X122171400Y-84618800D01*
X122171400Y-83116800D01*
X121545400Y-83116800D01*
X121545400Y-84618800D01*
X120421400Y-84618800D01*
X120421400Y-82118800D01*
X121545400Y-82118800D01*
X122171400Y-82118800D01*
X123169400Y-82118800D01*
X124671400Y-82118800D01*
X125669400Y-82118800D01*
X127171400Y-82118800D01*
X128169400Y-82118800D01*
X129671400Y-82118800D01*
X130669400Y-82118800D01*
X132171400Y-82118800D01*
X132171400Y-81840685D01*
X135669400Y-81840685D01*
X135669400Y-82118800D01*
X137171400Y-82118800D01*
X137171400Y-82115920D01*
X138568499Y-82115920D01*
X138597340Y-82260907D01*
X138597343Y-82260917D01*
X138653912Y-82397488D01*
X138653919Y-82397501D01*
X138736048Y-82520415D01*
X138736051Y-82520419D01*
X138840580Y-82624948D01*
X138840584Y-82624951D01*
X138963498Y-82707080D01*
X138963511Y-82707087D01*
X139100082Y-82763656D01*
X139100087Y-82763658D01*
X139100091Y-82763658D01*
X139100092Y-82763659D01*
X139245079Y-82792500D01*
X139245082Y-82792500D01*
X139392920Y-82792500D01*
X139490462Y-82773096D01*
X139537913Y-82763658D01*
X139674495Y-82707084D01*
X139797416Y-82624951D01*
X139901951Y-82520416D01*
X139984084Y-82397495D01*
X140040658Y-82260913D01*
X140063931Y-82143917D01*
X140068927Y-82118800D01*
X143169400Y-82118800D01*
X144671400Y-82118800D01*
X144671400Y-80901400D01*
X145669400Y-80901400D01*
X145669400Y-82118800D01*
X146858478Y-82118800D01*
X146853903Y-82072343D01*
X146853455Y-82066273D01*
X146851649Y-82029501D01*
X146851500Y-82023418D01*
X146851500Y-81998920D01*
X147849499Y-81998920D01*
X147878340Y-82143907D01*
X147878343Y-82143917D01*
X147934912Y-82280488D01*
X147934919Y-82280501D01*
X148017048Y-82403415D01*
X148017051Y-82403419D01*
X148121580Y-82507948D01*
X148121584Y-82507951D01*
X148244498Y-82590080D01*
X148244511Y-82590087D01*
X148381082Y-82646656D01*
X148381087Y-82646658D01*
X148381091Y-82646658D01*
X148381092Y-82646659D01*
X148526079Y-82675500D01*
X148526082Y-82675500D01*
X148673920Y-82675500D01*
X148771462Y-82656096D01*
X148818913Y-82646658D01*
X148955495Y-82590084D01*
X149078416Y-82507951D01*
X149182951Y-82403416D01*
X149265084Y-82280495D01*
X149321658Y-82143913D01*
X149349307Y-82004917D01*
X149350500Y-81998920D01*
X149350500Y-81851079D01*
X149321659Y-81706092D01*
X149321658Y-81706091D01*
X149321658Y-81706087D01*
X149318325Y-81698040D01*
X149265087Y-81569511D01*
X149265080Y-81569498D01*
X149182951Y-81446584D01*
X149182948Y-81446580D01*
X149078419Y-81342051D01*
X149078415Y-81342048D01*
X148955501Y-81259919D01*
X148955488Y-81259912D01*
X148818917Y-81203343D01*
X148818907Y-81203340D01*
X148673920Y-81174500D01*
X148673918Y-81174500D01*
X148526082Y-81174500D01*
X148526080Y-81174500D01*
X148381092Y-81203340D01*
X148381082Y-81203343D01*
X148244511Y-81259912D01*
X148244498Y-81259919D01*
X148121584Y-81342048D01*
X148121580Y-81342051D01*
X148017051Y-81446580D01*
X148017048Y-81446584D01*
X147934919Y-81569498D01*
X147934912Y-81569511D01*
X147878343Y-81706082D01*
X147878340Y-81706092D01*
X147849500Y-81851079D01*
X147849500Y-81851082D01*
X147849500Y-81998918D01*
X147849500Y-81998920D01*
X147849499Y-81998920D01*
X146851500Y-81998920D01*
X146851500Y-81826582D01*
X146851649Y-81820499D01*
X146853455Y-81783727D01*
X146853903Y-81777657D01*
X146858706Y-81728885D01*
X146859451Y-81722844D01*
X146864855Y-81686411D01*
X146865896Y-81680413D01*
X146904300Y-81487346D01*
X146905634Y-81481404D01*
X146914584Y-81445679D01*
X146916207Y-81439816D01*
X146930433Y-81392922D01*
X146932342Y-81387142D01*
X146944745Y-81352480D01*
X146946935Y-81346805D01*
X147022259Y-81164955D01*
X147024724Y-81159392D01*
X147040464Y-81126111D01*
X147043201Y-81120675D01*
X147066302Y-81077454D01*
X147069302Y-81072158D01*
X147088237Y-81040566D01*
X147091494Y-81035422D01*
X147171400Y-80915834D01*
X147171400Y-80616800D01*
X146456358Y-80616800D01*
X146346229Y-80696814D01*
X146329637Y-80706981D01*
X146154327Y-80796305D01*
X146136352Y-80803751D01*
X145949228Y-80864552D01*
X145930307Y-80869094D01*
X145735975Y-80899873D01*
X145716577Y-80901400D01*
X145669400Y-80901400D01*
X144671400Y-80901400D01*
X144671400Y-80616800D01*
X143169400Y-80616800D01*
X143169400Y-82118800D01*
X140068927Y-82118800D01*
X140069500Y-82115920D01*
X140069500Y-81968079D01*
X140040659Y-81823092D01*
X140040658Y-81823091D01*
X140040658Y-81823087D01*
X140024355Y-81783727D01*
X139984087Y-81686511D01*
X139984080Y-81686498D01*
X139901951Y-81563584D01*
X139901948Y-81563580D01*
X139797419Y-81459051D01*
X139797415Y-81459048D01*
X139674501Y-81376919D01*
X139674488Y-81376912D01*
X139537917Y-81320343D01*
X139537907Y-81320340D01*
X139392920Y-81291500D01*
X139392918Y-81291500D01*
X139245082Y-81291500D01*
X139245080Y-81291500D01*
X139100092Y-81320340D01*
X139100082Y-81320343D01*
X138963511Y-81376912D01*
X138963498Y-81376919D01*
X138840584Y-81459048D01*
X138840580Y-81459051D01*
X138736051Y-81563580D01*
X138736048Y-81563584D01*
X138653919Y-81686498D01*
X138653912Y-81686511D01*
X138597343Y-81823082D01*
X138597340Y-81823092D01*
X138568500Y-81968079D01*
X138568500Y-81968082D01*
X138568500Y-82115918D01*
X138568500Y-82115920D01*
X138568499Y-82115920D01*
X137171400Y-82115920D01*
X137171400Y-80616800D01*
X135928323Y-80616800D01*
X135937152Y-80643972D01*
X135941694Y-80662893D01*
X135972473Y-80857225D01*
X135974000Y-80876623D01*
X135974000Y-81073377D01*
X135972473Y-81092775D01*
X135941694Y-81287107D01*
X135937152Y-81306028D01*
X135876351Y-81493152D01*
X135868905Y-81511127D01*
X135779581Y-81686437D01*
X135769414Y-81703029D01*
X135669400Y-81840685D01*
X132171400Y-81840685D01*
X132171400Y-80818700D01*
X132083182Y-80818700D01*
X132077099Y-80818551D01*
X132040327Y-80816745D01*
X132034257Y-80816297D01*
X131985485Y-80811494D01*
X131979444Y-80810749D01*
X131943011Y-80805345D01*
X131937013Y-80804304D01*
X131743946Y-80765900D01*
X131738004Y-80764566D01*
X131702279Y-80755616D01*
X131696416Y-80753993D01*
X131649522Y-80739767D01*
X131643742Y-80737858D01*
X131609080Y-80725455D01*
X131603405Y-80723265D01*
X131421555Y-80647941D01*
X131415992Y-80645476D01*
X131382711Y-80629736D01*
X131377275Y-80626999D01*
X131358193Y-80616800D01*
X130669400Y-80616800D01*
X130669400Y-82118800D01*
X129671400Y-82118800D01*
X129671400Y-80616800D01*
X128169400Y-80616800D01*
X128169400Y-82118800D01*
X127171400Y-82118800D01*
X127171400Y-80616800D01*
X125669400Y-80616800D01*
X125669400Y-82118800D01*
X124671400Y-82118800D01*
X124671400Y-80616800D01*
X123169400Y-80616800D01*
X123169400Y-82118800D01*
X122171400Y-82118800D01*
X122171400Y-80616800D01*
X121545400Y-80616800D01*
X121545400Y-82118800D01*
X120421400Y-82118800D01*
X120421400Y-80414120D01*
X140168699Y-80414120D01*
X140197540Y-80559107D01*
X140197543Y-80559117D01*
X140254112Y-80695688D01*
X140254119Y-80695701D01*
X140336248Y-80818615D01*
X140336251Y-80818619D01*
X140440780Y-80923148D01*
X140440784Y-80923151D01*
X140563698Y-81005280D01*
X140563711Y-81005287D01*
X140700282Y-81061856D01*
X140700287Y-81061858D01*
X140700291Y-81061858D01*
X140700292Y-81061859D01*
X140845279Y-81090700D01*
X140845282Y-81090700D01*
X140993120Y-81090700D01*
X141090662Y-81071296D01*
X141138113Y-81061858D01*
X141274695Y-81005284D01*
X141397616Y-80923151D01*
X141502151Y-80818616D01*
X141584284Y-80695695D01*
X141640858Y-80559113D01*
X141669700Y-80414118D01*
X141669700Y-80384416D01*
X141689385Y-80317377D01*
X141742189Y-80271622D01*
X141746250Y-80269854D01*
X141747095Y-80269503D01*
X141750431Y-80268122D01*
X141906108Y-80164102D01*
X142038502Y-80031708D01*
X142142522Y-79876031D01*
X142214173Y-79703051D01*
X142250700Y-79519416D01*
X142250700Y-79332184D01*
X142214173Y-79148549D01*
X142142522Y-78975569D01*
X142142521Y-78975568D01*
X142142518Y-78975562D01*
X142038502Y-78819892D01*
X142038499Y-78819888D01*
X141906111Y-78687500D01*
X141906107Y-78687497D01*
X141750437Y-78583481D01*
X141750428Y-78583476D01*
X141577451Y-78511827D01*
X141577443Y-78511825D01*
X141393820Y-78475300D01*
X141393816Y-78475300D01*
X141206584Y-78475300D01*
X141206579Y-78475300D01*
X141022956Y-78511825D01*
X141022948Y-78511827D01*
X140849971Y-78583476D01*
X140849962Y-78583481D01*
X140694292Y-78687497D01*
X140694288Y-78687500D01*
X140561900Y-78819888D01*
X140561897Y-78819892D01*
X140457881Y-78975562D01*
X140457876Y-78975571D01*
X140386227Y-79148548D01*
X140386225Y-79148556D01*
X140349700Y-79332179D01*
X140349700Y-79519420D01*
X140386224Y-79703043D01*
X140386228Y-79703053D01*
X140386379Y-79703418D01*
X140386401Y-79703623D01*
X140387994Y-79708874D01*
X140386997Y-79709176D01*
X140393839Y-79772888D01*
X140362557Y-79835364D01*
X140359496Y-79838535D01*
X140336251Y-79861781D01*
X140336246Y-79861787D01*
X140254119Y-79984698D01*
X140254112Y-79984711D01*
X140197543Y-80121282D01*
X140197540Y-80121292D01*
X140168700Y-80266279D01*
X140168700Y-80266282D01*
X140168700Y-80414118D01*
X140168700Y-80414120D01*
X140168699Y-80414120D01*
X120421400Y-80414120D01*
X120421400Y-79618800D01*
X121545400Y-79618800D01*
X122171400Y-79618800D01*
X126329292Y-79618800D01*
X127171400Y-79618800D01*
X127171400Y-78960786D01*
X128169400Y-78960786D01*
X128169400Y-79618800D01*
X129671400Y-79618800D01*
X129671400Y-79144120D01*
X131431099Y-79144120D01*
X131459940Y-79289107D01*
X131459943Y-79289117D01*
X131516512Y-79425688D01*
X131516519Y-79425701D01*
X131598648Y-79548615D01*
X131598651Y-79548619D01*
X131703180Y-79653148D01*
X131703184Y-79653151D01*
X131826098Y-79735280D01*
X131826111Y-79735287D01*
X131916889Y-79772888D01*
X131962687Y-79791858D01*
X131962691Y-79791858D01*
X131962692Y-79791859D01*
X132107679Y-79820700D01*
X132107682Y-79820700D01*
X132255520Y-79820700D01*
X132353062Y-79801296D01*
X132400513Y-79791858D01*
X132537095Y-79735284D01*
X132660016Y-79653151D01*
X132764551Y-79548616D01*
X132846684Y-79425695D01*
X132903258Y-79289113D01*
X132920496Y-79202454D01*
X132932100Y-79144120D01*
X132932100Y-78996279D01*
X132903259Y-78851292D01*
X132903258Y-78851291D01*
X132903258Y-78851287D01*
X132887930Y-78814281D01*
X132846687Y-78714711D01*
X132846680Y-78714698D01*
X132764551Y-78591784D01*
X132764548Y-78591780D01*
X132660019Y-78487251D01*
X132660015Y-78487248D01*
X132537101Y-78405119D01*
X132537088Y-78405112D01*
X132400517Y-78348543D01*
X132400507Y-78348540D01*
X132255520Y-78319700D01*
X132255518Y-78319700D01*
X132107682Y-78319700D01*
X132107680Y-78319700D01*
X131962692Y-78348540D01*
X131962682Y-78348543D01*
X131826111Y-78405112D01*
X131826098Y-78405119D01*
X131703184Y-78487248D01*
X131703180Y-78487251D01*
X131598651Y-78591780D01*
X131598648Y-78591784D01*
X131516519Y-78714698D01*
X131516512Y-78714711D01*
X131459943Y-78851282D01*
X131459940Y-78851292D01*
X131431100Y-78996279D01*
X131431100Y-78996282D01*
X131431100Y-79144118D01*
X131431100Y-79144120D01*
X131431099Y-79144120D01*
X129671400Y-79144120D01*
X129671400Y-78476047D01*
X129628564Y-78535006D01*
X129615927Y-78549801D01*
X129476801Y-78688927D01*
X129462006Y-78701564D01*
X129302829Y-78817214D01*
X129286237Y-78827381D01*
X129110927Y-78916705D01*
X129092952Y-78924151D01*
X128905828Y-78984952D01*
X128886907Y-78989494D01*
X128692575Y-79020273D01*
X128673177Y-79021800D01*
X128476423Y-79021800D01*
X128457025Y-79020273D01*
X128262693Y-78989494D01*
X128243772Y-78984952D01*
X128169400Y-78960786D01*
X127171400Y-78960786D01*
X127171400Y-78116800D01*
X133647461Y-78116800D01*
X133690106Y-78180622D01*
X133693363Y-78185766D01*
X133712298Y-78217358D01*
X133715298Y-78222654D01*
X133738399Y-78265875D01*
X133741136Y-78271311D01*
X133756876Y-78304592D01*
X133759341Y-78310155D01*
X133834665Y-78492005D01*
X133836855Y-78497680D01*
X133849258Y-78532342D01*
X133851167Y-78538122D01*
X133865393Y-78585016D01*
X133867016Y-78590879D01*
X133875966Y-78626604D01*
X133877300Y-78632546D01*
X133915704Y-78825613D01*
X133916745Y-78831611D01*
X133922149Y-78868044D01*
X133922894Y-78874085D01*
X133927697Y-78922857D01*
X133928145Y-78928927D01*
X133929951Y-78965699D01*
X133930100Y-78971782D01*
X133930100Y-79168618D01*
X133929951Y-79174701D01*
X133928145Y-79211473D01*
X133927697Y-79217543D01*
X133922894Y-79266315D01*
X133922149Y-79272356D01*
X133916745Y-79308789D01*
X133915704Y-79314787D01*
X133877300Y-79507854D01*
X133875966Y-79513796D01*
X133867016Y-79549521D01*
X133865393Y-79555384D01*
X133851167Y-79602278D01*
X133849258Y-79608058D01*
X133845414Y-79618800D01*
X134379481Y-79618800D01*
X135669400Y-79618800D01*
X137171400Y-79618800D01*
X138169400Y-79618800D01*
X139325452Y-79618800D01*
X139341459Y-79580155D01*
X139343924Y-79574592D01*
X139352197Y-79557098D01*
X139351849Y-79550000D01*
X139351700Y-79543918D01*
X139351700Y-79307682D01*
X139351849Y-79301600D01*
X139353655Y-79264825D01*
X139354103Y-79258754D01*
X139358906Y-79209985D01*
X139359651Y-79203942D01*
X139365055Y-79167514D01*
X139366096Y-79161519D01*
X139412185Y-78929813D01*
X139413518Y-78923876D01*
X139422467Y-78888148D01*
X139424091Y-78882278D01*
X139438318Y-78835382D01*
X139440227Y-78829603D01*
X139452630Y-78794941D01*
X139454820Y-78789265D01*
X139545221Y-78571017D01*
X139547687Y-78565454D01*
X139563427Y-78532174D01*
X139566163Y-78526739D01*
X139589264Y-78483518D01*
X139592264Y-78478222D01*
X139611199Y-78446630D01*
X139614456Y-78441486D01*
X139671400Y-78356263D01*
X139671400Y-78116800D01*
X138169400Y-78116800D01*
X138169400Y-79618800D01*
X137171400Y-79618800D01*
X137171400Y-78116800D01*
X135669400Y-78116800D01*
X135669400Y-79618800D01*
X134379481Y-79618800D01*
X134482225Y-79602527D01*
X134501623Y-79601000D01*
X134671400Y-79601000D01*
X134671400Y-78116800D01*
X133647461Y-78116800D01*
X127171400Y-78116800D01*
X126600504Y-78116800D01*
X126634104Y-78285719D01*
X126635145Y-78291714D01*
X126640549Y-78328142D01*
X126641294Y-78334185D01*
X126646097Y-78382954D01*
X126646545Y-78389025D01*
X126648351Y-78425800D01*
X126648500Y-78431882D01*
X126648500Y-78668118D01*
X126648351Y-78674200D01*
X126646545Y-78710975D01*
X126646097Y-78717046D01*
X126641294Y-78765815D01*
X126640549Y-78771858D01*
X126635145Y-78808286D01*
X126634104Y-78814281D01*
X126588015Y-79045987D01*
X126586682Y-79051924D01*
X126577733Y-79087652D01*
X126576109Y-79093522D01*
X126561882Y-79140418D01*
X126559973Y-79146197D01*
X126547570Y-79180859D01*
X126545380Y-79186535D01*
X126454979Y-79404783D01*
X126452513Y-79410346D01*
X126436773Y-79443626D01*
X126434037Y-79449061D01*
X126410936Y-79492282D01*
X126407936Y-79497578D01*
X126389001Y-79529170D01*
X126385744Y-79534314D01*
X126329292Y-79618800D01*
X122171400Y-79618800D01*
X122171400Y-78517017D01*
X122063273Y-78499892D01*
X122058477Y-78499036D01*
X122029577Y-78493287D01*
X122024817Y-78492242D01*
X121986700Y-78483089D01*
X121981995Y-78481862D01*
X121953653Y-78473869D01*
X121948993Y-78472455D01*
X121899516Y-78456379D01*
X123749500Y-78456379D01*
X123749500Y-78643620D01*
X123786025Y-78827243D01*
X123786027Y-78827251D01*
X123857676Y-79000228D01*
X123857681Y-79000237D01*
X123961697Y-79155907D01*
X123961700Y-79155911D01*
X124094088Y-79288299D01*
X124094092Y-79288302D01*
X124249762Y-79392318D01*
X124249768Y-79392321D01*
X124249769Y-79392322D01*
X124422749Y-79463973D01*
X124565069Y-79492282D01*
X124606379Y-79500499D01*
X124606383Y-79500500D01*
X124606384Y-79500500D01*
X124793617Y-79500500D01*
X124793618Y-79500499D01*
X124977251Y-79463973D01*
X125150231Y-79392322D01*
X125305908Y-79288302D01*
X125438302Y-79155908D01*
X125542322Y-79000231D01*
X125613973Y-78827251D01*
X125650500Y-78643616D01*
X125650500Y-78456384D01*
X125613973Y-78272749D01*
X125542322Y-78099769D01*
X125542321Y-78099768D01*
X125542318Y-78099762D01*
X125438302Y-77944092D01*
X125438299Y-77944088D01*
X125305911Y-77811700D01*
X125305907Y-77811697D01*
X125150237Y-77707681D01*
X125150228Y-77707676D01*
X124977251Y-77636027D01*
X124977243Y-77636025D01*
X124793620Y-77599500D01*
X124793616Y-77599500D01*
X124606384Y-77599500D01*
X124606379Y-77599500D01*
X124422756Y-77636025D01*
X124422748Y-77636027D01*
X124249771Y-77707676D01*
X124249762Y-77707681D01*
X124094092Y-77811697D01*
X124094088Y-77811700D01*
X123961700Y-77944088D01*
X123961697Y-77944092D01*
X123857681Y-78099762D01*
X123857676Y-78099771D01*
X123786027Y-78272748D01*
X123786025Y-78272756D01*
X123749500Y-78456379D01*
X121899516Y-78456379D01*
X121709560Y-78394658D01*
X121704963Y-78393064D01*
X121677353Y-78382879D01*
X121672825Y-78381107D01*
X121636608Y-78366109D01*
X121632139Y-78364154D01*
X121605364Y-78351811D01*
X121600981Y-78349686D01*
X121545400Y-78321366D01*
X121545400Y-79618800D01*
X120421400Y-79618800D01*
X120421400Y-76093713D01*
X121204500Y-76093713D01*
X121204500Y-76306287D01*
X121207440Y-76324849D01*
X121236778Y-76510085D01*
X121237754Y-76516243D01*
X121290448Y-76678419D01*
X121303444Y-76718414D01*
X121399951Y-76907820D01*
X121524890Y-77079786D01*
X121675213Y-77230109D01*
X121847179Y-77355048D01*
X121847181Y-77355049D01*
X121847184Y-77355051D01*
X122036588Y-77451557D01*
X122238757Y-77517246D01*
X122448713Y-77550500D01*
X122448714Y-77550500D01*
X122661286Y-77550500D01*
X122661287Y-77550500D01*
X122871243Y-77517246D01*
X123073412Y-77451557D01*
X123262816Y-77355051D01*
X123346985Y-77293899D01*
X123434786Y-77230109D01*
X123434788Y-77230106D01*
X123434792Y-77230104D01*
X123585104Y-77079792D01*
X123585106Y-77079788D01*
X123585109Y-77079786D01*
X123710048Y-76907820D01*
X123710047Y-76907820D01*
X123710051Y-76907816D01*
X123736889Y-76855143D01*
X125669400Y-76855143D01*
X125679170Y-76860999D01*
X125684314Y-76864256D01*
X125880740Y-76995504D01*
X125885714Y-76999007D01*
X125915288Y-77020940D01*
X125920088Y-77024686D01*
X125957970Y-77055775D01*
X125962577Y-77059749D01*
X125989864Y-77084480D01*
X125994273Y-77088678D01*
X126024395Y-77118800D01*
X127171400Y-77118800D01*
X127171400Y-76897615D01*
X127121935Y-76778195D01*
X127119745Y-76772520D01*
X127107342Y-76737858D01*
X127105433Y-76732078D01*
X127091207Y-76685184D01*
X127089584Y-76679321D01*
X127080634Y-76643596D01*
X127079300Y-76637654D01*
X127040896Y-76444587D01*
X127039855Y-76438589D01*
X127034451Y-76402156D01*
X127033706Y-76396115D01*
X127028903Y-76347343D01*
X127028455Y-76341273D01*
X127026649Y-76304501D01*
X127026500Y-76298418D01*
X127026500Y-76273920D01*
X128024499Y-76273920D01*
X128053340Y-76418907D01*
X128053343Y-76418917D01*
X128109912Y-76555488D01*
X128109919Y-76555501D01*
X128192048Y-76678415D01*
X128192051Y-76678419D01*
X128296580Y-76782948D01*
X128296584Y-76782951D01*
X128419498Y-76865080D01*
X128419511Y-76865087D01*
X128518939Y-76906271D01*
X128556087Y-76921658D01*
X128556091Y-76921658D01*
X128556092Y-76921659D01*
X128701079Y-76950500D01*
X128701082Y-76950500D01*
X128848920Y-76950500D01*
X128976795Y-76925063D01*
X128993913Y-76921658D01*
X129099547Y-76877902D01*
X129130488Y-76865087D01*
X129130488Y-76865086D01*
X129130495Y-76865084D01*
X129253416Y-76782951D01*
X129334910Y-76701457D01*
X133169400Y-76701457D01*
X133169400Y-77118800D01*
X134671400Y-77118800D01*
X134671400Y-76799000D01*
X135669400Y-76799000D01*
X135669400Y-77118800D01*
X137171400Y-77118800D01*
X137171400Y-76324849D01*
X136998187Y-76359304D01*
X136992189Y-76360345D01*
X136955756Y-76365749D01*
X136949715Y-76366494D01*
X136900943Y-76371297D01*
X136894873Y-76371745D01*
X136858101Y-76373551D01*
X136852018Y-76373700D01*
X136655182Y-76373700D01*
X136649099Y-76373551D01*
X136612327Y-76371745D01*
X136606257Y-76371297D01*
X136597676Y-76370451D01*
X136502002Y-76466127D01*
X136487206Y-76478764D01*
X136328029Y-76594414D01*
X136311437Y-76604581D01*
X136136127Y-76693905D01*
X136118152Y-76701351D01*
X135931028Y-76762152D01*
X135912107Y-76766694D01*
X135717775Y-76797473D01*
X135698377Y-76799000D01*
X135669400Y-76799000D01*
X134671400Y-76799000D01*
X134671400Y-76439528D01*
X134558873Y-76327001D01*
X134546236Y-76312206D01*
X134430586Y-76153029D01*
X134420419Y-76136437D01*
X134331095Y-75961127D01*
X134323649Y-75943152D01*
X134262848Y-75756028D01*
X134258306Y-75737107D01*
X134239251Y-75616800D01*
X133759588Y-75616800D01*
X133759104Y-75619587D01*
X133720700Y-75812654D01*
X133719366Y-75818596D01*
X133710416Y-75854321D01*
X133708793Y-75860184D01*
X133694567Y-75907078D01*
X133692658Y-75912858D01*
X133680255Y-75947520D01*
X133678065Y-75953195D01*
X133602741Y-76135045D01*
X133600276Y-76140608D01*
X133584536Y-76173889D01*
X133581799Y-76179325D01*
X133558698Y-76222546D01*
X133555698Y-76227842D01*
X133536763Y-76259434D01*
X133533506Y-76264578D01*
X133424145Y-76428248D01*
X133420642Y-76433222D01*
X133398709Y-76462796D01*
X133394963Y-76467596D01*
X133363874Y-76505478D01*
X133359900Y-76510085D01*
X133335169Y-76537372D01*
X133330971Y-76541781D01*
X133191781Y-76680971D01*
X133187372Y-76685169D01*
X133169400Y-76701457D01*
X129334910Y-76701457D01*
X129357951Y-76678416D01*
X129440084Y-76555495D01*
X129496658Y-76418913D01*
X129520778Y-76297654D01*
X129553163Y-76235744D01*
X129554658Y-76234221D01*
X129827061Y-75961819D01*
X129888384Y-75928334D01*
X129914742Y-75925500D01*
X131462770Y-75925500D01*
X131529809Y-75945185D01*
X131541468Y-75954580D01*
X131541874Y-75954086D01*
X131546584Y-75957951D01*
X131669498Y-76040080D01*
X131669511Y-76040087D01*
X131765424Y-76079815D01*
X131806087Y-76096658D01*
X131806091Y-76096658D01*
X131806092Y-76096659D01*
X131951079Y-76125500D01*
X131951082Y-76125500D01*
X132098920Y-76125500D01*
X132219159Y-76101582D01*
X132243913Y-76096658D01*
X132380495Y-76040084D01*
X132503416Y-75957951D01*
X132607951Y-75853416D01*
X132690084Y-75730495D01*
X132746658Y-75593913D01*
X132769647Y-75478342D01*
X132775500Y-75448920D01*
X132775500Y-75301079D01*
X132746659Y-75156092D01*
X132746658Y-75156091D01*
X132746658Y-75156087D01*
X132724924Y-75103616D01*
X132690087Y-75019511D01*
X132690080Y-75019498D01*
X132607951Y-74896584D01*
X132607948Y-74896580D01*
X132503419Y-74792051D01*
X132503415Y-74792048D01*
X132380501Y-74709919D01*
X132380488Y-74709912D01*
X132243917Y-74653343D01*
X132243907Y-74653340D01*
X132098920Y-74624500D01*
X132098918Y-74624500D01*
X131951082Y-74624500D01*
X131951080Y-74624500D01*
X131806092Y-74653340D01*
X131806082Y-74653343D01*
X131669511Y-74709912D01*
X131669498Y-74709919D01*
X131604124Y-74753602D01*
X131537447Y-74774480D01*
X131535233Y-74774500D01*
X129549234Y-74774500D01*
X129402865Y-74813719D01*
X129402862Y-74813720D01*
X129283292Y-74882754D01*
X129283291Y-74882753D01*
X129271640Y-74889481D01*
X129271631Y-74889487D01*
X128740834Y-75420285D01*
X128679511Y-75453770D01*
X128677345Y-75454221D01*
X128556092Y-75478340D01*
X128556082Y-75478343D01*
X128419511Y-75534912D01*
X128419498Y-75534919D01*
X128296584Y-75617048D01*
X128296580Y-75617051D01*
X128192051Y-75721580D01*
X128192048Y-75721584D01*
X128109919Y-75844498D01*
X128109912Y-75844511D01*
X128053343Y-75981082D01*
X128053340Y-75981092D01*
X128024500Y-76126079D01*
X128024500Y-76126082D01*
X128024500Y-76273918D01*
X128024500Y-76273920D01*
X128024499Y-76273920D01*
X127026500Y-76273920D01*
X127026500Y-76101582D01*
X127026649Y-76095499D01*
X127028455Y-76058727D01*
X127028903Y-76052657D01*
X127033706Y-76003885D01*
X127034451Y-75997844D01*
X127039855Y-75961411D01*
X127040896Y-75955413D01*
X127079300Y-75762346D01*
X127080634Y-75756404D01*
X127089584Y-75720679D01*
X127091207Y-75714816D01*
X127105433Y-75667922D01*
X127107342Y-75662142D01*
X127119745Y-75627480D01*
X127121935Y-75621805D01*
X127124008Y-75616800D01*
X125669400Y-75616800D01*
X125669400Y-76855143D01*
X123736889Y-76855143D01*
X123806557Y-76718412D01*
X123872246Y-76516243D01*
X123905500Y-76306287D01*
X123905500Y-76093713D01*
X123872246Y-75883757D01*
X123806557Y-75681588D01*
X123710051Y-75492184D01*
X123710049Y-75492181D01*
X123710048Y-75492179D01*
X123585109Y-75320213D01*
X123471181Y-75206285D01*
X123437696Y-75144962D01*
X123442680Y-75075270D01*
X123484552Y-75019337D01*
X123515529Y-75002422D01*
X123647086Y-74953354D01*
X123647093Y-74953350D01*
X123762187Y-74867190D01*
X123762190Y-74867187D01*
X123848350Y-74752093D01*
X123848354Y-74752086D01*
X123898066Y-74618800D01*
X125669400Y-74618800D01*
X127171400Y-74618800D01*
X127171400Y-74048542D01*
X133169400Y-74048542D01*
X133187372Y-74064831D01*
X133191781Y-74069029D01*
X133330971Y-74208219D01*
X133335169Y-74212628D01*
X133359900Y-74239915D01*
X133363874Y-74244522D01*
X133394963Y-74282404D01*
X133398709Y-74287204D01*
X133420642Y-74316778D01*
X133424145Y-74321752D01*
X133533506Y-74485422D01*
X133536763Y-74490566D01*
X133555698Y-74522158D01*
X133558698Y-74527454D01*
X133581799Y-74570675D01*
X133584536Y-74576111D01*
X133600276Y-74609392D01*
X133602741Y-74614954D01*
X133604334Y-74618800D01*
X134487381Y-74618800D01*
X134546236Y-74537794D01*
X134558873Y-74522999D01*
X134671400Y-74410472D01*
X134671400Y-74259593D01*
X134563346Y-74238100D01*
X134557404Y-74236766D01*
X134521679Y-74227816D01*
X134515816Y-74226193D01*
X134468922Y-74211967D01*
X134463142Y-74210058D01*
X134428480Y-74197655D01*
X134422805Y-74195465D01*
X134240955Y-74120141D01*
X134235392Y-74117676D01*
X134202111Y-74101936D01*
X134196675Y-74099199D01*
X134153454Y-74076098D01*
X134148158Y-74073098D01*
X134116566Y-74054163D01*
X134111422Y-74050906D01*
X133947752Y-73941545D01*
X133942778Y-73938042D01*
X133913204Y-73916109D01*
X133908404Y-73912363D01*
X133870522Y-73881274D01*
X133865915Y-73877300D01*
X133838628Y-73852569D01*
X133834219Y-73848371D01*
X133695029Y-73709181D01*
X133690831Y-73704772D01*
X133666100Y-73677485D01*
X133662126Y-73672878D01*
X133631037Y-73634996D01*
X133627291Y-73630196D01*
X133605358Y-73600622D01*
X133601855Y-73595648D01*
X133492494Y-73431978D01*
X133489237Y-73426834D01*
X133470302Y-73395242D01*
X133467302Y-73389946D01*
X133444201Y-73346725D01*
X133441464Y-73341289D01*
X133425724Y-73308008D01*
X133423259Y-73302445D01*
X133347935Y-73120595D01*
X133346470Y-73116800D01*
X133169400Y-73116800D01*
X133169400Y-74048542D01*
X127171400Y-74048542D01*
X127171400Y-73453955D01*
X128169400Y-73453955D01*
X128218972Y-73437848D01*
X128237893Y-73433306D01*
X128432225Y-73402527D01*
X128451623Y-73401000D01*
X128648377Y-73401000D01*
X128667775Y-73402527D01*
X128862107Y-73433306D01*
X128881028Y-73437848D01*
X129068152Y-73498649D01*
X129086127Y-73506095D01*
X129261437Y-73595419D01*
X129278029Y-73605586D01*
X129437206Y-73721236D01*
X129452001Y-73733873D01*
X129495726Y-73777598D01*
X129508441Y-73776765D01*
X129516551Y-73776500D01*
X129671400Y-73776500D01*
X130669400Y-73776500D01*
X131315072Y-73776500D01*
X131446805Y-73721935D01*
X131452480Y-73719745D01*
X131487142Y-73707342D01*
X131492922Y-73705433D01*
X131539816Y-73691207D01*
X131545679Y-73689584D01*
X131581404Y-73680634D01*
X131587346Y-73679300D01*
X131780413Y-73640896D01*
X131786411Y-73639855D01*
X131822844Y-73634451D01*
X131828885Y-73633706D01*
X131877657Y-73628903D01*
X131883727Y-73628455D01*
X131920499Y-73626649D01*
X131926582Y-73626500D01*
X132123418Y-73626500D01*
X132129501Y-73626649D01*
X132166273Y-73628455D01*
X132171400Y-73628833D01*
X132171400Y-73116800D01*
X130669400Y-73116800D01*
X130669400Y-73776500D01*
X129671400Y-73776500D01*
X129671400Y-73116800D01*
X128169400Y-73116800D01*
X128169400Y-73453955D01*
X127171400Y-73453955D01*
X127171400Y-73116800D01*
X125669400Y-73116800D01*
X125669400Y-74618800D01*
X123898066Y-74618800D01*
X123898596Y-74617379D01*
X123898598Y-74617372D01*
X123904999Y-74557844D01*
X123905000Y-74557827D01*
X123905000Y-73910000D01*
X122988012Y-73910000D01*
X123020925Y-73852993D01*
X123055000Y-73725826D01*
X123055000Y-73594174D01*
X123020925Y-73467007D01*
X122988012Y-73410000D01*
X123905000Y-73410000D01*
X123905000Y-72762172D01*
X123904999Y-72762155D01*
X123898598Y-72702627D01*
X123898596Y-72702620D01*
X123866408Y-72616320D01*
X134250499Y-72616320D01*
X134279340Y-72761307D01*
X134279343Y-72761317D01*
X134335912Y-72897888D01*
X134335919Y-72897901D01*
X134418048Y-73020815D01*
X134418051Y-73020819D01*
X134522580Y-73125348D01*
X134522584Y-73125351D01*
X134645498Y-73207480D01*
X134645511Y-73207487D01*
X134761064Y-73255350D01*
X134782087Y-73264058D01*
X134782091Y-73264058D01*
X134782092Y-73264059D01*
X134927079Y-73292900D01*
X134927082Y-73292900D01*
X135074920Y-73292900D01*
X135172462Y-73273496D01*
X135219913Y-73264058D01*
X135356495Y-73207484D01*
X135479416Y-73125351D01*
X135583951Y-73020816D01*
X135666084Y-72897895D01*
X135666089Y-72897881D01*
X135668954Y-72892524D01*
X135670650Y-72893430D01*
X135708871Y-72845967D01*
X135775158Y-72823878D01*
X135803819Y-72826179D01*
X135902345Y-72845778D01*
X135964256Y-72878163D01*
X135965834Y-72879714D01*
X136750226Y-73664106D01*
X136783711Y-73725429D01*
X136778727Y-73795121D01*
X136736855Y-73851054D01*
X136685184Y-73871135D01*
X136685657Y-73873511D01*
X136534692Y-73903540D01*
X136534682Y-73903543D01*
X136398111Y-73960112D01*
X136398098Y-73960119D01*
X136275184Y-74042248D01*
X136275180Y-74042251D01*
X136170651Y-74146780D01*
X136170648Y-74146784D01*
X136088519Y-74269698D01*
X136088512Y-74269711D01*
X136031943Y-74406282D01*
X136031940Y-74406292D01*
X136003100Y-74551279D01*
X136003100Y-74551282D01*
X136003100Y-74699118D01*
X136003100Y-74699120D01*
X136003099Y-74699120D01*
X136031940Y-74844107D01*
X136031943Y-74844117D01*
X136088512Y-74980688D01*
X136088519Y-74980701D01*
X136170648Y-75103615D01*
X136170651Y-75103619D01*
X136275180Y-75208148D01*
X136275184Y-75208151D01*
X136398098Y-75290280D01*
X136398111Y-75290287D01*
X136518381Y-75340104D01*
X136534687Y-75346858D01*
X136534691Y-75346858D01*
X136534692Y-75346859D01*
X136679679Y-75375700D01*
X136679682Y-75375700D01*
X136827520Y-75375700D01*
X136925062Y-75356296D01*
X136972513Y-75346858D01*
X137109095Y-75290284D01*
X137232016Y-75208151D01*
X137336551Y-75103616D01*
X137418684Y-74980695D01*
X137475258Y-74844113D01*
X137493262Y-74753602D01*
X137505289Y-74693143D01*
X137507839Y-74693650D01*
X137529737Y-74639354D01*
X137586754Y-74598971D01*
X137656553Y-74595824D01*
X137714693Y-74628573D01*
X138746635Y-75660515D01*
X138877865Y-75736281D01*
X139024233Y-75775500D01*
X139024234Y-75775500D01*
X140192301Y-75775500D01*
X140259340Y-75795185D01*
X140305095Y-75847989D01*
X140315039Y-75917147D01*
X140295403Y-75968391D01*
X140203881Y-76105362D01*
X140203876Y-76105371D01*
X140132227Y-76278348D01*
X140132225Y-76278356D01*
X140095700Y-76461979D01*
X140095700Y-76649220D01*
X140132225Y-76832843D01*
X140132227Y-76832851D01*
X140203876Y-77005828D01*
X140203881Y-77005837D01*
X140307894Y-77161503D01*
X140307900Y-77161511D01*
X140440288Y-77293899D01*
X140440292Y-77293902D01*
X140595962Y-77397918D01*
X140595968Y-77397921D01*
X140595969Y-77397922D01*
X140768949Y-77469573D01*
X140952579Y-77506099D01*
X140952583Y-77506100D01*
X140952584Y-77506100D01*
X141139817Y-77506100D01*
X141139818Y-77506099D01*
X141323451Y-77469573D01*
X141496431Y-77397922D01*
X141652108Y-77293902D01*
X141784502Y-77161508D01*
X141784503Y-77161506D01*
X141784506Y-77161503D01*
X141888518Y-77005837D01*
X141888518Y-77005836D01*
X141888522Y-77005831D01*
X141960173Y-76832851D01*
X141996700Y-76649216D01*
X141996700Y-76461984D01*
X141960173Y-76278349D01*
X141888522Y-76105369D01*
X141888521Y-76105368D01*
X141888518Y-76105362D01*
X141796997Y-75968391D01*
X141776119Y-75901713D01*
X141794604Y-75834333D01*
X141846583Y-75787643D01*
X141900099Y-75775500D01*
X142548370Y-75775500D01*
X142615409Y-75795185D01*
X142661164Y-75847989D01*
X142671108Y-75917147D01*
X142642083Y-75980703D01*
X142636051Y-75987181D01*
X142596851Y-76026380D01*
X142596848Y-76026384D01*
X142514719Y-76149298D01*
X142514712Y-76149311D01*
X142458143Y-76285882D01*
X142458140Y-76285892D01*
X142429300Y-76430879D01*
X142429300Y-76430882D01*
X142429300Y-76578718D01*
X142429300Y-76578720D01*
X142429299Y-76578720D01*
X142458140Y-76723707D01*
X142458143Y-76723717D01*
X142514712Y-76860288D01*
X142514719Y-76860301D01*
X142596848Y-76983215D01*
X142596851Y-76983219D01*
X142701380Y-77087748D01*
X142701384Y-77087751D01*
X142824298Y-77169880D01*
X142824302Y-77169882D01*
X142824305Y-77169884D01*
X142830161Y-77172309D01*
X142832909Y-77173448D01*
X142887314Y-77217288D01*
X142909380Y-77283582D01*
X142892102Y-77351281D01*
X142873141Y-77375691D01*
X142774648Y-77474184D01*
X142692519Y-77597098D01*
X142692512Y-77597111D01*
X142635943Y-77733682D01*
X142635940Y-77733692D01*
X142607100Y-77878679D01*
X142607100Y-77878682D01*
X142607100Y-78026518D01*
X142607100Y-78026520D01*
X142607099Y-78026520D01*
X142635940Y-78171507D01*
X142635943Y-78171517D01*
X142692512Y-78308088D01*
X142692519Y-78308101D01*
X142774648Y-78431015D01*
X142774651Y-78431019D01*
X142879180Y-78535548D01*
X142879184Y-78535551D01*
X143002098Y-78617680D01*
X143002111Y-78617687D01*
X143135727Y-78673032D01*
X143138687Y-78674258D01*
X143138691Y-78674258D01*
X143138692Y-78674259D01*
X143283679Y-78703100D01*
X143283682Y-78703100D01*
X143431520Y-78703100D01*
X143529062Y-78683696D01*
X143576513Y-78674258D01*
X143713095Y-78617684D01*
X143836016Y-78535551D01*
X143940551Y-78431016D01*
X144022684Y-78308095D01*
X144023817Y-78305361D01*
X144067251Y-78200500D01*
X144079258Y-78171513D01*
X144090141Y-78116800D01*
X144108100Y-78026520D01*
X144108100Y-77878679D01*
X144079259Y-77733692D01*
X144079258Y-77733691D01*
X144079258Y-77733687D01*
X144038806Y-77636027D01*
X144022687Y-77597111D01*
X144022680Y-77597098D01*
X143940551Y-77474184D01*
X143940548Y-77474180D01*
X143836019Y-77369651D01*
X143836015Y-77369648D01*
X143713101Y-77287519D01*
X143713089Y-77287513D01*
X143704485Y-77283949D01*
X143650083Y-77240107D01*
X143628019Y-77173813D01*
X143645299Y-77106114D01*
X143664255Y-77081711D01*
X143762751Y-76983216D01*
X143801608Y-76925062D01*
X143855218Y-76880257D01*
X143924543Y-76871548D01*
X143987571Y-76901702D01*
X143992391Y-76906271D01*
X144221635Y-77135515D01*
X144352865Y-77211281D01*
X144499233Y-77250500D01*
X144499234Y-77250500D01*
X144991458Y-77250500D01*
X145058497Y-77270185D01*
X145104252Y-77322989D01*
X145114196Y-77392147D01*
X145106019Y-77421953D01*
X145085227Y-77472148D01*
X145085225Y-77472156D01*
X145048700Y-77655779D01*
X145048700Y-77843020D01*
X145085225Y-78026643D01*
X145085227Y-78026651D01*
X145156876Y-78199628D01*
X145156881Y-78199637D01*
X145260897Y-78355307D01*
X145260900Y-78355311D01*
X145393288Y-78487699D01*
X145393292Y-78487702D01*
X145548962Y-78591718D01*
X145548971Y-78591723D01*
X145549896Y-78592106D01*
X145721949Y-78663373D01*
X145843245Y-78687500D01*
X145905579Y-78699899D01*
X145905583Y-78699900D01*
X145905584Y-78699900D01*
X146092817Y-78699900D01*
X146092818Y-78699899D01*
X146276451Y-78663373D01*
X146449431Y-78591722D01*
X146605108Y-78487702D01*
X146737502Y-78355308D01*
X146755267Y-78328720D01*
X146808877Y-78283916D01*
X146878202Y-78275207D01*
X146941230Y-78305361D01*
X146946050Y-78309930D01*
X148720285Y-80084165D01*
X148753770Y-80145488D01*
X148754221Y-80147654D01*
X148778340Y-80268907D01*
X148778343Y-80268917D01*
X148834912Y-80405488D01*
X148834919Y-80405501D01*
X148917048Y-80528415D01*
X148917051Y-80528419D01*
X149021580Y-80632948D01*
X149021584Y-80632951D01*
X149144498Y-80715080D01*
X149144511Y-80715087D01*
X149242358Y-80755616D01*
X149281087Y-80771658D01*
X149402344Y-80795778D01*
X149464255Y-80828163D01*
X149465834Y-80829714D01*
X150639485Y-82003365D01*
X150746635Y-82110515D01*
X150877865Y-82186281D01*
X151024234Y-82225500D01*
X151860258Y-82225500D01*
X151927297Y-82245185D01*
X151947939Y-82261819D01*
X154263657Y-84577537D01*
X154297142Y-84638860D01*
X154292158Y-84708552D01*
X154250286Y-84764485D01*
X154200167Y-84786835D01*
X154078556Y-84811025D01*
X154078548Y-84811027D01*
X153905571Y-84882676D01*
X153905562Y-84882681D01*
X153749892Y-84986697D01*
X153749888Y-84986700D01*
X153617500Y-85119088D01*
X153617497Y-85119092D01*
X153513481Y-85274762D01*
X153513476Y-85274771D01*
X153441827Y-85447748D01*
X153441825Y-85447756D01*
X153405300Y-85631379D01*
X153405300Y-85818620D01*
X153441825Y-86002243D01*
X153441827Y-86002251D01*
X153513476Y-86175228D01*
X153513481Y-86175237D01*
X153617497Y-86330907D01*
X153617500Y-86330911D01*
X153749888Y-86463299D01*
X153749892Y-86463302D01*
X153905562Y-86567318D01*
X153905568Y-86567321D01*
X153905569Y-86567322D01*
X154078549Y-86638973D01*
X154262179Y-86675499D01*
X154262183Y-86675500D01*
X154262184Y-86675500D01*
X154449417Y-86675500D01*
X154449418Y-86675499D01*
X154633051Y-86638973D01*
X154806031Y-86567322D01*
X154961708Y-86463302D01*
X155094102Y-86330908D01*
X155198122Y-86175231D01*
X155269773Y-86002251D01*
X155293964Y-85880629D01*
X155326348Y-85818721D01*
X155387063Y-85784147D01*
X155456833Y-85787886D01*
X155503262Y-85817142D01*
X158304485Y-88618365D01*
X158411635Y-88725515D01*
X158542865Y-88801281D01*
X158689234Y-88840500D01*
X161896543Y-88840500D01*
X161963582Y-88860185D01*
X162007028Y-88908205D01*
X162039951Y-88972819D01*
X162164890Y-89144786D01*
X162315213Y-89295109D01*
X162487179Y-89420048D01*
X162487181Y-89420049D01*
X162487184Y-89420051D01*
X162676588Y-89516557D01*
X162878757Y-89582246D01*
X163088713Y-89615500D01*
X163088714Y-89615500D01*
X163301286Y-89615500D01*
X163301287Y-89615500D01*
X163511243Y-89582246D01*
X163713412Y-89516557D01*
X163902816Y-89420051D01*
X163970192Y-89371100D01*
X164074786Y-89295109D01*
X164074788Y-89295106D01*
X164074792Y-89295104D01*
X164225104Y-89144792D01*
X164225106Y-89144788D01*
X164225109Y-89144786D01*
X164350048Y-88972820D01*
X164350049Y-88972819D01*
X164350051Y-88972816D01*
X164446557Y-88783412D01*
X164512246Y-88581243D01*
X164545500Y-88371287D01*
X164545500Y-88158713D01*
X164512246Y-87948757D01*
X164446557Y-87746588D01*
X164350051Y-87557184D01*
X164350049Y-87557181D01*
X164350048Y-87557179D01*
X164225109Y-87385213D01*
X164074786Y-87234890D01*
X163902820Y-87109951D01*
X163902115Y-87109591D01*
X163894054Y-87105485D01*
X163843259Y-87057512D01*
X163826463Y-86989692D01*
X163848999Y-86923556D01*
X163894054Y-86884515D01*
X163902816Y-86880051D01*
X163924789Y-86864086D01*
X164074786Y-86755109D01*
X164074788Y-86755106D01*
X164074792Y-86755104D01*
X164225104Y-86604792D01*
X164225106Y-86604788D01*
X164225109Y-86604786D01*
X164350048Y-86432820D01*
X164350047Y-86432820D01*
X164350051Y-86432816D01*
X164446557Y-86243412D01*
X164512246Y-86041243D01*
X164545500Y-85831287D01*
X164545500Y-85618713D01*
X164512246Y-85408757D01*
X164446557Y-85206588D01*
X164350051Y-85017184D01*
X164350049Y-85017181D01*
X164350048Y-85017179D01*
X164225109Y-84845213D01*
X164074786Y-84694890D01*
X163902817Y-84569949D01*
X163893504Y-84565204D01*
X163842707Y-84517230D01*
X163825912Y-84449409D01*
X163848449Y-84383274D01*
X163893507Y-84344232D01*
X163902558Y-84339620D01*
X164074459Y-84214727D01*
X164074464Y-84214723D01*
X164224723Y-84064464D01*
X164224727Y-84064459D01*
X164349620Y-83892557D01*
X164446095Y-83703217D01*
X164511757Y-83501129D01*
X164511757Y-83501126D01*
X164522231Y-83435000D01*
X163628012Y-83435000D01*
X163660925Y-83377993D01*
X163695000Y-83250826D01*
X163695000Y-83119174D01*
X163660925Y-82992007D01*
X163628012Y-82935000D01*
X164522231Y-82935000D01*
X164511757Y-82868873D01*
X164511757Y-82868870D01*
X164446095Y-82666782D01*
X164349620Y-82477442D01*
X164224727Y-82305540D01*
X164224723Y-82305535D01*
X164111053Y-82191865D01*
X164077568Y-82130542D01*
X164082552Y-82060850D01*
X164124424Y-82004917D01*
X164155400Y-81988002D01*
X164287331Y-81938796D01*
X164402546Y-81852546D01*
X164488796Y-81737331D01*
X164539091Y-81602483D01*
X164545500Y-81542873D01*
X164545499Y-79747128D01*
X164539091Y-79687517D01*
X164526273Y-79653151D01*
X164488797Y-79552671D01*
X164488793Y-79552664D01*
X164402547Y-79437455D01*
X164402544Y-79437452D01*
X164287335Y-79351206D01*
X164287328Y-79351202D01*
X164152482Y-79300908D01*
X164152483Y-79300908D01*
X164092883Y-79294501D01*
X164092881Y-79294500D01*
X164092873Y-79294500D01*
X164092864Y-79294500D01*
X162297129Y-79294500D01*
X162297123Y-79294501D01*
X162237516Y-79300908D01*
X162102671Y-79351202D01*
X162102664Y-79351206D01*
X161987455Y-79437452D01*
X161987452Y-79437455D01*
X161901206Y-79552664D01*
X161901202Y-79552671D01*
X161850908Y-79687517D01*
X161845773Y-79735284D01*
X161844501Y-79747123D01*
X161844500Y-79747135D01*
X161844500Y-81542870D01*
X161844501Y-81542876D01*
X161850908Y-81602483D01*
X161901202Y-81737328D01*
X161901206Y-81737335D01*
X161987452Y-81852544D01*
X161987455Y-81852547D01*
X162102664Y-81938793D01*
X162102671Y-81938797D01*
X162102674Y-81938798D01*
X162234598Y-81988002D01*
X162290531Y-82029873D01*
X162314949Y-82095337D01*
X162300098Y-82163610D01*
X162278947Y-82191865D01*
X162165271Y-82305541D01*
X162040379Y-82477442D01*
X161943904Y-82666782D01*
X161878242Y-82868870D01*
X161878242Y-82868873D01*
X161867769Y-82935000D01*
X162761988Y-82935000D01*
X162729075Y-82992007D01*
X162695000Y-83119174D01*
X162695000Y-83250826D01*
X162729075Y-83377993D01*
X162761988Y-83435000D01*
X161867769Y-83435000D01*
X161878242Y-83501126D01*
X161878242Y-83501129D01*
X161943904Y-83703217D01*
X162040379Y-83892557D01*
X162165272Y-84064459D01*
X162165276Y-84064464D01*
X162315535Y-84214723D01*
X162315540Y-84214727D01*
X162487444Y-84339622D01*
X162496495Y-84344234D01*
X162547292Y-84392208D01*
X162564087Y-84460029D01*
X162541550Y-84526164D01*
X162496499Y-84565202D01*
X162487182Y-84569949D01*
X162315213Y-84694890D01*
X162164890Y-84845213D01*
X162039951Y-85017179D01*
X161943444Y-85206585D01*
X161877753Y-85408760D01*
X161846678Y-85604962D01*
X161844500Y-85618713D01*
X161844500Y-85831287D01*
X161877754Y-86041243D01*
X161921291Y-86175237D01*
X161943444Y-86243414D01*
X162039951Y-86432820D01*
X162164890Y-86604786D01*
X162315213Y-86755109D01*
X162487182Y-86880050D01*
X162495946Y-86884516D01*
X162546742Y-86932491D01*
X162563536Y-87000312D01*
X162540998Y-87066447D01*
X162495946Y-87105484D01*
X162487182Y-87109949D01*
X162315213Y-87234890D01*
X162164890Y-87385213D01*
X162039951Y-87557180D01*
X162007028Y-87621795D01*
X161959053Y-87672591D01*
X161896543Y-87689500D01*
X159054742Y-87689500D01*
X158987703Y-87669815D01*
X158967061Y-87653181D01*
X156930680Y-85616800D01*
X158342064Y-85616800D01*
X159416764Y-86691500D01*
X159671400Y-86691500D01*
X159671400Y-85616800D01*
X158342064Y-85616800D01*
X156930680Y-85616800D01*
X155932680Y-84618800D01*
X158169400Y-84618800D01*
X159671400Y-84618800D01*
X160669400Y-84618800D01*
X161122854Y-84618800D01*
X161159622Y-84546639D01*
X161161917Y-84542346D01*
X161176307Y-84516650D01*
X161178769Y-84512450D01*
X161199250Y-84479027D01*
X161201874Y-84474927D01*
X161215489Y-84454548D01*
X161202304Y-84434814D01*
X161199678Y-84430711D01*
X161179197Y-84397288D01*
X161176736Y-84393089D01*
X161162346Y-84367394D01*
X161160050Y-84363100D01*
X161045785Y-84138845D01*
X161043660Y-84134463D01*
X161031331Y-84107719D01*
X161029381Y-84103261D01*
X161014379Y-84067045D01*
X161012604Y-84062509D01*
X161002405Y-84034864D01*
X161000809Y-84030263D01*
X160923026Y-83790869D01*
X160921611Y-83786205D01*
X160913609Y-83757828D01*
X160912379Y-83753112D01*
X160903231Y-83714995D01*
X160902189Y-83710243D01*
X160896449Y-83681380D01*
X160895594Y-83676592D01*
X160847372Y-83372130D01*
X160850500Y-83319074D01*
X160888312Y-83185000D01*
X160869078Y-83116800D01*
X160669400Y-83116800D01*
X160669400Y-84618800D01*
X159671400Y-84618800D01*
X159671400Y-83116800D01*
X158169400Y-83116800D01*
X158169400Y-84618800D01*
X155932680Y-84618800D01*
X154430680Y-83116800D01*
X155842064Y-83116800D01*
X157171400Y-84446136D01*
X157171400Y-83116800D01*
X155842064Y-83116800D01*
X154430680Y-83116800D01*
X153011920Y-81698040D01*
X155669400Y-81698040D01*
X155700905Y-81759873D01*
X155708351Y-81777848D01*
X155769152Y-81964972D01*
X155773694Y-81983893D01*
X155795061Y-82118800D01*
X157171400Y-82118800D01*
X157171400Y-81307800D01*
X158169400Y-81307800D01*
X158169400Y-82118800D01*
X159671400Y-82118800D01*
X159671400Y-80616800D01*
X159436071Y-80616800D01*
X159421581Y-80645238D01*
X159411414Y-80661829D01*
X159295764Y-80821006D01*
X159283127Y-80835801D01*
X159144001Y-80974927D01*
X159129206Y-80987564D01*
X158970029Y-81103214D01*
X158953437Y-81113381D01*
X158778127Y-81202705D01*
X158760152Y-81210151D01*
X158573028Y-81270952D01*
X158554107Y-81275494D01*
X158359775Y-81306273D01*
X158340377Y-81307800D01*
X158169400Y-81307800D01*
X157171400Y-81307800D01*
X157171400Y-80797833D01*
X157072586Y-80661829D01*
X157062419Y-80645238D01*
X157047929Y-80616800D01*
X155669400Y-80616800D01*
X155669400Y-81698040D01*
X153011920Y-81698040D01*
X152503367Y-81189487D01*
X152503365Y-81189485D01*
X152437750Y-81151602D01*
X152372136Y-81113719D01*
X152286226Y-81090700D01*
X152225766Y-81074500D01*
X152225765Y-81074500D01*
X151389742Y-81074500D01*
X151322703Y-81054815D01*
X151302061Y-81038181D01*
X150279714Y-80015834D01*
X150246229Y-79954511D01*
X150245778Y-79952344D01*
X150230598Y-79876031D01*
X150221658Y-79831087D01*
X150186876Y-79747116D01*
X150165087Y-79694511D01*
X150165080Y-79694498D01*
X150082951Y-79571584D01*
X150082948Y-79571580D01*
X149978419Y-79467051D01*
X149978415Y-79467048D01*
X149855501Y-79384919D01*
X149855488Y-79384912D01*
X149718917Y-79328343D01*
X149718907Y-79328340D01*
X149597654Y-79304221D01*
X149535743Y-79271836D01*
X149534165Y-79270285D01*
X149010528Y-78746648D01*
X150669400Y-78746648D01*
X150805971Y-78883219D01*
X150810169Y-78887628D01*
X150834900Y-78914915D01*
X150838874Y-78919522D01*
X150869963Y-78957404D01*
X150873709Y-78962204D01*
X150895642Y-78991778D01*
X150899145Y-78996752D01*
X151008506Y-79160422D01*
X151011763Y-79165566D01*
X151030698Y-79197158D01*
X151033698Y-79202454D01*
X151056799Y-79245675D01*
X151059536Y-79251111D01*
X151075276Y-79284392D01*
X151077741Y-79289955D01*
X151153065Y-79471805D01*
X151155255Y-79477481D01*
X151156653Y-79481389D01*
X151294064Y-79618800D01*
X152171400Y-79618800D01*
X153169400Y-79618800D01*
X154671400Y-79618800D01*
X155669400Y-79618800D01*
X156901000Y-79618800D01*
X156904848Y-79602772D01*
X156965649Y-79415648D01*
X156973095Y-79397673D01*
X157062419Y-79222363D01*
X157072586Y-79205771D01*
X157171400Y-79069766D01*
X157171400Y-78559800D01*
X158169400Y-78559800D01*
X158340377Y-78559800D01*
X158359775Y-78561327D01*
X158554107Y-78592106D01*
X158573028Y-78596648D01*
X158760152Y-78657449D01*
X158778127Y-78664895D01*
X158953437Y-78754219D01*
X158970029Y-78764386D01*
X159129206Y-78880036D01*
X159144001Y-78892673D01*
X159283127Y-79031799D01*
X159295764Y-79046594D01*
X159411414Y-79205771D01*
X159421581Y-79222363D01*
X159510905Y-79397673D01*
X159518351Y-79415648D01*
X159579152Y-79602772D01*
X159583000Y-79618800D01*
X159671400Y-79618800D01*
X159671400Y-78987161D01*
X159471639Y-78885378D01*
X159467346Y-78883083D01*
X159441650Y-78868693D01*
X159437450Y-78866231D01*
X159404027Y-78845750D01*
X159399927Y-78843126D01*
X159375432Y-78826760D01*
X159371435Y-78823974D01*
X159167731Y-78675975D01*
X159163843Y-78673032D01*
X159140684Y-78654773D01*
X159136919Y-78651683D01*
X159107112Y-78626222D01*
X159103473Y-78622988D01*
X159081868Y-78603014D01*
X159078364Y-78599644D01*
X158900356Y-78421636D01*
X158896986Y-78418132D01*
X158877012Y-78396527D01*
X158873778Y-78392888D01*
X158848317Y-78363081D01*
X158845227Y-78359316D01*
X158826968Y-78336157D01*
X158824025Y-78332269D01*
X158676026Y-78128565D01*
X158673240Y-78124568D01*
X158668050Y-78116800D01*
X158169400Y-78116800D01*
X158169400Y-78559800D01*
X157171400Y-78559800D01*
X157171400Y-78116800D01*
X155669400Y-78116800D01*
X155669400Y-79618800D01*
X154671400Y-79618800D01*
X154671400Y-78116800D01*
X153169400Y-78116800D01*
X153169400Y-79618800D01*
X152171400Y-79618800D01*
X152171400Y-78116800D01*
X150669400Y-78116800D01*
X150669400Y-78746648D01*
X149010528Y-78746648D01*
X146758016Y-76494136D01*
X148169400Y-76494136D01*
X148794064Y-77118800D01*
X149671400Y-77118800D01*
X149671400Y-75773500D01*
X150669400Y-75773500D01*
X150669400Y-77118800D01*
X152171400Y-77118800D01*
X153169400Y-77118800D01*
X154671400Y-77118800D01*
X155669400Y-77118800D01*
X157171400Y-77118800D01*
X157171400Y-75616800D01*
X155669400Y-75616800D01*
X155669400Y-77118800D01*
X154671400Y-77118800D01*
X154671400Y-75891258D01*
X154560535Y-75937180D01*
X154554859Y-75939370D01*
X154520197Y-75951773D01*
X154514418Y-75953682D01*
X154467522Y-75967909D01*
X154461652Y-75969533D01*
X154425924Y-75978482D01*
X154419987Y-75979815D01*
X154188281Y-76025904D01*
X154182286Y-76026945D01*
X154145858Y-76032349D01*
X154139815Y-76033094D01*
X154091046Y-76037897D01*
X154084975Y-76038345D01*
X154048200Y-76040151D01*
X154042118Y-76040300D01*
X153805882Y-76040300D01*
X153799800Y-76040151D01*
X153763025Y-76038345D01*
X153756954Y-76037897D01*
X153708185Y-76033094D01*
X153702142Y-76032349D01*
X153665714Y-76026945D01*
X153659719Y-76025904D01*
X153428013Y-75979815D01*
X153422076Y-75978482D01*
X153386348Y-75969533D01*
X153380478Y-75967909D01*
X153333582Y-75953682D01*
X153327803Y-75951773D01*
X153293141Y-75939370D01*
X153287465Y-75937180D01*
X153169400Y-75888276D01*
X153169400Y-77118800D01*
X152171400Y-77118800D01*
X152171400Y-75616800D01*
X151465889Y-75616800D01*
X151336535Y-75670380D01*
X151330859Y-75672570D01*
X151296197Y-75684973D01*
X151290418Y-75686882D01*
X151243522Y-75701109D01*
X151237652Y-75702733D01*
X151201924Y-75711682D01*
X151195987Y-75713015D01*
X150964281Y-75759104D01*
X150958286Y-75760145D01*
X150921858Y-75765549D01*
X150915815Y-75766294D01*
X150867046Y-75771097D01*
X150860975Y-75771545D01*
X150824200Y-75773351D01*
X150818118Y-75773500D01*
X150669400Y-75773500D01*
X149671400Y-75773500D01*
X149671400Y-75616800D01*
X148169400Y-75616800D01*
X148169400Y-76494136D01*
X146758016Y-76494136D01*
X146478367Y-76214487D01*
X146478365Y-76214485D01*
X146368313Y-76150946D01*
X146347136Y-76138719D01*
X146273950Y-76119109D01*
X146200766Y-76099500D01*
X146200765Y-76099500D01*
X145629071Y-76099500D01*
X145562032Y-76079815D01*
X145516277Y-76027011D01*
X145507684Y-75975210D01*
X145505100Y-75975210D01*
X145505100Y-75821279D01*
X145476259Y-75676292D01*
X145476258Y-75676291D01*
X145476258Y-75676287D01*
X145451721Y-75617049D01*
X145419687Y-75539711D01*
X145419680Y-75539698D01*
X145337551Y-75416784D01*
X145337548Y-75416780D01*
X145233019Y-75312251D01*
X145233015Y-75312248D01*
X145110101Y-75230119D01*
X145110088Y-75230112D01*
X144973517Y-75173543D01*
X144973507Y-75173540D01*
X144828520Y-75144699D01*
X144822458Y-75144103D01*
X144822639Y-75142254D01*
X144763928Y-75125015D01*
X144718173Y-75072211D01*
X144709350Y-75044891D01*
X144703964Y-75017816D01*
X144696658Y-74981087D01*
X144685169Y-74953350D01*
X144640087Y-74844511D01*
X144640080Y-74844498D01*
X144557951Y-74721584D01*
X144557948Y-74721580D01*
X144453419Y-74617051D01*
X144453415Y-74617048D01*
X144330501Y-74534919D01*
X144330488Y-74534912D01*
X144193917Y-74478343D01*
X144193907Y-74478340D01*
X144048920Y-74449500D01*
X144048918Y-74449500D01*
X143901082Y-74449500D01*
X143901080Y-74449500D01*
X143756092Y-74478340D01*
X143756082Y-74478343D01*
X143619511Y-74534912D01*
X143619498Y-74534919D01*
X143516708Y-74603602D01*
X143450030Y-74624480D01*
X143447817Y-74624500D01*
X139389742Y-74624500D01*
X139322703Y-74604815D01*
X139302061Y-74588181D01*
X139117426Y-74403546D01*
X145669400Y-74403546D01*
X145807848Y-74496055D01*
X145812822Y-74499558D01*
X145842396Y-74521491D01*
X145847196Y-74525237D01*
X145885078Y-74556326D01*
X145889685Y-74560300D01*
X145916972Y-74585031D01*
X145921381Y-74589229D01*
X145950952Y-74618800D01*
X147171400Y-74618800D01*
X147171400Y-73439252D01*
X148169400Y-73439252D01*
X148169400Y-74618800D01*
X148919761Y-74618800D01*
X148854620Y-74461535D01*
X148852430Y-74455859D01*
X148840027Y-74421197D01*
X148838118Y-74415418D01*
X148823891Y-74368522D01*
X148822267Y-74362652D01*
X148813318Y-74326924D01*
X148811985Y-74320987D01*
X148765896Y-74089281D01*
X148764855Y-74083286D01*
X148759451Y-74046858D01*
X148758706Y-74040815D01*
X148753903Y-73992046D01*
X148753455Y-73985975D01*
X148751649Y-73949200D01*
X148751500Y-73943118D01*
X148751500Y-73731379D01*
X149749500Y-73731379D01*
X149749500Y-73918620D01*
X149786025Y-74102243D01*
X149786027Y-74102251D01*
X149857676Y-74275228D01*
X149857681Y-74275237D01*
X149961697Y-74430907D01*
X149961700Y-74430911D01*
X150094088Y-74563299D01*
X150094092Y-74563302D01*
X150249762Y-74667318D01*
X150249768Y-74667321D01*
X150249769Y-74667322D01*
X150422749Y-74738973D01*
X150587029Y-74771650D01*
X150606379Y-74775499D01*
X150606383Y-74775500D01*
X150606384Y-74775500D01*
X150793617Y-74775500D01*
X150793618Y-74775499D01*
X150977251Y-74738973D01*
X151150231Y-74667322D01*
X151305908Y-74563302D01*
X151438302Y-74430908D01*
X151542322Y-74275231D01*
X151613973Y-74102251D01*
X151634674Y-73998179D01*
X152973500Y-73998179D01*
X152973500Y-74185420D01*
X153010025Y-74369043D01*
X153010027Y-74369051D01*
X153081676Y-74542028D01*
X153081681Y-74542037D01*
X153185697Y-74697707D01*
X153185700Y-74697711D01*
X153318088Y-74830099D01*
X153318092Y-74830102D01*
X153473762Y-74934118D01*
X153473771Y-74934123D01*
X153508343Y-74948443D01*
X153646749Y-75005773D01*
X153830379Y-75042299D01*
X153830383Y-75042300D01*
X153830384Y-75042300D01*
X154017617Y-75042300D01*
X154017618Y-75042299D01*
X154201251Y-75005773D01*
X154374231Y-74934122D01*
X154529908Y-74830102D01*
X154662302Y-74697708D01*
X154766322Y-74542031D01*
X154837973Y-74369051D01*
X154874500Y-74185416D01*
X154874500Y-73998184D01*
X154837973Y-73814549D01*
X154766322Y-73641569D01*
X154766321Y-73641568D01*
X154766318Y-73641562D01*
X154662302Y-73485892D01*
X154662299Y-73485888D01*
X154529911Y-73353500D01*
X154529907Y-73353497D01*
X154374237Y-73249481D01*
X154374228Y-73249476D01*
X154294409Y-73216414D01*
X155669400Y-73216414D01*
X155676513Y-73231454D01*
X155678979Y-73237017D01*
X155769380Y-73455265D01*
X155771570Y-73460941D01*
X155783973Y-73495603D01*
X155785882Y-73501382D01*
X155800109Y-73548278D01*
X155801733Y-73554148D01*
X155810682Y-73589876D01*
X155812015Y-73595813D01*
X155858104Y-73827519D01*
X155859145Y-73833514D01*
X155864549Y-73869942D01*
X155865294Y-73875985D01*
X155870097Y-73924754D01*
X155870545Y-73930825D01*
X155872351Y-73967600D01*
X155872500Y-73973682D01*
X155872500Y-74209918D01*
X155872351Y-74216000D01*
X155870545Y-74252775D01*
X155870097Y-74258846D01*
X155865294Y-74307615D01*
X155864549Y-74313658D01*
X155859145Y-74350086D01*
X155858104Y-74356081D01*
X155812015Y-74587787D01*
X155810682Y-74593724D01*
X155804401Y-74618800D01*
X157171400Y-74618800D01*
X157171400Y-73116800D01*
X155669400Y-73116800D01*
X155669400Y-73216414D01*
X154294409Y-73216414D01*
X154201251Y-73177827D01*
X154201243Y-73177825D01*
X154017620Y-73141300D01*
X154017616Y-73141300D01*
X153830384Y-73141300D01*
X153830379Y-73141300D01*
X153646756Y-73177825D01*
X153646748Y-73177827D01*
X153473771Y-73249476D01*
X153473762Y-73249481D01*
X153318092Y-73353497D01*
X153318088Y-73353500D01*
X153185700Y-73485888D01*
X153185697Y-73485892D01*
X153081681Y-73641562D01*
X153081676Y-73641571D01*
X153010027Y-73814548D01*
X153010025Y-73814556D01*
X152973500Y-73998179D01*
X151634674Y-73998179D01*
X151650500Y-73918616D01*
X151650500Y-73731384D01*
X151613973Y-73547749D01*
X151542322Y-73374769D01*
X151542321Y-73374768D01*
X151542318Y-73374762D01*
X151438302Y-73219092D01*
X151438299Y-73219088D01*
X151305911Y-73086700D01*
X151305907Y-73086697D01*
X151150237Y-72982681D01*
X151150228Y-72982676D01*
X150977251Y-72911027D01*
X150977243Y-72911025D01*
X150793620Y-72874500D01*
X150793616Y-72874500D01*
X150606384Y-72874500D01*
X150606379Y-72874500D01*
X150422756Y-72911025D01*
X150422748Y-72911027D01*
X150249771Y-72982676D01*
X150249762Y-72982681D01*
X150094092Y-73086697D01*
X150094088Y-73086700D01*
X149961700Y-73219088D01*
X149961697Y-73219092D01*
X149857681Y-73374762D01*
X149857676Y-73374771D01*
X149786027Y-73547748D01*
X149786025Y-73547756D01*
X149749500Y-73731379D01*
X148751500Y-73731379D01*
X148751500Y-73706882D01*
X148751649Y-73700800D01*
X148753455Y-73664025D01*
X148753903Y-73657954D01*
X148758706Y-73609185D01*
X148759451Y-73603142D01*
X148764855Y-73566714D01*
X148765896Y-73560719D01*
X148796304Y-73407842D01*
X148664281Y-73434104D01*
X148658286Y-73435145D01*
X148621858Y-73440549D01*
X148615815Y-73441294D01*
X148567046Y-73446097D01*
X148560975Y-73446545D01*
X148524200Y-73448351D01*
X148518118Y-73448500D01*
X148281882Y-73448500D01*
X148275800Y-73448351D01*
X148239025Y-73446545D01*
X148232954Y-73446097D01*
X148184185Y-73441294D01*
X148178142Y-73440549D01*
X148169400Y-73439252D01*
X147171400Y-73439252D01*
X147171400Y-73116800D01*
X145669400Y-73116800D01*
X145669400Y-74403546D01*
X139117426Y-74403546D01*
X138082047Y-73368167D01*
X140669400Y-73368167D01*
X140669400Y-73626500D01*
X142171400Y-73626500D01*
X143169400Y-73626500D01*
X143205639Y-73626500D01*
X143209392Y-73624725D01*
X143214955Y-73622259D01*
X143396805Y-73546935D01*
X143402480Y-73544745D01*
X143437142Y-73532342D01*
X143442922Y-73530433D01*
X143489816Y-73516207D01*
X143495679Y-73514584D01*
X143531404Y-73505634D01*
X143537346Y-73504300D01*
X143730413Y-73465896D01*
X143736411Y-73464855D01*
X143772844Y-73459451D01*
X143778885Y-73458706D01*
X143827657Y-73453903D01*
X143833727Y-73453455D01*
X143870499Y-73451649D01*
X143876582Y-73451500D01*
X144073418Y-73451500D01*
X144079501Y-73451649D01*
X144116273Y-73453455D01*
X144122343Y-73453903D01*
X144171115Y-73458706D01*
X144177156Y-73459451D01*
X144213589Y-73464855D01*
X144219587Y-73465896D01*
X144412654Y-73504300D01*
X144418596Y-73505634D01*
X144454321Y-73514584D01*
X144460184Y-73516207D01*
X144507078Y-73530433D01*
X144512858Y-73532342D01*
X144547520Y-73544745D01*
X144553195Y-73546935D01*
X144671400Y-73595896D01*
X144671400Y-73116800D01*
X143169400Y-73116800D01*
X143169400Y-73626500D01*
X142171400Y-73626500D01*
X142171400Y-73116800D01*
X141337666Y-73116800D01*
X141309314Y-73135744D01*
X141304170Y-73139001D01*
X141272578Y-73157936D01*
X141267282Y-73160936D01*
X141224061Y-73184037D01*
X141218626Y-73186773D01*
X141185346Y-73202513D01*
X141179783Y-73204979D01*
X140961535Y-73295380D01*
X140955859Y-73297570D01*
X140921197Y-73309973D01*
X140915418Y-73311882D01*
X140868522Y-73326109D01*
X140862652Y-73327733D01*
X140826924Y-73336682D01*
X140820987Y-73338015D01*
X140669400Y-73368167D01*
X138082047Y-73368167D01*
X136779714Y-72065834D01*
X136746229Y-72004511D01*
X136745778Y-72002344D01*
X136745710Y-72002001D01*
X136721658Y-71881087D01*
X136708880Y-71850237D01*
X136665087Y-71744511D01*
X136665080Y-71744498D01*
X136582951Y-71621584D01*
X136582948Y-71621580D01*
X136478419Y-71517051D01*
X136478415Y-71517048D01*
X136355501Y-71434919D01*
X136355488Y-71434912D01*
X136218917Y-71378343D01*
X136218907Y-71378340D01*
X136108503Y-71356379D01*
X139374500Y-71356379D01*
X139374500Y-71543620D01*
X139411025Y-71727243D01*
X139411027Y-71727251D01*
X139482676Y-71900228D01*
X139482681Y-71900237D01*
X139586697Y-72055907D01*
X139586700Y-72055911D01*
X139719088Y-72188299D01*
X139719092Y-72188302D01*
X139874762Y-72292318D01*
X139874768Y-72292321D01*
X139874769Y-72292322D01*
X140047749Y-72363973D01*
X140231379Y-72400499D01*
X140231383Y-72400500D01*
X140231384Y-72400500D01*
X140418617Y-72400500D01*
X140418618Y-72400499D01*
X140602251Y-72363973D01*
X140775231Y-72292322D01*
X140930908Y-72188302D01*
X141063302Y-72055908D01*
X141167322Y-71900231D01*
X141238973Y-71727251D01*
X141275500Y-71543616D01*
X141275500Y-71356384D01*
X141238973Y-71172749D01*
X141167516Y-71000237D01*
X141167323Y-70999771D01*
X141167318Y-70999762D01*
X141063302Y-70844092D01*
X141063299Y-70844088D01*
X140930911Y-70711700D01*
X140930907Y-70711697D01*
X140821444Y-70638556D01*
X145669400Y-70638556D01*
X145693305Y-70685473D01*
X145700751Y-70703448D01*
X145761552Y-70890572D01*
X145766094Y-70909493D01*
X145796873Y-71103825D01*
X145798400Y-71123223D01*
X145798400Y-71319977D01*
X145796873Y-71339375D01*
X145766094Y-71533707D01*
X145761552Y-71552628D01*
X145700751Y-71739752D01*
X145693305Y-71757728D01*
X145669400Y-71804644D01*
X145669400Y-72118800D01*
X146548115Y-72118800D01*
X146540027Y-72096197D01*
X146538118Y-72090418D01*
X146523891Y-72043522D01*
X146522267Y-72037652D01*
X146513318Y-72001924D01*
X146511985Y-71995987D01*
X146465896Y-71764281D01*
X146464855Y-71758286D01*
X146459451Y-71721858D01*
X146458706Y-71715815D01*
X146453903Y-71667046D01*
X146453455Y-71660975D01*
X146451649Y-71624200D01*
X146451500Y-71618118D01*
X146451500Y-71406379D01*
X147449500Y-71406379D01*
X147449500Y-71593620D01*
X147486025Y-71777243D01*
X147486027Y-71777251D01*
X147557676Y-71950228D01*
X147557681Y-71950237D01*
X147661697Y-72105907D01*
X147661700Y-72105911D01*
X147794088Y-72238299D01*
X147794092Y-72238302D01*
X147949762Y-72342318D01*
X147949768Y-72342321D01*
X147949769Y-72342322D01*
X148122749Y-72413973D01*
X148306379Y-72450499D01*
X148306383Y-72450500D01*
X148306384Y-72450500D01*
X148493617Y-72450500D01*
X148493618Y-72450499D01*
X148677251Y-72413973D01*
X148850231Y-72342322D01*
X149005908Y-72238302D01*
X149125410Y-72118800D01*
X153169400Y-72118800D01*
X154671400Y-72118800D01*
X155669400Y-72118800D01*
X157171400Y-72118800D01*
X157171400Y-70872135D01*
X159299500Y-70872135D01*
X159299500Y-72667870D01*
X159299501Y-72667876D01*
X159305908Y-72727483D01*
X159356202Y-72862328D01*
X159356206Y-72862335D01*
X159442452Y-72977544D01*
X159442455Y-72977547D01*
X159557664Y-73063793D01*
X159557671Y-73063797D01*
X159689082Y-73112810D01*
X159745016Y-73154681D01*
X159769433Y-73220145D01*
X159754582Y-73288418D01*
X159733431Y-73316673D01*
X159619889Y-73430215D01*
X159494951Y-73602179D01*
X159398444Y-73791585D01*
X159398443Y-73791587D01*
X159398443Y-73791588D01*
X159390980Y-73814556D01*
X159332753Y-73993760D01*
X159302398Y-74185416D01*
X159299500Y-74203713D01*
X159299500Y-74416287D01*
X159305768Y-74455859D01*
X159332474Y-74624480D01*
X159332754Y-74626243D01*
X159393669Y-74813720D01*
X159398444Y-74828414D01*
X159494951Y-75017820D01*
X159619890Y-75189786D01*
X159770213Y-75340109D01*
X159942182Y-75465050D01*
X159950946Y-75469516D01*
X160001742Y-75517491D01*
X160018536Y-75585312D01*
X159995998Y-75651447D01*
X159950946Y-75690484D01*
X159942182Y-75694949D01*
X159770213Y-75819890D01*
X159619890Y-75970213D01*
X159494951Y-76142179D01*
X159398444Y-76331585D01*
X159398443Y-76331587D01*
X159398443Y-76331588D01*
X159389099Y-76360345D01*
X159332753Y-76533760D01*
X159299500Y-76743713D01*
X159299500Y-76956286D01*
X159332004Y-77161511D01*
X159332754Y-77166243D01*
X159375944Y-77299169D01*
X159398444Y-77368414D01*
X159494951Y-77557820D01*
X159619890Y-77729786D01*
X159770213Y-77880109D01*
X159942179Y-78005048D01*
X159942181Y-78005049D01*
X159942184Y-78005051D01*
X160131588Y-78101557D01*
X160333757Y-78167246D01*
X160543713Y-78200500D01*
X160543714Y-78200500D01*
X160756286Y-78200500D01*
X160756287Y-78200500D01*
X160966243Y-78167246D01*
X161168412Y-78101557D01*
X161357816Y-78005051D01*
X161379789Y-77989086D01*
X161529786Y-77880109D01*
X161529788Y-77880106D01*
X161529792Y-77880104D01*
X161680104Y-77729792D01*
X161680106Y-77729788D01*
X161680109Y-77729786D01*
X161805048Y-77557820D01*
X161805047Y-77557820D01*
X161805051Y-77557816D01*
X161809514Y-77549054D01*
X161857488Y-77498259D01*
X161925308Y-77481463D01*
X161991444Y-77503999D01*
X162030484Y-77549054D01*
X162034591Y-77557115D01*
X162034951Y-77557820D01*
X162159890Y-77729786D01*
X162310213Y-77880109D01*
X162482179Y-78005048D01*
X162482181Y-78005049D01*
X162482184Y-78005051D01*
X162671588Y-78101557D01*
X162873757Y-78167246D01*
X163083713Y-78200500D01*
X163083714Y-78200500D01*
X163296286Y-78200500D01*
X163296287Y-78200500D01*
X163506243Y-78167246D01*
X163708412Y-78101557D01*
X163897816Y-78005051D01*
X163919789Y-77989086D01*
X164069786Y-77880109D01*
X164069788Y-77880106D01*
X164069792Y-77880104D01*
X164220104Y-77729792D01*
X164220106Y-77729788D01*
X164220109Y-77729786D01*
X164345048Y-77557820D01*
X164345047Y-77557820D01*
X164345051Y-77557816D01*
X164441557Y-77368412D01*
X164507246Y-77166243D01*
X164540500Y-76956287D01*
X164540500Y-76743713D01*
X164507246Y-76533757D01*
X164441557Y-76331588D01*
X164345051Y-76142184D01*
X164345049Y-76142181D01*
X164345048Y-76142179D01*
X164220109Y-75970213D01*
X164069786Y-75819890D01*
X163897820Y-75694951D01*
X163897115Y-75694591D01*
X163889054Y-75690485D01*
X163838259Y-75642512D01*
X163821463Y-75574692D01*
X163843999Y-75508556D01*
X163889054Y-75469515D01*
X163897816Y-75465051D01*
X163959432Y-75420285D01*
X164069786Y-75340109D01*
X164069788Y-75340106D01*
X164069792Y-75340104D01*
X164220104Y-75189792D01*
X164220106Y-75189788D01*
X164220109Y-75189786D01*
X164329086Y-75039789D01*
X164345051Y-75017816D01*
X164441557Y-74828412D01*
X164507246Y-74626243D01*
X164540500Y-74416287D01*
X164540500Y-74203713D01*
X164507246Y-73993757D01*
X164441557Y-73791588D01*
X164345051Y-73602184D01*
X164345049Y-73602181D01*
X164345048Y-73602179D01*
X164220109Y-73430213D01*
X164069786Y-73279890D01*
X163897817Y-73154949D01*
X163888504Y-73150204D01*
X163837707Y-73102230D01*
X163820912Y-73034409D01*
X163843449Y-72968274D01*
X163888507Y-72929232D01*
X163897558Y-72924620D01*
X164069459Y-72799727D01*
X164069464Y-72799723D01*
X164219723Y-72649464D01*
X164219727Y-72649459D01*
X164344620Y-72477557D01*
X164441095Y-72288217D01*
X164506757Y-72086129D01*
X164506757Y-72086126D01*
X164517231Y-72020000D01*
X163623012Y-72020000D01*
X163655925Y-71962993D01*
X163690000Y-71835826D01*
X163690000Y-71704174D01*
X163655925Y-71577007D01*
X163623012Y-71520000D01*
X164517231Y-71520000D01*
X164506757Y-71453873D01*
X164506757Y-71453870D01*
X164441095Y-71251782D01*
X164344620Y-71062442D01*
X164219727Y-70890540D01*
X164219723Y-70890535D01*
X164069464Y-70740276D01*
X164069459Y-70740272D01*
X163897557Y-70615379D01*
X163708215Y-70518903D01*
X163506124Y-70453241D01*
X163440000Y-70442768D01*
X163440000Y-71336988D01*
X163382993Y-71304075D01*
X163255826Y-71270000D01*
X163124174Y-71270000D01*
X162997007Y-71304075D01*
X162940000Y-71336988D01*
X162940000Y-70442768D01*
X162939999Y-70442768D01*
X162873875Y-70453241D01*
X162671784Y-70518903D01*
X162482442Y-70615379D01*
X162310541Y-70740271D01*
X162196865Y-70853947D01*
X162135542Y-70887431D01*
X162065850Y-70882447D01*
X162009917Y-70840575D01*
X161993002Y-70809598D01*
X161988585Y-70797756D01*
X161943796Y-70677669D01*
X161943795Y-70677668D01*
X161943793Y-70677664D01*
X161857547Y-70562455D01*
X161857544Y-70562452D01*
X161742335Y-70476206D01*
X161742328Y-70476202D01*
X161607482Y-70425908D01*
X161607483Y-70425908D01*
X161547883Y-70419501D01*
X161547881Y-70419500D01*
X161547873Y-70419500D01*
X161547864Y-70419500D01*
X159752129Y-70419500D01*
X159752123Y-70419501D01*
X159692516Y-70425908D01*
X159557671Y-70476202D01*
X159557664Y-70476206D01*
X159442455Y-70562452D01*
X159442452Y-70562455D01*
X159356206Y-70677664D01*
X159356202Y-70677671D01*
X159305908Y-70812517D01*
X159299501Y-70872116D01*
X159299500Y-70872135D01*
X157171400Y-70872135D01*
X157171400Y-70616800D01*
X155669400Y-70616800D01*
X155669400Y-72118800D01*
X154671400Y-72118800D01*
X154671400Y-70616800D01*
X153169400Y-70616800D01*
X153169400Y-72118800D01*
X149125410Y-72118800D01*
X149138302Y-72105908D01*
X149242322Y-71950231D01*
X149313973Y-71777251D01*
X149350500Y-71593616D01*
X149350500Y-71406384D01*
X149313973Y-71222749D01*
X149242322Y-71049769D01*
X149242321Y-71049768D01*
X149242318Y-71049762D01*
X149138302Y-70894092D01*
X149138299Y-70894088D01*
X149005911Y-70761700D01*
X149005907Y-70761697D01*
X148850237Y-70657681D01*
X148850228Y-70657676D01*
X148677251Y-70586027D01*
X148677243Y-70586025D01*
X148493620Y-70549500D01*
X148493616Y-70549500D01*
X148306384Y-70549500D01*
X148306379Y-70549500D01*
X148122756Y-70586025D01*
X148122748Y-70586027D01*
X147949771Y-70657676D01*
X147949762Y-70657681D01*
X147794092Y-70761697D01*
X147794088Y-70761700D01*
X147661700Y-70894088D01*
X147661697Y-70894092D01*
X147557681Y-71049762D01*
X147557676Y-71049771D01*
X147486027Y-71222748D01*
X147486025Y-71222756D01*
X147449500Y-71406379D01*
X146451500Y-71406379D01*
X146451500Y-71381882D01*
X146451649Y-71375800D01*
X146453455Y-71339025D01*
X146453903Y-71332954D01*
X146458706Y-71284185D01*
X146459451Y-71278142D01*
X146464855Y-71241714D01*
X146465896Y-71235719D01*
X146511985Y-71004013D01*
X146513318Y-70998076D01*
X146522267Y-70962348D01*
X146523891Y-70956478D01*
X146538118Y-70909582D01*
X146540027Y-70903803D01*
X146552430Y-70869141D01*
X146554620Y-70863465D01*
X146645021Y-70645217D01*
X146647487Y-70639654D01*
X146658296Y-70616800D01*
X145669400Y-70616800D01*
X145669400Y-70638556D01*
X140821444Y-70638556D01*
X140775237Y-70607681D01*
X140775228Y-70607676D01*
X140602251Y-70536027D01*
X140602243Y-70536025D01*
X140418620Y-70499500D01*
X140418616Y-70499500D01*
X140231384Y-70499500D01*
X140231379Y-70499500D01*
X140047756Y-70536025D01*
X140047748Y-70536027D01*
X139874771Y-70607676D01*
X139874762Y-70607681D01*
X139719092Y-70711697D01*
X139719088Y-70711700D01*
X139586700Y-70844088D01*
X139586697Y-70844092D01*
X139482681Y-70999762D01*
X139482676Y-70999771D01*
X139411027Y-71172748D01*
X139411025Y-71172756D01*
X139374500Y-71356379D01*
X136108503Y-71356379D01*
X136073920Y-71349500D01*
X136073918Y-71349500D01*
X135926082Y-71349500D01*
X135926080Y-71349500D01*
X135781092Y-71378340D01*
X135781082Y-71378343D01*
X135644511Y-71434912D01*
X135644498Y-71434919D01*
X135521584Y-71517048D01*
X135521580Y-71517051D01*
X135417051Y-71621580D01*
X135417048Y-71621584D01*
X135334919Y-71744498D01*
X135332046Y-71749875D01*
X135330359Y-71748973D01*
X135292072Y-71796470D01*
X135225774Y-71818524D01*
X135197177Y-71816219D01*
X135074920Y-71791900D01*
X135074918Y-71791900D01*
X134927082Y-71791900D01*
X134927080Y-71791900D01*
X134782092Y-71820740D01*
X134782082Y-71820743D01*
X134645511Y-71877312D01*
X134645498Y-71877319D01*
X134522584Y-71959448D01*
X134522580Y-71959451D01*
X134418051Y-72063980D01*
X134418048Y-72063984D01*
X134335919Y-72186898D01*
X134335912Y-72186911D01*
X134279343Y-72323482D01*
X134279340Y-72323492D01*
X134250500Y-72468479D01*
X134250500Y-72468482D01*
X134250500Y-72616318D01*
X134250500Y-72616320D01*
X134250499Y-72616320D01*
X123866408Y-72616320D01*
X123848354Y-72567913D01*
X123848350Y-72567906D01*
X123762190Y-72452812D01*
X123762187Y-72452809D01*
X123647093Y-72366649D01*
X123647086Y-72366645D01*
X123512379Y-72316403D01*
X123512372Y-72316401D01*
X123452844Y-72310000D01*
X122805000Y-72310000D01*
X122805000Y-73226988D01*
X122747993Y-73194075D01*
X122620826Y-73160000D01*
X122489174Y-73160000D01*
X122362007Y-73194075D01*
X122305000Y-73226988D01*
X122305000Y-72310000D01*
X121657155Y-72310000D01*
X121597627Y-72316401D01*
X121597620Y-72316403D01*
X121462913Y-72366645D01*
X121462906Y-72366649D01*
X121347812Y-72452809D01*
X121347809Y-72452812D01*
X121261649Y-72567906D01*
X121261645Y-72567913D01*
X121211403Y-72702620D01*
X121211401Y-72702627D01*
X121205000Y-72762155D01*
X121205000Y-73410000D01*
X122121988Y-73410000D01*
X122089075Y-73467007D01*
X122055000Y-73594174D01*
X122055000Y-73725826D01*
X122089075Y-73852993D01*
X122121988Y-73910000D01*
X121205000Y-73910000D01*
X121205000Y-74557844D01*
X121211401Y-74617372D01*
X121211403Y-74617379D01*
X121261645Y-74752086D01*
X121261649Y-74752093D01*
X121347809Y-74867187D01*
X121347812Y-74867190D01*
X121462906Y-74953350D01*
X121462913Y-74953354D01*
X121594470Y-75002422D01*
X121650404Y-75044293D01*
X121674821Y-75109758D01*
X121659969Y-75178031D01*
X121638819Y-75206285D01*
X121524889Y-75320215D01*
X121399951Y-75492179D01*
X121303444Y-75681585D01*
X121237753Y-75883760D01*
X121212983Y-76040151D01*
X121204500Y-76093713D01*
X120421400Y-76093713D01*
X120421400Y-72118800D01*
X125920997Y-72118800D01*
X127171400Y-72118800D01*
X129024328Y-72118800D01*
X129671400Y-72118800D01*
X129671400Y-71558774D01*
X133169400Y-71558774D01*
X133169400Y-72118800D01*
X133302504Y-72118800D01*
X133305300Y-72104746D01*
X133306634Y-72098804D01*
X133315584Y-72063079D01*
X133317207Y-72057216D01*
X133331433Y-72010322D01*
X133333342Y-72004542D01*
X133345745Y-71969880D01*
X133347935Y-71964205D01*
X133423259Y-71782355D01*
X133425724Y-71776792D01*
X133441464Y-71743511D01*
X133444201Y-71738075D01*
X133467302Y-71694854D01*
X133470302Y-71689558D01*
X133489237Y-71657966D01*
X133492494Y-71652822D01*
X133601855Y-71489152D01*
X133605358Y-71484178D01*
X133627291Y-71454604D01*
X133631037Y-71449804D01*
X133662126Y-71411922D01*
X133666100Y-71407315D01*
X133690831Y-71380028D01*
X133695029Y-71375619D01*
X133834219Y-71236429D01*
X133838628Y-71232231D01*
X133865915Y-71207500D01*
X133870522Y-71203526D01*
X133908404Y-71172437D01*
X133913204Y-71168691D01*
X133942778Y-71146758D01*
X133947752Y-71143255D01*
X134111422Y-71033894D01*
X134116566Y-71030637D01*
X134148158Y-71011702D01*
X134153454Y-71008702D01*
X134196675Y-70985601D01*
X134202111Y-70982864D01*
X134235392Y-70967124D01*
X134240955Y-70964659D01*
X134422805Y-70889335D01*
X134428480Y-70887145D01*
X134463142Y-70874742D01*
X134468922Y-70872833D01*
X134515816Y-70858607D01*
X134521679Y-70856984D01*
X134557404Y-70848034D01*
X134563346Y-70846700D01*
X134671400Y-70825206D01*
X134671400Y-70616800D01*
X133448500Y-70616800D01*
X133448500Y-70668118D01*
X133448351Y-70674200D01*
X133446545Y-70710975D01*
X133446097Y-70717046D01*
X133441294Y-70765815D01*
X133440549Y-70771858D01*
X133435145Y-70808286D01*
X133434104Y-70814281D01*
X133388015Y-71045987D01*
X133386682Y-71051924D01*
X133377733Y-71087652D01*
X133376109Y-71093522D01*
X133361882Y-71140418D01*
X133359973Y-71146197D01*
X133347570Y-71180859D01*
X133345380Y-71186535D01*
X133254979Y-71404783D01*
X133252513Y-71410346D01*
X133236773Y-71443626D01*
X133234037Y-71449061D01*
X133210936Y-71492282D01*
X133207936Y-71497578D01*
X133189001Y-71529170D01*
X133185744Y-71534314D01*
X133169400Y-71558774D01*
X129671400Y-71558774D01*
X129671400Y-71227045D01*
X129654620Y-71186535D01*
X129652430Y-71180859D01*
X129640027Y-71146197D01*
X129638118Y-71140418D01*
X129623891Y-71093522D01*
X129622267Y-71087652D01*
X129613318Y-71051924D01*
X129611985Y-71045987D01*
X129565896Y-70814281D01*
X129564855Y-70808286D01*
X129559451Y-70771858D01*
X129558706Y-70765815D01*
X129553903Y-70717046D01*
X129553455Y-70710975D01*
X129551649Y-70674200D01*
X129551500Y-70668118D01*
X129551500Y-70616800D01*
X129387708Y-70616800D01*
X129437152Y-70768972D01*
X129441694Y-70787893D01*
X129472473Y-70982225D01*
X129474000Y-71001623D01*
X129474000Y-71198377D01*
X129472473Y-71217775D01*
X129441694Y-71412107D01*
X129437152Y-71431028D01*
X129376351Y-71618152D01*
X129368905Y-71636127D01*
X129279581Y-71811437D01*
X129269414Y-71828029D01*
X129153764Y-71987206D01*
X129141127Y-72002001D01*
X129024328Y-72118800D01*
X127171400Y-72118800D01*
X127171400Y-72114528D01*
X127058873Y-72002001D01*
X127046236Y-71987206D01*
X126930586Y-71828029D01*
X126920419Y-71811437D01*
X126831095Y-71636127D01*
X126823649Y-71618152D01*
X126762848Y-71431028D01*
X126758306Y-71412107D01*
X126727527Y-71217775D01*
X126726000Y-71198377D01*
X126726000Y-71001623D01*
X126727527Y-70982225D01*
X126758306Y-70787893D01*
X126762848Y-70768972D01*
X126812292Y-70616800D01*
X126170531Y-70616800D01*
X126209104Y-70810719D01*
X126210145Y-70816714D01*
X126215549Y-70853142D01*
X126216294Y-70859185D01*
X126221097Y-70907954D01*
X126221545Y-70914025D01*
X126223351Y-70950800D01*
X126223500Y-70956882D01*
X126223500Y-71193118D01*
X126223351Y-71199200D01*
X126221545Y-71235975D01*
X126221097Y-71242046D01*
X126216294Y-71290815D01*
X126215549Y-71296858D01*
X126210145Y-71333286D01*
X126209104Y-71339281D01*
X126163015Y-71570987D01*
X126161682Y-71576924D01*
X126152733Y-71612652D01*
X126151109Y-71618522D01*
X126136882Y-71665418D01*
X126134973Y-71671197D01*
X126122570Y-71705859D01*
X126120380Y-71711535D01*
X126029979Y-71929783D01*
X126027513Y-71935346D01*
X126011773Y-71968626D01*
X126009037Y-71974061D01*
X125985936Y-72017282D01*
X125982936Y-72022578D01*
X125964001Y-72054170D01*
X125960744Y-72059314D01*
X125920997Y-72118800D01*
X120421400Y-72118800D01*
X120421400Y-70981379D01*
X123324500Y-70981379D01*
X123324500Y-71168620D01*
X123361025Y-71352243D01*
X123361027Y-71352251D01*
X123432676Y-71525228D01*
X123432681Y-71525237D01*
X123536697Y-71680907D01*
X123536700Y-71680911D01*
X123669088Y-71813299D01*
X123669092Y-71813302D01*
X123824762Y-71917318D01*
X123824768Y-71917321D01*
X123824769Y-71917322D01*
X123997749Y-71988973D01*
X124166694Y-72022578D01*
X124181379Y-72025499D01*
X124181383Y-72025500D01*
X124181384Y-72025500D01*
X124368617Y-72025500D01*
X124368618Y-72025499D01*
X124552251Y-71988973D01*
X124725231Y-71917322D01*
X124880908Y-71813302D01*
X125013302Y-71680908D01*
X125117322Y-71525231D01*
X125188973Y-71352251D01*
X125225500Y-71168616D01*
X125225500Y-70981384D01*
X125188973Y-70797749D01*
X125117322Y-70624769D01*
X125117321Y-70624768D01*
X125117318Y-70624762D01*
X125013302Y-70469092D01*
X125013299Y-70469088D01*
X125000590Y-70456379D01*
X130549500Y-70456379D01*
X130549500Y-70643620D01*
X130586025Y-70827243D01*
X130586027Y-70827251D01*
X130657676Y-71000228D01*
X130657681Y-71000237D01*
X130761697Y-71155907D01*
X130761700Y-71155911D01*
X130894088Y-71288299D01*
X130894092Y-71288302D01*
X131049762Y-71392318D01*
X131049771Y-71392323D01*
X131085965Y-71407315D01*
X131222749Y-71463973D01*
X131365069Y-71492282D01*
X131406379Y-71500499D01*
X131406383Y-71500500D01*
X131406384Y-71500500D01*
X131593617Y-71500500D01*
X131593618Y-71500499D01*
X131777251Y-71463973D01*
X131950231Y-71392322D01*
X132105908Y-71288302D01*
X132238302Y-71155908D01*
X132342322Y-71000231D01*
X132413973Y-70827251D01*
X132450500Y-70643616D01*
X132450500Y-70456384D01*
X132413973Y-70272749D01*
X132342322Y-70099769D01*
X132342321Y-70099768D01*
X132342318Y-70099762D01*
X132238302Y-69944092D01*
X132238299Y-69944088D01*
X132105911Y-69811700D01*
X132105907Y-69811697D01*
X131950237Y-69707681D01*
X131950228Y-69707676D01*
X131777251Y-69636027D01*
X131777243Y-69636025D01*
X131593620Y-69599500D01*
X131593616Y-69599500D01*
X131406384Y-69599500D01*
X131406379Y-69599500D01*
X131222756Y-69636025D01*
X131222748Y-69636027D01*
X131049771Y-69707676D01*
X131049762Y-69707681D01*
X130894092Y-69811697D01*
X130894088Y-69811700D01*
X130761700Y-69944088D01*
X130761697Y-69944092D01*
X130657681Y-70099762D01*
X130657676Y-70099771D01*
X130586027Y-70272748D01*
X130586025Y-70272756D01*
X130549500Y-70456379D01*
X125000590Y-70456379D01*
X124880911Y-70336700D01*
X124880907Y-70336697D01*
X124725237Y-70232681D01*
X124725228Y-70232676D01*
X124552251Y-70161027D01*
X124552243Y-70161025D01*
X124368620Y-70124500D01*
X124368616Y-70124500D01*
X124181384Y-70124500D01*
X124181379Y-70124500D01*
X123997756Y-70161025D01*
X123997748Y-70161027D01*
X123824771Y-70232676D01*
X123824762Y-70232681D01*
X123669092Y-70336697D01*
X123669088Y-70336700D01*
X123536700Y-70469088D01*
X123536697Y-70469092D01*
X123432681Y-70624762D01*
X123432676Y-70624771D01*
X123361027Y-70797748D01*
X123361025Y-70797756D01*
X123324500Y-70981379D01*
X120421400Y-70981379D01*
X120421400Y-70434762D01*
X120441085Y-70367723D01*
X120457719Y-70347081D01*
X121186000Y-69618800D01*
X125669400Y-69618800D01*
X127171400Y-69618800D01*
X128169400Y-69618800D01*
X129671400Y-69618800D01*
X129671400Y-69541226D01*
X133169400Y-69541226D01*
X133185744Y-69565687D01*
X133189001Y-69570830D01*
X133207936Y-69602422D01*
X133210936Y-69607718D01*
X133216859Y-69618800D01*
X134671400Y-69618800D01*
X135669400Y-69618800D01*
X137171400Y-69618800D01*
X138169400Y-69618800D01*
X139654232Y-69618800D01*
X139671400Y-69611688D01*
X139671400Y-69531832D01*
X140669400Y-69531832D01*
X140820987Y-69561985D01*
X140826924Y-69563318D01*
X140862652Y-69572267D01*
X140868522Y-69573891D01*
X140915418Y-69588118D01*
X140921197Y-69590027D01*
X140955859Y-69602430D01*
X140961535Y-69604620D01*
X140995768Y-69618800D01*
X142171400Y-69618800D01*
X143169400Y-69618800D01*
X144671400Y-69618800D01*
X145669400Y-69618800D01*
X147171400Y-69618800D01*
X147171400Y-69560747D01*
X148169400Y-69560747D01*
X148178142Y-69559451D01*
X148184185Y-69558706D01*
X148232954Y-69553903D01*
X148239025Y-69553455D01*
X148275800Y-69551649D01*
X148281882Y-69551500D01*
X148518118Y-69551500D01*
X148524200Y-69551649D01*
X148560975Y-69553455D01*
X148567046Y-69553903D01*
X148615815Y-69558706D01*
X148621858Y-69559451D01*
X148658286Y-69564855D01*
X148664281Y-69565896D01*
X148895987Y-69611985D01*
X148901924Y-69613318D01*
X148923810Y-69618800D01*
X149671400Y-69618800D01*
X150669400Y-69618800D01*
X152171400Y-69618800D01*
X153169400Y-69618800D01*
X154671400Y-69618800D01*
X155669400Y-69618800D01*
X157171400Y-69618800D01*
X158169400Y-69618800D01*
X159045670Y-69618800D01*
X159048077Y-69617372D01*
X159110667Y-69583195D01*
X159118581Y-69579233D01*
X159167318Y-69556975D01*
X159175498Y-69553587D01*
X159372982Y-69479931D01*
X159380321Y-69477452D01*
X159425172Y-69463847D01*
X159432648Y-69461832D01*
X159493363Y-69447484D01*
X159500955Y-69445939D01*
X159547160Y-69438028D01*
X159554833Y-69436959D01*
X159658755Y-69425788D01*
X159662064Y-69425477D01*
X159671400Y-69424725D01*
X159671400Y-69421500D01*
X160669400Y-69421500D01*
X161561248Y-69421500D01*
X161564572Y-69421545D01*
X161584673Y-69422084D01*
X161587993Y-69422217D01*
X161614680Y-69423649D01*
X161617989Y-69423871D01*
X161637982Y-69425481D01*
X161641285Y-69425792D01*
X161745175Y-69436962D01*
X161752843Y-69438029D01*
X161799029Y-69445936D01*
X161806619Y-69447481D01*
X161867330Y-69461826D01*
X161874809Y-69463842D01*
X161919672Y-69477450D01*
X161927012Y-69479929D01*
X162124502Y-69553587D01*
X162132682Y-69556975D01*
X162171400Y-69574657D01*
X162171400Y-69043600D01*
X160669400Y-69043600D01*
X160669400Y-69421500D01*
X159671400Y-69421500D01*
X159671400Y-69043600D01*
X158169400Y-69043600D01*
X158169400Y-69618800D01*
X157171400Y-69618800D01*
X157171400Y-69043600D01*
X155669400Y-69043600D01*
X155669400Y-69618800D01*
X154671400Y-69618800D01*
X154671400Y-69043600D01*
X153169400Y-69043600D01*
X153169400Y-69618800D01*
X152171400Y-69618800D01*
X152171400Y-69043600D01*
X150669400Y-69043600D01*
X150669400Y-69618800D01*
X149671400Y-69618800D01*
X149671400Y-69043600D01*
X148169400Y-69043600D01*
X148169400Y-69560747D01*
X147171400Y-69560747D01*
X147171400Y-69043600D01*
X145669400Y-69043600D01*
X145669400Y-69618800D01*
X144671400Y-69618800D01*
X144671400Y-69043600D01*
X143169400Y-69043600D01*
X143169400Y-69618800D01*
X142171400Y-69618800D01*
X142171400Y-69043600D01*
X140669400Y-69043600D01*
X140669400Y-69531832D01*
X139671400Y-69531832D01*
X139671400Y-69043600D01*
X138169400Y-69043600D01*
X138169400Y-69618800D01*
X137171400Y-69618800D01*
X137171400Y-69043600D01*
X135669400Y-69043600D01*
X135669400Y-69618800D01*
X134671400Y-69618800D01*
X134671400Y-69043600D01*
X133169400Y-69043600D01*
X133169400Y-69541226D01*
X129671400Y-69541226D01*
X129671400Y-69043600D01*
X128169400Y-69043600D01*
X128169400Y-69618800D01*
X127171400Y-69618800D01*
X127171400Y-69043600D01*
X125669400Y-69043600D01*
X125669400Y-69618800D01*
X121186000Y-69618800D01*
X122848881Y-67955919D01*
X122910204Y-67922434D01*
X122936562Y-67919600D01*
X162509200Y-67919600D01*
X162523681Y-67905119D01*
X162585004Y-67871634D01*
X162611362Y-67868800D01*
X162788038Y-67868800D01*
X162855077Y-67888485D01*
G37*
%TD.AperFunction*%
%TD*%
M02*
