%TF.GenerationSoftware,KiCad,Pcbnew,9.0.0*%
%TF.CreationDate,2025-03-11T16:24:46+11:00*%
%TF.ProjectId,MCU Datalogger,4d435520-4461-4746-916c-6f676765722e,1*%
%TF.SameCoordinates,Original*%
%TF.FileFunction,Copper,L1,Top*%
%TF.FilePolarity,Positive*%
%FSLAX46Y46*%
G04 Gerber Fmt 4.6, Leading zero omitted, Abs format (unit mm)*
G04 Created by KiCad (PCBNEW 9.0.0) date 2025-03-11 16:24:46*
%MOMM*%
%LPD*%
G01*
G04 APERTURE LIST*
G04 Aperture macros list*
%AMRoundRect*
0 Rectangle with rounded corners*
0 $1 Rounding radius*
0 $2 $3 $4 $5 $6 $7 $8 $9 X,Y pos of 4 corners*
0 Add a 4 corners polygon primitive as box body*
4,1,4,$2,$3,$4,$5,$6,$7,$8,$9,$2,$3,0*
0 Add four circle primitives for the rounded corners*
1,1,$1+$1,$2,$3*
1,1,$1+$1,$4,$5*
1,1,$1+$1,$6,$7*
1,1,$1+$1,$8,$9*
0 Add four rect primitives between the rounded corners*
20,1,$1+$1,$2,$3,$4,$5,0*
20,1,$1+$1,$4,$5,$6,$7,0*
20,1,$1+$1,$6,$7,$8,$9,0*
20,1,$1+$1,$8,$9,$2,$3,0*%
G04 Aperture macros list end*
%TA.AperFunction,SMDPad,CuDef*%
%ADD10R,1.970000X0.590000*%
%TD*%
%TA.AperFunction,ComponentPad*%
%ADD11R,1.700000X1.700000*%
%TD*%
%TA.AperFunction,ComponentPad*%
%ADD12O,1.700000X1.700000*%
%TD*%
%TA.AperFunction,SMDPad,CuDef*%
%ADD13RoundRect,0.250000X-0.250000X-0.475000X0.250000X-0.475000X0.250000X0.475000X-0.250000X0.475000X0*%
%TD*%
%TA.AperFunction,SMDPad,CuDef*%
%ADD14RoundRect,0.250000X0.262500X0.450000X-0.262500X0.450000X-0.262500X-0.450000X0.262500X-0.450000X0*%
%TD*%
%TA.AperFunction,SMDPad,CuDef*%
%ADD15RoundRect,0.250000X-0.262500X-0.450000X0.262500X-0.450000X0.262500X0.450000X-0.262500X0.450000X0*%
%TD*%
%TA.AperFunction,SMDPad,CuDef*%
%ADD16RoundRect,0.243750X-0.243750X-0.456250X0.243750X-0.456250X0.243750X0.456250X-0.243750X0.456250X0*%
%TD*%
%TA.AperFunction,SMDPad,CuDef*%
%ADD17RoundRect,0.150000X-0.650000X-0.150000X0.650000X-0.150000X0.650000X0.150000X-0.650000X0.150000X0*%
%TD*%
%TA.AperFunction,SMDPad,CuDef*%
%ADD18R,3.500000X2.400000*%
%TD*%
%TA.AperFunction,SMDPad,CuDef*%
%ADD19R,2.400000X3.500000*%
%TD*%
%TA.AperFunction,SMDPad,CuDef*%
%ADD20R,1.500000X0.550000*%
%TD*%
%TA.AperFunction,SMDPad,CuDef*%
%ADD21R,0.550000X1.500000*%
%TD*%
%TA.AperFunction,SMDPad,CuDef*%
%ADD22RoundRect,0.250000X0.250000X0.475000X-0.250000X0.475000X-0.250000X-0.475000X0.250000X-0.475000X0*%
%TD*%
%TA.AperFunction,ViaPad*%
%ADD23C,0.500000*%
%TD*%
%TA.AperFunction,ViaPad*%
%ADD24C,0.900000*%
%TD*%
%TA.AperFunction,Conductor*%
%ADD25C,0.150000*%
%TD*%
%TA.AperFunction,Conductor*%
%ADD26C,0.350000*%
%TD*%
G04 APERTURE END LIST*
D10*
%TO.P,U1,1,X1*%
%TO.N,Net-(U1-X1)*%
X127700000Y-81280000D03*
%TO.P,U1,2,X2*%
%TO.N,Net-(U1-X2)*%
X127700000Y-82550000D03*
%TO.P,U1,3,~{INTA}*%
%TO.N,Net-(U1-~{INTA})*%
X127700000Y-83820000D03*
%TO.P,U1,4,GND*%
%TO.N,GND*%
X127700000Y-85090000D03*
%TO.P,U1,5,SDA*%
%TO.N,/SDA*%
X132650000Y-85090000D03*
%TO.P,U1,6,SCL*%
%TO.N,/SCL*%
X132650000Y-83820000D03*
%TO.P,U1,7,SQW/~{INT}*%
%TO.N,Net-(U1-SQW{slash}~{INT})*%
X132650000Y-82550000D03*
%TO.P,U1,8,VCC*%
%TO.N,/Vcc*%
X132650000Y-81280000D03*
%TD*%
D11*
%TO.P,J4,1,Pin_1*%
%TO.N,/MOSI*%
X160650000Y-71770000D03*
D12*
%TO.P,J4,2,Pin_2*%
%TO.N,/Vcc*%
X163190000Y-71770000D03*
%TO.P,J4,3,Pin_3*%
%TO.N,/SCK*%
X160650000Y-74310000D03*
%TO.P,J4,4,Pin_4*%
%TO.N,/MISO*%
X163190000Y-74310000D03*
%TO.P,J4,5,Pin_5*%
%TO.N,/RESET*%
X160650000Y-76850000D03*
%TO.P,J4,6,Pin_6*%
%TO.N,GND*%
X163190000Y-76850000D03*
%TD*%
D11*
%TO.P,J2,1,Pin_1*%
%TO.N,/D2*%
X125105000Y-92075000D03*
D12*
%TO.P,J2,2,Pin_2*%
%TO.N,/D3*%
X127645000Y-92075000D03*
%TO.P,J2,3,Pin_3*%
%TO.N,/D4*%
X130185000Y-92075000D03*
%TO.P,J2,4,Pin_4*%
%TO.N,/D5*%
X132725000Y-92075000D03*
%TO.P,J2,5,Pin_5*%
%TO.N,/D6*%
X135265000Y-92075000D03*
%TO.P,J2,6,Pin_6*%
%TO.N,/D7*%
X137805000Y-92075000D03*
%TO.P,J2,7,Pin_7*%
%TO.N,/D8*%
X140345000Y-92075000D03*
%TO.P,J2,8,Pin_8*%
%TO.N,GND*%
X142885000Y-92075000D03*
%TO.P,J2,9,Pin_9*%
%TO.N,/Vcc*%
X145425000Y-92075000D03*
%TD*%
D13*
%TO.P,C5,1*%
%TO.N,/Vcc*%
X145100000Y-69850000D03*
%TO.P,C5,2*%
%TO.N,GND*%
X147000000Y-69850000D03*
%TD*%
D14*
%TO.P,R6,1*%
%TO.N,/Vcc*%
X157122500Y-78105000D03*
%TO.P,R6,2*%
%TO.N,/RESET*%
X155297500Y-78105000D03*
%TD*%
%TO.P,R7,1*%
%TO.N,Net-(D2-K)*%
X152677500Y-75565000D03*
%TO.P,R7,2*%
%TO.N,GND*%
X150852500Y-75565000D03*
%TD*%
D15*
%TO.P,R2,1*%
%TO.N,/Vcc*%
X132437500Y-88265000D03*
%TO.P,R2,2*%
%TO.N,Net-(U1-SQW{slash}~{INT})*%
X134262500Y-88265000D03*
%TD*%
D16*
%TO.P,D2,1,K*%
%TO.N,Net-(D2-K)*%
X149557500Y-69850000D03*
%TO.P,D2,2,A*%
%TO.N,/Vcc*%
X151432500Y-69850000D03*
%TD*%
D17*
%TO.P,U3,1,A0*%
%TO.N,/Vcc*%
X126575000Y-74930000D03*
%TO.P,U3,2,A1*%
%TO.N,Net-(U3-A1)*%
X126575000Y-76200000D03*
%TO.P,U3,3,A2*%
%TO.N,/Vcc*%
X126575000Y-77470000D03*
%TO.P,U3,4,GND*%
%TO.N,GND*%
X126575000Y-78740000D03*
%TO.P,U3,5,SDA*%
%TO.N,/SDA*%
X133775000Y-78740000D03*
%TO.P,U3,6,SCL*%
%TO.N,/SCL*%
X133775000Y-77470000D03*
%TO.P,U3,7,WP*%
%TO.N,Net-(U3-A1)*%
X133775000Y-76200000D03*
%TO.P,U3,8,VCC*%
%TO.N,/Vcc*%
X133775000Y-74930000D03*
%TD*%
D13*
%TO.P,C4,1*%
%TO.N,GND*%
X150835000Y-83185000D03*
%TO.P,C4,2*%
%TO.N,/Abc123*%
X152735000Y-83185000D03*
%TD*%
D14*
%TO.P,R1,1*%
%TO.N,/Vcc*%
X128547500Y-88265000D03*
%TO.P,R1,2*%
%TO.N,Net-(U1-~{INTA})*%
X126722500Y-88265000D03*
%TD*%
D18*
%TO.P,Y2,1,1*%
%TO.N,Net-(U4-PB7)*%
X140910000Y-86360000D03*
%TO.P,Y2,2,2*%
%TO.N,Net-(U4-PB6)*%
X146110000Y-86360000D03*
%TD*%
D19*
%TO.P,Y1,1,1*%
%TO.N,Net-(U1-X2)*%
X122555000Y-86420000D03*
%TO.P,Y1,2,2*%
%TO.N,Net-(U1-X1)*%
X122555000Y-81220000D03*
%TD*%
D13*
%TO.P,C2,1*%
%TO.N,Net-(U4-PB6)*%
X150815000Y-85725000D03*
%TO.P,C2,2*%
%TO.N,GND*%
X152715000Y-85725000D03*
%TD*%
D11*
%TO.P,J1,1,Pin_1*%
%TO.N,GND*%
X163195000Y-80645000D03*
D12*
%TO.P,J1,2,Pin_2*%
%TO.N,/Vcc*%
X163195000Y-83185000D03*
%TO.P,J1,3,Pin_3*%
%TO.N,/SDA*%
X163195000Y-85725000D03*
%TO.P,J1,4,Pin_4*%
%TO.N,/SCL*%
X163195000Y-88265000D03*
%TD*%
D14*
%TO.P,R3,1*%
%TO.N,/Vcc*%
X152677500Y-80645000D03*
%TO.P,R3,2*%
%TO.N,/SCL*%
X150852500Y-80645000D03*
%TD*%
D17*
%TO.P,U2,1,A0*%
%TO.N,/Vcc*%
X126347500Y-68580000D03*
%TO.P,U2,2,A1*%
X126347500Y-69850000D03*
%TO.P,U2,3,A2*%
X126347500Y-71120000D03*
%TO.P,U2,4,GND*%
%TO.N,GND*%
X126347500Y-72390000D03*
%TO.P,U2,5,SDA*%
%TO.N,/SDA*%
X133547500Y-72390000D03*
%TO.P,U2,6,SCL*%
%TO.N,/SCL*%
X133547500Y-71120000D03*
%TO.P,U2,7,WP*%
%TO.N,GND*%
X133547500Y-69850000D03*
%TO.P,U2,8,VCC*%
%TO.N,/Vcc*%
X133547500Y-68580000D03*
%TD*%
D11*
%TO.P,BT1,1,+*%
%TO.N,/Vcc*%
X122555000Y-73660000D03*
D12*
%TO.P,BT1,2,-*%
%TO.N,GND*%
X122555000Y-76200000D03*
%TD*%
D14*
%TO.P,R4,1*%
%TO.N,/Vcc*%
X152677500Y-78105000D03*
%TO.P,R4,2*%
%TO.N,/SDA*%
X150852500Y-78105000D03*
%TD*%
D13*
%TO.P,C3,1*%
%TO.N,GND*%
X140655000Y-69850000D03*
%TO.P,C3,2*%
%TO.N,Net-(U4-PB7)*%
X142555000Y-69850000D03*
%TD*%
D15*
%TO.P,R5,1*%
%TO.N,GND*%
X155297500Y-75565000D03*
%TO.P,R5,2*%
%TO.N,Net-(D1-K)*%
X157122500Y-75565000D03*
%TD*%
D20*
%TO.P,U4,1,PD3*%
%TO.N,/D3*%
X139210000Y-75305000D03*
%TO.P,U4,2,PD4*%
%TO.N,/D4*%
X139210000Y-76105000D03*
%TO.P,U4,3,GND*%
%TO.N,GND*%
X139210000Y-76905000D03*
%TO.P,U4,4,VCC*%
%TO.N,/Vcc*%
X139210000Y-77705000D03*
%TO.P,U4,5,GND*%
%TO.N,GND*%
X139210000Y-78505000D03*
%TO.P,U4,6,VCC*%
%TO.N,unconnected-(U4-VCC-Pad6)*%
X139210000Y-79305000D03*
%TO.P,U4,7,PB6*%
%TO.N,Net-(U4-PB6)*%
X139210000Y-80105000D03*
%TO.P,U4,8,PB7*%
%TO.N,Net-(U4-PB7)*%
X139210000Y-80905000D03*
D21*
%TO.P,U4,9,PD5*%
%TO.N,/D5*%
X140710000Y-82405000D03*
%TO.P,U4,10,PD6*%
%TO.N,/D6*%
X141510000Y-82405000D03*
%TO.P,U4,11,PD7*%
%TO.N,/D7*%
X142310000Y-82405000D03*
%TO.P,U4,12,PB0*%
%TO.N,/D8*%
X143110000Y-82405000D03*
%TO.P,U4,13,PB1*%
%TO.N,unconnected-(U4-PB1-Pad13)*%
X143910000Y-82405000D03*
%TO.P,U4,14,PB2*%
%TO.N,unconnected-(U4-PB2-Pad14)*%
X144710000Y-82405000D03*
%TO.P,U4,15,PB3*%
%TO.N,/MOSI*%
X145510000Y-82405000D03*
%TO.P,U4,16,PB4*%
%TO.N,/MISO*%
X146310000Y-82405000D03*
D20*
%TO.P,U4,17,PB5*%
%TO.N,/SCK*%
X147810000Y-80905000D03*
%TO.P,U4,18,AVCC*%
%TO.N,/Vcc*%
X147810000Y-80105000D03*
%TO.P,U4,19,ADC6*%
%TO.N,unconnected-(U4-ADC6-Pad19)*%
X147810000Y-79305000D03*
%TO.P,U4,20,AREF*%
%TO.N,/Abc123*%
X147810000Y-78505000D03*
%TO.P,U4,21,GND*%
%TO.N,GND*%
X147810000Y-77705000D03*
%TO.P,U4,22,ADC7*%
%TO.N,unconnected-(U4-ADC7-Pad22)*%
X147810000Y-76905000D03*
%TO.P,U4,23,PC0*%
%TO.N,unconnected-(U4-PC0-Pad23)*%
X147810000Y-76105000D03*
%TO.P,U4,24,PC1*%
%TO.N,unconnected-(U4-PC1-Pad24)*%
X147810000Y-75305000D03*
D21*
%TO.P,U4,25,PC2*%
%TO.N,unconnected-(U4-PC2-Pad25)*%
X146310000Y-73805000D03*
%TO.P,U4,26,PC3*%
%TO.N,unconnected-(U4-PC3-Pad26)*%
X145510000Y-73805000D03*
%TO.P,U4,27,PC4*%
%TO.N,/SDA*%
X144710000Y-73805000D03*
%TO.P,U4,28,PC5*%
%TO.N,/SCL*%
X143910000Y-73805000D03*
%TO.P,U4,29,PC6/~{RESET}*%
%TO.N,/RESET*%
X143110000Y-73805000D03*
%TO.P,U4,30,PD0*%
%TO.N,/RX*%
X142310000Y-73805000D03*
%TO.P,U4,31,PD1*%
%TO.N,/TX*%
X141510000Y-73805000D03*
%TO.P,U4,32,PD2*%
%TO.N,/D2*%
X140710000Y-73805000D03*
%TD*%
D16*
%TO.P,D1,1,K*%
%TO.N,Net-(D1-K)*%
X154002500Y-69850000D03*
%TO.P,D1,2,A*%
%TO.N,/SCK*%
X155877500Y-69850000D03*
%TD*%
D11*
%TO.P,J3,1,Pin_1*%
%TO.N,GND*%
X150505000Y-92075000D03*
D12*
%TO.P,J3,2,Pin_2*%
%TO.N,/Vcc*%
X153045000Y-92075000D03*
%TO.P,J3,3,Pin_3*%
%TO.N,/RX*%
X155585000Y-92075000D03*
%TO.P,J3,4,Pin_4*%
%TO.N,/TX*%
X158125000Y-92075000D03*
%TD*%
D22*
%TO.P,C1,1*%
%TO.N,/Vcc*%
X138110000Y-69850000D03*
%TO.P,C1,2*%
%TO.N,GND*%
X136210000Y-69850000D03*
%TD*%
D23*
%TO.N,/SCL*%
X149500000Y-80050000D03*
X143975000Y-75200000D03*
%TO.N,/SCK*%
X148600000Y-81925000D03*
%TO.N,/SCL*%
X136000000Y-72100000D03*
D24*
%TO.N,GND*%
X150700000Y-73825000D03*
X148400000Y-71500000D03*
X140325000Y-71450000D03*
X131500000Y-70550000D03*
%TO.N,/Vcc*%
X131575000Y-69100000D03*
D23*
%TO.N,Net-(U3-A1)*%
X128775000Y-76200000D03*
X132025000Y-75375000D03*
D24*
%TO.N,/Vcc*%
X130475000Y-88275000D03*
X134600000Y-80975000D03*
X135600000Y-75425000D03*
X128550000Y-74775000D03*
%TO.N,GND*%
X124275000Y-71075000D03*
X124700000Y-78550000D03*
%TO.N,/Vcc*%
X128100000Y-71100000D03*
D23*
%TO.N,/MISO*%
X148107400Y-83743800D03*
%TO.N,/MOSI*%
X146710400Y-83947000D03*
%TO.N,/RX*%
X143179800Y-76504800D03*
%TO.N,/TX*%
X143357600Y-77952600D03*
%TO.N,/SDA*%
X132181600Y-79070200D03*
X144754600Y-75895200D03*
X135001000Y-72542400D03*
%TO.N,Net-(U4-PB7)*%
X136753600Y-74625200D03*
X139319000Y-82042000D03*
%TO.N,Net-(U4-PB6)*%
X140919200Y-80340200D03*
X146050000Y-88620600D03*
D24*
%TO.N,/Vcc*%
X145618200Y-79527400D03*
X151450000Y-71625000D03*
X154432000Y-82296000D03*
X128574800Y-77647800D03*
X144424400Y-71221600D03*
X137750000Y-71450000D03*
X141960600Y-78282800D03*
X158242000Y-79933800D03*
%TO.N,GND*%
X145999200Y-77749400D03*
X126187200Y-86055200D03*
X154355800Y-85725000D03*
X141046200Y-76555600D03*
X141300200Y-79425800D03*
X153924000Y-74091800D03*
%TD*%
D25*
%TO.N,Net-(U3-A1)*%
X132875000Y-76200000D02*
X133775000Y-76200000D01*
X132025000Y-75375000D02*
X132050000Y-75375000D01*
X132050000Y-75375000D02*
X132875000Y-76200000D01*
D26*
%TO.N,GND*%
X148400000Y-71500000D02*
X148325000Y-71575000D01*
X147000000Y-71275000D02*
X147000000Y-69850000D01*
X148325000Y-71575000D02*
X147300000Y-71575000D01*
X147300000Y-71575000D02*
X147000000Y-71275000D01*
D25*
%TO.N,/RESET*%
X155297500Y-78105000D02*
X154559000Y-78105000D01*
X154559000Y-78105000D02*
X153314400Y-76860400D01*
X143110000Y-72523400D02*
X143110000Y-73805000D01*
X153314400Y-76860400D02*
X150088600Y-76860400D01*
X149758400Y-76530200D02*
X149758400Y-74218800D01*
X150088600Y-76860400D02*
X149758400Y-76530200D01*
X147764600Y-72225000D02*
X143395600Y-72225000D01*
X143103600Y-72517000D02*
X143110000Y-72523400D01*
X149758400Y-74218800D02*
X147764600Y-72225000D01*
X143395600Y-72225000D02*
X143103600Y-72517000D01*
%TO.N,/SDA*%
X150852500Y-78105000D02*
X150266400Y-78105000D01*
X149402800Y-74396600D02*
X147581200Y-72575000D01*
X150266400Y-78105000D02*
X149402800Y-77241400D01*
X144627600Y-72997400D02*
X144627600Y-73722600D01*
X149402800Y-77241400D02*
X149402800Y-74396600D01*
X147581200Y-72575000D02*
X145050000Y-72575000D01*
X145050000Y-72575000D02*
X144627600Y-72997400D01*
X144627600Y-73722600D02*
X144710000Y-73805000D01*
D26*
%TO.N,/Vcc*%
X126575000Y-74930000D02*
X128395000Y-74930000D01*
X128395000Y-74930000D02*
X128550000Y-74775000D01*
D25*
%TO.N,/SCL*%
X149500000Y-80050000D02*
X150257500Y-80050000D01*
X150257500Y-80050000D02*
X150852500Y-80645000D01*
X143910000Y-75135000D02*
X143975000Y-75200000D01*
X143910000Y-73805000D02*
X143910000Y-75135000D01*
%TO.N,/SCK*%
X147810000Y-81135000D02*
X148600000Y-81925000D01*
X147810000Y-80905000D02*
X147810000Y-81135000D01*
%TO.N,/SCL*%
X135020000Y-71120000D02*
X136000000Y-72100000D01*
X133547500Y-71120000D02*
X135020000Y-71120000D01*
D26*
%TO.N,GND*%
X150852500Y-75565000D02*
X150852500Y-73977500D01*
X150852500Y-73977500D02*
X150700000Y-73825000D01*
%TO.N,/Vcc*%
X151432500Y-69850000D02*
X151432500Y-71607500D01*
X151432500Y-71607500D02*
X151450000Y-71625000D01*
%TO.N,GND*%
X140655000Y-69850000D02*
X140655000Y-71120000D01*
X140655000Y-71120000D02*
X140325000Y-71450000D01*
%TO.N,/Vcc*%
X138110000Y-69850000D02*
X138110000Y-71090000D01*
X138110000Y-71090000D02*
X137750000Y-71450000D01*
D25*
%TO.N,Net-(U4-PB7)*%
X136753600Y-74625200D02*
X136753600Y-74396400D01*
X136753600Y-74396400D02*
X138900000Y-72250000D01*
X138900000Y-72250000D02*
X140957600Y-72250000D01*
X140957600Y-72250000D02*
X142555000Y-70652600D01*
X142555000Y-70652600D02*
X142555000Y-69850000D01*
D26*
%TO.N,GND*%
X133547500Y-69850000D02*
X132200000Y-69850000D01*
X132200000Y-69850000D02*
X131500000Y-70550000D01*
%TO.N,/Vcc*%
X133547500Y-68580000D02*
X132095000Y-68580000D01*
X132095000Y-68580000D02*
X131575000Y-69100000D01*
D25*
%TO.N,Net-(U3-A1)*%
X128775000Y-76200000D02*
X126575000Y-76200000D01*
%TO.N,/SCL*%
X133775000Y-77470000D02*
X133045000Y-77470000D01*
X131325000Y-72800000D02*
X133005000Y-71120000D01*
X133045000Y-77470000D02*
X131325000Y-75750000D01*
X131325000Y-75750000D02*
X131325000Y-72800000D01*
X133005000Y-71120000D02*
X133547500Y-71120000D01*
D26*
%TO.N,/Vcc*%
X133775000Y-74930000D02*
X135105000Y-74930000D01*
X135105000Y-74930000D02*
X135600000Y-75425000D01*
X132650000Y-81280000D02*
X134295000Y-81280000D01*
X134295000Y-81280000D02*
X134600000Y-80975000D01*
%TO.N,GND*%
X126347500Y-72390000D02*
X125590000Y-72390000D01*
X125590000Y-72390000D02*
X124275000Y-71075000D01*
X126575000Y-78740000D02*
X124890000Y-78740000D01*
X124890000Y-78740000D02*
X124700000Y-78550000D01*
%TO.N,/Vcc*%
X126347500Y-71120000D02*
X128080000Y-71120000D01*
X128080000Y-71120000D02*
X128100000Y-71100000D01*
X125196600Y-76050000D02*
X125196600Y-75463400D01*
D25*
%TO.N,/SCL*%
X132650000Y-83820000D02*
X131329611Y-83820000D01*
X131329611Y-83820000D02*
X130649000Y-83139389D01*
X130649000Y-83139389D02*
X130649000Y-79501000D01*
X130649000Y-79501000D02*
X132680000Y-77470000D01*
X132680000Y-77470000D02*
X133775000Y-77470000D01*
%TO.N,/SDA*%
X132181600Y-79070200D02*
X131724400Y-79070200D01*
X131724400Y-79070200D02*
X131000000Y-79794600D01*
X131000000Y-79794600D02*
X131000000Y-82994000D01*
X131000000Y-82994000D02*
X131216400Y-83210400D01*
X131216400Y-83210400D02*
X134188200Y-83210400D01*
X134594600Y-84505800D02*
X134035800Y-85064600D01*
X134188200Y-83210400D02*
X134594600Y-83616800D01*
X134594600Y-83616800D02*
X134594600Y-84505800D01*
X134035800Y-85064600D02*
X132675400Y-85064600D01*
X132675400Y-85064600D02*
X132650000Y-85090000D01*
%TO.N,Net-(U1-X1)*%
X122555000Y-81220000D02*
X127640000Y-81220000D01*
X127640000Y-81220000D02*
X127700000Y-81280000D01*
%TO.N,Net-(U1-X2)*%
X126212600Y-82550000D02*
X127700000Y-82550000D01*
X124019000Y-86420000D02*
X125552200Y-84886800D01*
X125552200Y-83210400D02*
X126212600Y-82550000D01*
X125552200Y-84886800D02*
X125552200Y-83210400D01*
X122555000Y-86420000D02*
X124019000Y-86420000D01*
%TO.N,Net-(U1-SQW{slash}~{INT})*%
X134262500Y-88265000D02*
X134262500Y-87479500D01*
X134262500Y-87479500D02*
X134975600Y-86766400D01*
X134975600Y-83464400D02*
X134061200Y-82550000D01*
X134061200Y-82550000D02*
X132650000Y-82550000D01*
X134975600Y-86766400D02*
X134975600Y-83464400D01*
%TO.N,Net-(U1-~{INTA})*%
X127584200Y-86893400D02*
X128244600Y-86893400D01*
X126722500Y-87755100D02*
X127584200Y-86893400D01*
X129133600Y-84124800D02*
X128828800Y-83820000D01*
X128244600Y-86893400D02*
X129133600Y-86004400D01*
X128828800Y-83820000D02*
X127700000Y-83820000D01*
X129133600Y-86004400D02*
X129133600Y-84124800D01*
X126722500Y-88265000D02*
X126722500Y-87755100D01*
%TO.N,/RESET*%
X160650000Y-76850000D02*
X156552500Y-76850000D01*
X156552500Y-76850000D02*
X155297500Y-78105000D01*
%TO.N,/MISO*%
X147648800Y-83743800D02*
X146310000Y-82405000D01*
X148107400Y-83743800D02*
X147648800Y-83743800D01*
%TO.N,/MOSI*%
X146710400Y-83947000D02*
X145999200Y-83947000D01*
X145999200Y-83947000D02*
X145510000Y-83457800D01*
X145510000Y-83457800D02*
X145510000Y-82405000D01*
%TO.N,/RX*%
X143002000Y-76504800D02*
X142310000Y-75812800D01*
X142310000Y-75812800D02*
X142310000Y-73805000D01*
X143179800Y-76504800D02*
X143002000Y-76504800D01*
%TO.N,/TX*%
X143357600Y-77952600D02*
X143357600Y-77444600D01*
X141510000Y-75597000D02*
X141510000Y-73805000D01*
X143357600Y-77444600D02*
X141510000Y-75597000D01*
%TO.N,/D3*%
X129971800Y-89789000D02*
X135686800Y-89789000D01*
X138258200Y-75305000D02*
X139210000Y-75305000D01*
X136906000Y-88569800D02*
X136906000Y-76657200D01*
X127685800Y-92075000D02*
X129971800Y-89789000D01*
X136906000Y-76657200D02*
X138258200Y-75305000D01*
X135686800Y-89789000D02*
X136906000Y-88569800D01*
X127645000Y-92075000D02*
X127685800Y-92075000D01*
%TO.N,/D8*%
X143110000Y-83343800D02*
X143110000Y-82405000D01*
X140345000Y-92039600D02*
X144043400Y-88341200D01*
X144043400Y-84277200D02*
X143110000Y-83343800D01*
X144043400Y-88341200D02*
X144043400Y-84277200D01*
X140345000Y-92075000D02*
X140345000Y-92039600D01*
%TO.N,/D6*%
X141510000Y-83039200D02*
X141510000Y-82405000D01*
X143332200Y-88036400D02*
X143332200Y-84861400D01*
X135265000Y-92075000D02*
X135265000Y-92014200D01*
X137109200Y-90170000D02*
X141198600Y-90170000D01*
X135265000Y-92014200D02*
X137109200Y-90170000D01*
X141198600Y-90170000D02*
X143332200Y-88036400D01*
X143332200Y-84861400D02*
X141510000Y-83039200D01*
%TO.N,/D2*%
X136499600Y-88341200D02*
X136499600Y-76352400D01*
X125105000Y-92075000D02*
X125349000Y-92075000D01*
X136499600Y-76352400D02*
X138760200Y-74091800D01*
X129717800Y-89408000D02*
X135432800Y-89408000D01*
X125349000Y-92075000D02*
X126898400Y-90525600D01*
X138760200Y-74091800D02*
X140423200Y-74091800D01*
X135432800Y-89408000D02*
X136499600Y-88341200D01*
X140423200Y-74091800D02*
X140710000Y-73805000D01*
X128600200Y-90525600D02*
X129717800Y-89408000D01*
X126898400Y-90525600D02*
X128600200Y-90525600D01*
%TO.N,/D4*%
X137287000Y-88849200D02*
X137287000Y-76936600D01*
X138118600Y-76105000D02*
X139210000Y-76105000D01*
X135966200Y-90170000D02*
X137287000Y-88849200D01*
X137287000Y-76936600D02*
X138118600Y-76105000D01*
X130302000Y-92075000D02*
X132207000Y-90170000D01*
X132207000Y-90170000D02*
X135966200Y-90170000D01*
X130185000Y-92075000D02*
X130302000Y-92075000D01*
%TO.N,/D7*%
X142310000Y-83051800D02*
X142310000Y-82405000D01*
X137805000Y-92075000D02*
X138353800Y-92075000D01*
X141351000Y-90525600D02*
X143687800Y-88188800D01*
X143687800Y-88188800D02*
X143687800Y-84429600D01*
X138353800Y-92075000D02*
X139903200Y-90525600D01*
X143687800Y-84429600D02*
X142310000Y-83051800D01*
X139903200Y-90525600D02*
X141351000Y-90525600D01*
%TO.N,/D5*%
X136144000Y-90576400D02*
X136956800Y-89763600D01*
X140710000Y-83204400D02*
X140710000Y-82405000D01*
X142982200Y-85019400D02*
X141884400Y-83921600D01*
X141884400Y-83921600D02*
X141427200Y-83921600D01*
X133146800Y-92075000D02*
X134645400Y-90576400D01*
X136956800Y-89763600D02*
X141097000Y-89763600D01*
X134645400Y-90576400D02*
X136144000Y-90576400D01*
X132725000Y-92075000D02*
X133146800Y-92075000D01*
X141427200Y-83921600D02*
X140710000Y-83204400D01*
X142982200Y-87878400D02*
X142982200Y-85019400D01*
X141097000Y-89763600D02*
X142982200Y-87878400D01*
%TO.N,/SDA*%
X163195000Y-85725000D02*
X159588200Y-85725000D01*
X133547500Y-72390000D02*
X134848600Y-72390000D01*
X152325700Y-79578200D02*
X150852500Y-78105000D01*
X133775000Y-78740000D02*
X132511800Y-78740000D01*
X134848600Y-72390000D02*
X135001000Y-72542400D01*
X144754600Y-75895200D02*
X144710000Y-75850600D01*
X132511800Y-78740000D02*
X132181600Y-79070200D01*
X153441400Y-79578200D02*
X152325700Y-79578200D01*
X159588200Y-85725000D02*
X153441400Y-79578200D01*
X144710000Y-75850600D02*
X144710000Y-73805000D01*
%TO.N,Net-(D2-K)*%
X149557500Y-71655700D02*
X149557500Y-69850000D01*
X152677500Y-75565000D02*
X152677500Y-73835900D01*
X151511000Y-72669400D02*
X150571200Y-72669400D01*
X152677500Y-73835900D02*
X151511000Y-72669400D01*
X150571200Y-72669400D02*
X149557500Y-71655700D01*
%TO.N,Net-(D1-K)*%
X154002500Y-69850000D02*
X154002500Y-72087500D01*
X154002500Y-72087500D02*
X157274900Y-75359900D01*
%TO.N,/SCK*%
X157657800Y-72720200D02*
X157683200Y-72694800D01*
X159247600Y-74310000D02*
X157657800Y-72720200D01*
X157683200Y-72694800D02*
X157657800Y-71630300D01*
X160650000Y-74310000D02*
X159247600Y-74310000D01*
X157657800Y-71630300D02*
X155877500Y-69850000D01*
%TO.N,/Abc123*%
X149656800Y-79273400D02*
X148888400Y-78505000D01*
X148888400Y-78505000D02*
X147810000Y-78505000D01*
X151003000Y-79273400D02*
X149656800Y-79273400D01*
X151714200Y-79984600D02*
X151003000Y-79273400D01*
X151714200Y-81356200D02*
X151714200Y-79984600D01*
X152735000Y-83185000D02*
X152735000Y-82377000D01*
X152735000Y-82377000D02*
X151714200Y-81356200D01*
%TO.N,Net-(U4-PB7)*%
X139319000Y-81014000D02*
X139210000Y-80905000D01*
X139319000Y-82042000D02*
X139319000Y-81014000D01*
X139319000Y-84769000D02*
X139319000Y-82042000D01*
X140910000Y-86360000D02*
X139319000Y-84769000D01*
%TO.N,Net-(U4-PB6)*%
X146745000Y-85725000D02*
X146110000Y-86360000D01*
X150815000Y-85725000D02*
X146745000Y-85725000D01*
X146050000Y-88620600D02*
X146110000Y-88560600D01*
X146110000Y-88560600D02*
X146110000Y-86360000D01*
X139254200Y-80060800D02*
X139210000Y-80105000D01*
X140766800Y-80340200D02*
X140487400Y-80060800D01*
X140919200Y-80340200D02*
X140766800Y-80340200D01*
X140487400Y-80060800D02*
X139254200Y-80060800D01*
D26*
%TO.N,/Vcc*%
X126575000Y-77470000D02*
X128397000Y-77470000D01*
X125196600Y-75463400D02*
X125730000Y-74930000D01*
X145100000Y-69850000D02*
X145100000Y-70546000D01*
X125196600Y-76885800D02*
X125196600Y-76050000D01*
X145100000Y-70546000D02*
X144424400Y-71221600D01*
X130479800Y-88265000D02*
X132437500Y-88265000D01*
X125730000Y-74930000D02*
X126575000Y-74930000D01*
X153162000Y-78105000D02*
X154990800Y-79933800D01*
X126575000Y-77470000D02*
X125780800Y-77470000D01*
X157122500Y-78814300D02*
X158242000Y-79933800D01*
X152677500Y-78105000D02*
X153162000Y-78105000D01*
X152677500Y-80645000D02*
X152781000Y-80645000D01*
X141382800Y-77705000D02*
X139210000Y-77705000D01*
X141960600Y-78282800D02*
X141382800Y-77705000D01*
X157122500Y-78105000D02*
X157122500Y-78814300D01*
X128547500Y-88265000D02*
X130479800Y-88265000D01*
X126347500Y-69850000D02*
X126347500Y-71120000D01*
X125780800Y-77470000D02*
X125196600Y-76885800D01*
X146195800Y-80105000D02*
X145618200Y-79527400D01*
X154990800Y-79933800D02*
X158242000Y-79933800D01*
X128397000Y-77470000D02*
X128574800Y-77647800D01*
X126347500Y-68580000D02*
X126347500Y-69850000D01*
X147810000Y-80105000D02*
X146195800Y-80105000D01*
X152781000Y-80645000D02*
X154432000Y-82296000D01*
%TO.N,GND*%
X133547500Y-69850000D02*
X136210000Y-69850000D01*
X141300200Y-79425800D02*
X140379400Y-78505000D01*
X147810000Y-77705000D02*
X146043600Y-77705000D01*
X139210000Y-76905000D02*
X140696800Y-76905000D01*
X140379400Y-78505000D02*
X139210000Y-78505000D01*
X140696800Y-76905000D02*
X141046200Y-76555600D01*
X152715000Y-85725000D02*
X152715000Y-85278000D01*
X152715000Y-85278000D02*
X151866600Y-84429600D01*
X153924000Y-74191500D02*
X155297500Y-75565000D01*
X152715000Y-85725000D02*
X154355800Y-85725000D01*
X127700000Y-85090000D02*
X127152400Y-85090000D01*
X150835000Y-83906000D02*
X150835000Y-83185000D01*
X153924000Y-74091800D02*
X153924000Y-74191500D01*
X151866600Y-84429600D02*
X151358600Y-84429600D01*
X127152400Y-85090000D02*
X126187200Y-86055200D01*
X151358600Y-84429600D02*
X150835000Y-83906000D01*
X146043600Y-77705000D02*
X145999200Y-77749400D01*
%TD*%
M02*
