%TF.GenerationSoftware,KiCad,Pcbnew,9.0.0*%
%TF.CreationDate,2025-03-11T16:24:46+11:00*%
%TF.ProjectId,MCU Datalogger,4d435520-4461-4746-916c-6f676765722e,1*%
%TF.SameCoordinates,Original*%
%TF.FileFunction,Soldermask,Top*%
%TF.FilePolarity,Negative*%
%FSLAX46Y46*%
G04 Gerber Fmt 4.6, Leading zero omitted, Abs format (unit mm)*
G04 Created by KiCad (PCBNEW 9.0.0) date 2025-03-11 16:24:46*
%MOMM*%
%LPD*%
G01*
G04 APERTURE LIST*
G04 Aperture macros list*
%AMRoundRect*
0 Rectangle with rounded corners*
0 $1 Rounding radius*
0 $2 $3 $4 $5 $6 $7 $8 $9 X,Y pos of 4 corners*
0 Add a 4 corners polygon primitive as box body*
4,1,4,$2,$3,$4,$5,$6,$7,$8,$9,$2,$3,0*
0 Add four circle primitives for the rounded corners*
1,1,$1+$1,$2,$3*
1,1,$1+$1,$4,$5*
1,1,$1+$1,$6,$7*
1,1,$1+$1,$8,$9*
0 Add four rect primitives between the rounded corners*
20,1,$1+$1,$2,$3,$4,$5,0*
20,1,$1+$1,$4,$5,$6,$7,0*
20,1,$1+$1,$6,$7,$8,$9,0*
20,1,$1+$1,$8,$9,$2,$3,0*%
G04 Aperture macros list end*
%ADD10R,1.970000X0.590000*%
%ADD11R,1.700000X1.700000*%
%ADD12O,1.700000X1.700000*%
%ADD13RoundRect,0.250000X-0.250000X-0.475000X0.250000X-0.475000X0.250000X0.475000X-0.250000X0.475000X0*%
%ADD14C,2.100000*%
%ADD15RoundRect,0.250000X0.262500X0.450000X-0.262500X0.450000X-0.262500X-0.450000X0.262500X-0.450000X0*%
%ADD16RoundRect,0.250000X-0.262500X-0.450000X0.262500X-0.450000X0.262500X0.450000X-0.262500X0.450000X0*%
%ADD17RoundRect,0.243750X-0.243750X-0.456250X0.243750X-0.456250X0.243750X0.456250X-0.243750X0.456250X0*%
%ADD18RoundRect,0.150000X-0.650000X-0.150000X0.650000X-0.150000X0.650000X0.150000X-0.650000X0.150000X0*%
%ADD19R,3.500000X2.400000*%
%ADD20R,2.400000X3.500000*%
%ADD21R,1.500000X0.550000*%
%ADD22R,0.550000X1.500000*%
%ADD23RoundRect,0.250000X0.250000X0.475000X-0.250000X0.475000X-0.250000X-0.475000X0.250000X-0.475000X0*%
G04 APERTURE END LIST*
D10*
%TO.C,U1*%
X127700000Y-81280000D03*
X127700000Y-82550000D03*
X127700000Y-83820000D03*
X127700000Y-85090000D03*
X132650000Y-85090000D03*
X132650000Y-83820000D03*
X132650000Y-82550000D03*
X132650000Y-81280000D03*
%TD*%
D11*
%TO.C,J4*%
X160650000Y-71770000D03*
D12*
X163190000Y-71770000D03*
X160650000Y-74310000D03*
X163190000Y-74310000D03*
X160650000Y-76850000D03*
X163190000Y-76850000D03*
%TD*%
D11*
%TO.C,J2*%
X125105000Y-92075000D03*
D12*
X127645000Y-92075000D03*
X130185000Y-92075000D03*
X132725000Y-92075000D03*
X135265000Y-92075000D03*
X137805000Y-92075000D03*
X140345000Y-92075000D03*
X142885000Y-92075000D03*
X145425000Y-92075000D03*
%TD*%
D13*
%TO.C,C5*%
X145100000Y-69850000D03*
X147000000Y-69850000D03*
%TD*%
D14*
%TO.C,H3*%
X165735000Y-67310000D03*
%TD*%
D15*
%TO.C,R6*%
X157122500Y-78105000D03*
X155297500Y-78105000D03*
%TD*%
%TO.C,R7*%
X152677500Y-75565000D03*
X150852500Y-75565000D03*
%TD*%
D16*
%TO.C,R2*%
X132437500Y-88265000D03*
X134262500Y-88265000D03*
%TD*%
D17*
%TO.C,D2*%
X149557500Y-69850000D03*
X151432500Y-69850000D03*
%TD*%
D18*
%TO.C,U3*%
X126575000Y-74930000D03*
X126575000Y-76200000D03*
X126575000Y-77470000D03*
X126575000Y-78740000D03*
X133775000Y-78740000D03*
X133775000Y-77470000D03*
X133775000Y-76200000D03*
X133775000Y-74930000D03*
%TD*%
D13*
%TO.C,C4*%
X150835000Y-83185000D03*
X152735000Y-83185000D03*
%TD*%
D15*
%TO.C,R1*%
X128547500Y-88265000D03*
X126722500Y-88265000D03*
%TD*%
D19*
%TO.C,Y2*%
X140910000Y-86360000D03*
X146110000Y-86360000D03*
%TD*%
D20*
%TO.C,Y1*%
X122555000Y-86420000D03*
X122555000Y-81220000D03*
%TD*%
D13*
%TO.C,C2*%
X150815000Y-85725000D03*
X152715000Y-85725000D03*
%TD*%
D11*
%TO.C,J1*%
X163195000Y-80645000D03*
D12*
X163195000Y-83185000D03*
X163195000Y-85725000D03*
X163195000Y-88265000D03*
%TD*%
D15*
%TO.C,R3*%
X152677500Y-80645000D03*
X150852500Y-80645000D03*
%TD*%
D18*
%TO.C,U2*%
X126347500Y-68580000D03*
X126347500Y-69850000D03*
X126347500Y-71120000D03*
X126347500Y-72390000D03*
X133547500Y-72390000D03*
X133547500Y-71120000D03*
X133547500Y-69850000D03*
X133547500Y-68580000D03*
%TD*%
D11*
%TO.C,BT1*%
X122555000Y-73660000D03*
D12*
X122555000Y-76200000D03*
%TD*%
D15*
%TO.C,R4*%
X152677500Y-78105000D03*
X150852500Y-78105000D03*
%TD*%
D13*
%TO.C,C3*%
X140655000Y-69850000D03*
X142555000Y-69850000D03*
%TD*%
D16*
%TO.C,R5*%
X155297500Y-75565000D03*
X157122500Y-75565000D03*
%TD*%
D21*
%TO.C,U4*%
X139210000Y-75305000D03*
X139210000Y-76105000D03*
X139210000Y-76905000D03*
X139210000Y-77705000D03*
X139210000Y-78505000D03*
X139210000Y-79305000D03*
X139210000Y-80105000D03*
X139210000Y-80905000D03*
D22*
X140710000Y-82405000D03*
X141510000Y-82405000D03*
X142310000Y-82405000D03*
X143110000Y-82405000D03*
X143910000Y-82405000D03*
X144710000Y-82405000D03*
X145510000Y-82405000D03*
X146310000Y-82405000D03*
D21*
X147810000Y-80905000D03*
X147810000Y-80105000D03*
X147810000Y-79305000D03*
X147810000Y-78505000D03*
X147810000Y-77705000D03*
X147810000Y-76905000D03*
X147810000Y-76105000D03*
X147810000Y-75305000D03*
D22*
X146310000Y-73805000D03*
X145510000Y-73805000D03*
X144710000Y-73805000D03*
X143910000Y-73805000D03*
X143110000Y-73805000D03*
X142310000Y-73805000D03*
X141510000Y-73805000D03*
X140710000Y-73805000D03*
%TD*%
D14*
%TO.C,H4*%
X165735000Y-93980000D03*
%TD*%
D17*
%TO.C,D1*%
X154002500Y-69850000D03*
X155877500Y-69850000D03*
%TD*%
D14*
%TO.C,H2*%
X120015000Y-93980000D03*
%TD*%
D11*
%TO.C,J3*%
X150505000Y-92075000D03*
D12*
X153045000Y-92075000D03*
X155585000Y-92075000D03*
X158125000Y-92075000D03*
%TD*%
D23*
%TO.C,C1*%
X138110000Y-69850000D03*
X136210000Y-69850000D03*
%TD*%
D14*
%TO.C,H1*%
X120015000Y-67310000D03*
%TD*%
M02*
